<?xml version="1.0" encoding="UTF-8"?>
<!DOCTYPE svg PUBLIC "-//W3C//DTD SVG 1.1//EN" "http://www.w3.org/Graphics/SVG/1.1/DTD/svg11.dtd">
<!-- Creator: CorelDRAW -->
<svg xmlns="http://www.w3.org/2000/svg" xml:space="preserve" width="100mm" height="100mm" version="1.1" style="shape-rendering:geometricPrecision; text-rendering:geometricPrecision; image-rendering:optimizeQuality; fill-rule:evenodd; clip-rule:evenodd"
viewBox="0 0 10000 10000"
 xmlns:xlink="http://www.w3.org/1999/xlink"
 xmlns:xodm="http://www.corel.com/coreldraw/odm/2003">
 <defs>
  <style type="text/css">
   <![CDATA[
    .str0 {stroke:white;stroke-width:17.64;stroke-miterlimit:22.9256}
    .fil0 {fill:none}
    .fil1 {fill:white}
    .fil5 {fill:#FFFCDC;fill-opacity:0.149020}
    .fil6 {fill:#FFFCDC;fill-rule:nonzero;fill-opacity:0.149020}
    .fil9 {fill:#B04B87;fill-opacity:0.180392}
    .fil10 {fill:#B04B87;fill-rule:nonzero;fill-opacity:0.180392}
    .fil21 {fill:#FCD8A4;fill-opacity:0.200000}
    .fil22 {fill:#FCD8A4;fill-rule:nonzero;fill-opacity:0.200000}
    .fil35 {fill:#FCD8A4;fill-opacity:0.250980}
    .fil36 {fill:#FCD8A4;fill-rule:nonzero;fill-opacity:0.250980}
    .fil23 {fill:#57ABB7;fill-opacity:0.329412}
    .fil24 {fill:#57ABB7;fill-rule:nonzero;fill-opacity:0.329412}
    .fil17 {fill:#F5B4B4;fill-opacity:0.341176}
    .fil18 {fill:#F5B4B4;fill-rule:nonzero;fill-opacity:0.341176}
    .fil39 {fill:#009C4D;fill-opacity:0.360784}
    .fil37 {fill:#FFFCDC;fill-opacity:0.400000}
    .fil38 {fill:#FFFCDC;fill-rule:nonzero;fill-opacity:0.400000}
    .fil19 {fill:#A1D9F7;fill-opacity:0.431373}
    .fil20 {fill:#A1D9F7;fill-rule:nonzero;fill-opacity:0.431373}
    .fil31 {fill:#F5B4B4;fill-opacity:0.450980}
    .fil32 {fill:#F5B4B4;fill-rule:nonzero;fill-opacity:0.450980}
    .fil15 {fill:#F0861B;fill-opacity:0.490196}
    .fil16 {fill:#F0861B;fill-rule:nonzero;fill-opacity:0.490196}
    .fil2 {fill:white;fill-rule:nonzero;fill-opacity:0.501961}
    .fil11 {fill:#009C4D;fill-opacity:0.541176}
    .fil12 {fill:#009C4D;fill-rule:nonzero;fill-opacity:0.541176}
    .fil41 {fill:#D07772;fill-opacity:0.560784}
    .fil40 {fill:#D07772;fill-rule:nonzero;fill-opacity:0.560784}
    .fil7 {fill:#E6232A;fill-opacity:0.600000}
    .fil8 {fill:#E6232A;fill-rule:nonzero;fill-opacity:0.600000}
    .fil13 {fill:#F5B4B4;fill-opacity:0.670588}
    .fil14 {fill:#F5B4B4;fill-rule:nonzero;fill-opacity:0.670588}
    .fil34 {fill:#D07772;fill-opacity:0.701961}
    .fil33 {fill:#D07772;fill-rule:nonzero;fill-opacity:0.701961}
    .fil29 {fill:#FFF683;fill-opacity:0.760784}
    .fil27 {fill:#F0861B;fill-opacity:0.760784}
    .fil3 {fill:#FFF100;fill-opacity:0.768627}
    .fil4 {fill:#FFF100;fill-rule:nonzero;fill-opacity:0.768627}
    .fil28 {fill:#F0861B;fill-rule:nonzero;fill-opacity:0.768627}
    .fil25 {fill:#E6232A;fill-opacity:0.800000}
    .fil26 {fill:#E6232A;fill-rule:nonzero;fill-opacity:0.800000}
    .fil30 {fill:#FFF683;fill-rule:nonzero;fill-opacity:0.901961}
   ]]>
  </style>
 </defs>
 <g id="圖層_x0020_1">
  <metadata id="CorelCorpID_0Corel-Layer"/>
  <line class="fil0 str0" x1="-0.23" y1="5000.25" x2="9999.77" y2= "5000.25" />
  <line class="fil0 str0" x1="4999.77" y1="10000.25" x2="4999.78" y2= "0.25" />
  <circle class="fil1" cx="4999.77" cy="5000.25" r="109.4"/>
  <path class="fil2" d="M4351.87 4585.68l-70.7 0c-8.25,0.85 -20.21,1.64 -35.93,2.49l0 -17.36c3.28,0 9.9,0.37 19.85,1.22 8.25,0 13.65,0 16.08,0l153.83 0c4.13,0 10.32,0 18.57,0 7.47,0 13.23,-0.43 17.36,-1.22l0 17.36c-14.02,-0.85 -26.03,-1.64 -35.93,-2.49l-66.99 0 0 140.12 95.51 0c4.13,0 10.32,0 18.58,0 7.46,-0.79 13.23,-1.21 17.35,-1.21l0 17.35c-14.02,-0.84 -26.03,-1.64 -35.93,-2.48l-95.51 0 0 66.99c0,4.13 0,9.89 0,17.36 0.85,7.46 1.64,13.65 2.49,18.62l-19.85 0c0,-4.18 0,-10.37 0,-18.62 0,-7.47 0.43,-13.23 1.22,-17.36l0 -66.99 -96.73 0c-8.26,0.84 -20.27,1.64 -35.93,2.48l0 -17.35c3.28,0 9.89,0.42 19.84,1.21 8.26,0 13.6,0 16.09,0l96.73 0 0 -140.12zm-47.1 121.55c-14.07,-26.46 -30.58,-51.7 -49.63,-75.67l13.65 -9.9c11.59,14.87 26.88,38 45.88,69.43 2.49,3.33 4.55,5.77 6.19,7.46l-16.09 8.68zm101.71 0c-5.82,-3.33 -11.59,-6.61 -17.36,-9.95 23.13,-23.12 41.75,-48.79 55.78,-76.89 4.97,2.49 10.37,6.19 16.14,11.17 2.48,2.49 2.06,4.55 -1.27,6.19 -4.13,1.69 -8.26,5.82 -12.39,12.44 -11.59,18.99 -25.18,37.99 -40.9,57.04zm345 -63.29c4.98,-9.05 12.02,-21.48 21.12,-37.2 2.43,-3.28 4.13,-5.77 4.92,-7.41l-52.07 0c-4.97,9.1 -16.56,26.04 -34.71,50.86 -4.98,-3.34 -10.75,-5.4 -17.36,-6.25 25.61,-27.25 44.61,-57.41 57.04,-90.49 7.41,3.28 13.23,6.2 17.36,8.68 1.64,1.64 2.06,2.86 1.22,3.71 0,0.84 -0.8,1.21 -2.49,1.21 -3.28,1.7 -5.77,4.13 -7.41,7.46 -1.64,2.49 -3.33,4.98 -4.97,7.47 -0.85,2.43 -1.22,3.7 -1.22,3.7l37.2 0c11.54,0.85 22.33,0.42 32.23,-1.27 -9.9,19.05 -21.06,38.89 -33.5,59.53l19.84 0c9.95,0 19.43,-0.79 28.53,-2.43 0,3.28 -0.37,9.05 -1.22,17.35 0,6.62 0,10.32 0,11.17l0 22.33 2.49 0c5.76,0.79 12.8,0.37 21.06,-1.27l0 16.14c-4.98,-0.85 -11.96,-1.27 -21.06,-1.27l-2.49 0 0 22.33c0,2.49 0,6.19 0,11.17 0.85,8.25 1.22,14.07 1.22,17.35 -5.77,-0.79 -15.3,-1.21 -28.53,-1.21l-32.22 0 0 57.04c2.49,14.87 -12.38,23.55 -44.66,26.04 -1.64,-4.98 -4.98,-11.17 -9.9,-18.58 29.74,1.64 42.55,-2.06 38.42,-11.16l0 -53.34 -21.06 0c-5.82,0 -15.29,0.42 -28.52,1.21l0 -16.08c7.4,1.64 16.93,2.06 28.52,1.21l21.06 0 0 -35.98 -29.74 0c-5.82,0 -14.92,0.42 -27.31,1.27l0 -16.14c6.62,1.64 16.14,2.06 28.53,1.27l28.52 0 0 -35.98 -14.87 0c-5.77,0 -14.87,0.42 -27.31,1.21l0 -14.87c3.34,0 9.11,0.43 17.36,1.22 4.98,0 8.31,0 9.95,0l26.03 0zm-156.26 99.22l0 23.6 62.02 0 0 -23.6 -62.02 0zm50.85 -49.58c9.9,0 19.42,-0.85 28.53,-2.49 -1.64,5.77 -2.07,15.72 -1.22,29.79l0 86.79c4.13,16.56 -10.8,24.81 -44.66,24.81 -0.85,-6.61 -2.91,-12.38 -6.19,-17.35 25.61,1.64 37.2,-1.27 34.71,-8.68l0 -27.31 -62.02 0 0 16.14c-0.85,17.36 -0.42,29.74 1.22,37.2l-18.58 0c0,-5.76 0,-12.01 0,-18.62 0.85,-3.28 1.22,-9.48 1.22,-18.58l0 -74.4c0,-14.07 -0.37,-24.02 -1.22,-29.79 12.39,1.64 21.91,2.49 28.53,2.49l39.68 0zm-50.85 12.38l0 23.6 62.02 0 0 -23.6 -62.02 0zm0 -116.58l23.55 0 0 -11.16c0,-0.79 -0.37,-3.71 -1.22,-8.68 0,-6.61 0,-11.59 0,-14.87 14.08,2.49 21.49,3.71 22.33,3.71 1.64,0.84 2.49,2.06 2.49,3.75 0,0.8 -0.85,1.64 -2.49,2.44 -4.97,4.18 -7.03,8.3 -6.19,12.43l0 12.38 24.77 0c5.82,0 14.92,-0.79 27.3,-2.48l0 16.14c-6.61,-0.85 -15.71,-1.22 -27.3,-1.22l-24.77 0 0 23.55 14.87 0c11.59,0.84 20.64,0.42 27.25,-1.27l0 14.92c-3.28,0 -9.05,0 -17.35,0 -5.77,-0.85 -9.1,-1.27 -9.9,-1.27l-14.87 0 0 26.04 27.25 0c11.59,0.84 20.69,0.42 27.31,-1.22l0 16.14c-6.62,-0.85 -15.72,-1.27 -27.31,-1.27l-76.88 0c-5.77,0 -14.87,0.42 -27.31,1.27l0 -16.14c6.62,1.64 15.72,2.06 27.31,1.22l34.71 0 0 -26.04 -13.6 0c-1.69,0 -4.55,0.42 -8.73,1.27 -8.26,0 -14.87,0 -19.85,0l0 -14.92c3.34,0 9.11,0.42 17.41,1.27 4.93,0 8.68,0 11.17,0l13.6 0 0 -23.55 -23.55 0c-9.89,0 -19.42,0.37 -28.52,1.22l0 -16.14c5.77,0.84 15.29,1.69 28.52,2.48zm205.9 67l-44.66 0 0 35.98 44.66 0 0 -35.98zm0 85.56l0 -35.98 -44.66 0 0 35.98 44.66 0z"/>
  <path class="fil3" d="M9998.32 2761.08c-60.42,0 -109.4,-48.98 -109.4,-109.4 0,-60.42 48.98,-109.4 109.4,-109.4 60.42,0 109.4,48.98 109.4,109.4 0,60.42 -48.98,109.4 -109.4,109.4z"/>
  <path class="fil4" d="M9321.61 2616.52c-6.62,-23.97 -13.23,-43.81 -19.85,-59.53l14.87 -6.19c8.26,23.12 14.87,43.39 19.85,60.75l-14.87 4.97zm-78.16 26.04c-4.98,-0.85 -11.17,-1.64 -18.63,-2.49 7.46,-18.2 13.23,-44.24 17.41,-78.11 7.41,0.8 13.23,1.64 17.36,2.44 2.48,1.69 2.48,3.75 0,6.24 -2.49,1.64 -3.76,5.35 -3.76,11.17 -1.64,5.77 -2.86,11.96 -3.7,18.57 -4.13,19.84 -7.04,33.92 -8.68,42.18zm45.88 109.16c0,0.8 0,5.35 0,13.6 0.84,11.59 1.27,19.05 1.27,22.33l-18.63 0c0.85,-14.02 1.64,-26.45 2.49,-37.2l0 -219.5c-0.85,-9.1 -1.64,-20.69 -2.49,-34.76 10.74,2.49 18.63,4.18 23.55,4.97 1.69,0.85 2.48,2.07 2.48,3.71 0,0.84 -0.79,1.69 -2.48,2.48 -4.92,3.34 -6.99,8.68 -6.19,16.14l0 228.23zm172.4 -111.65l0 -73.19 -49.58 0c-2.49,34.77 -3.34,59.17 -2.49,73.19l52.07 0zm-143.88 -1.22c3.33,0.8 10.37,1.22 21.11,1.22 8.26,0.85 13.65,0.85 16.09,0l38.47 0c0.85,-23.13 1.64,-47.52 2.49,-73.19l-17.36 0c-16.56,0 -28.95,0.43 -37.2,1.27l0 -16.13c6.61,1.64 19,2.06 37.2,1.27l17.36 0 0 -23.61c0,-16.51 -0.43,-28.52 -1.27,-35.93 6.61,1.64 14.5,3.28 23.6,4.93 1.64,0.84 2.48,2.06 2.48,3.75 0,0.8 -0.84,1.64 -2.48,2.44 -4.98,3.33 -7.04,8.73 -6.19,16.14l0 32.28 38.41 0c13.23,0.79 22.76,0.37 28.53,-1.27 -1.64,9.1 -2.49,18.62 -2.49,28.52l0 59.53c6.61,0.85 17.36,0 32.28,-2.49l0 17.36c-16.57,-0.8 -28.95,-1.64 -37.2,-2.44l-57.1 0c17.41,52.07 48.79,89.7 94.3,112.82 -4.98,3.34 -9.53,7.89 -13.65,13.66 -42.18,-28.1 -72.34,-64.88 -90.55,-110.39 -16.56,49.64 -47.57,88.05 -93.02,115.36 -4.13,-4.13 -9.53,-8.26 -16.14,-12.38 52.12,-24.82 84.35,-64.51 96.78,-119.07l-37.25 0c-7.41,0.8 -19.84,1.64 -37.2,2.44l0 -16.09zm255.73 111.6c26.46,-23.12 46.73,-52.07 60.8,-86.83 9.9,5.82 15.72,9.52 17.36,11.16 0.8,0.85 1.22,2.07 1.22,3.76 -0.8,0.79 -1.64,1.22 -2.49,1.22 -2.43,0.84 -4.92,2.48 -7.41,4.97 -14.87,28.1 -32.28,52.07 -52.12,71.91 -2.43,-2.48 -6.61,-3.7 -12.38,-3.7 -1.64,-0.85 -3.28,-1.64 -4.98,-2.49zm240.62 2.49c-19.85,-23.97 -44.24,-49.21 -73.19,-75.67l12.44 -11.17c30.58,28.95 55.77,54.19 75.62,75.67l-14.87 11.17zm-204.63 -126.52l83.08 0 0 -37.2c0,-15.72 -0.43,-27.26 -1.22,-34.72 6.61,1.64 14.45,3.28 23.55,4.98 1.64,0.79 2.48,2.06 2.48,3.7 0,0.85 -0.84,1.64 -2.48,2.49 -4.98,3.28 -7.04,8.68 -6.19,16.14l0 44.61 76.88 0c4.13,0.84 10.32,0.84 18.63,0 7.41,-0.8 13.23,-1.22 17.36,-1.22l0 14.87c-4.98,0 -9.95,0 -14.87,0 -4.98,-0.8 -12.01,-1.22 -21.12,-1.22l-76.88 0 0 120.28c1.64,14.08 -13.66,21.49 -45.88,22.33 -0.85,-4.13 -2.49,-9.52 -4.98,-16.14 -0.84,-1.64 -1.21,-2.43 -1.21,-2.43 25.61,0.79 37.62,-2.49 35.93,-9.95l0 -114.09 -79.38 0c-6.61,0.8 -14.02,2.49 -22.33,4.92 -3.28,-4.92 -6.61,-10.32 -9.9,-16.08 8.26,-4.13 13.23,-8.68 14.87,-13.66 2.49,-15.71 4.98,-37.2 7.47,-64.5 0.79,-7.41 0.42,-16.94 -1.27,-28.52 14.07,1.64 23.97,2.48 29.79,2.48 70.27,-2.48 122.34,-6.61 156.26,-12.38 5.77,9.1 9.53,14.02 11.17,14.87 0.84,2.49 1.21,4.55 1.21,6.19 -0.79,0.85 -2.06,0.85 -3.7,0 -4.98,-0.85 -10.32,-1.22 -16.14,-1.22 -17.36,1.64 -40.48,2.86 -69.43,3.71 -29.79,0.85 -59.95,1.22 -90.54,1.22 -1.64,9.94 -2.91,19.47 -3.7,28.52 -3.34,26.46 -5.82,47.15 -7.46,62.02z"/>
  <path class="fil5" d="M2248.32 6781.08c-60.42,0 -109.4,-48.98 -109.4,-109.4 0,-60.42 48.98,-109.4 109.4,-109.4 60.42,0 109.4,48.98 109.4,109.4 0,60.42 -48.98,109.4 -109.4,109.4z"/>
  <path class="fil6" d="M2450.73 6557.44c11.59,1.64 23.97,2.06 37.2,1.22l52.13 0c0,-8.26 -0.43,-14.87 -1.27,-19.85 0,-5.77 0,-11.53 0,-17.35 1.69,0.84 4.97,1.69 9.95,2.48 4.97,0 8.67,0 11.16,0 0.79,1.64 0.79,3.34 0,4.98 -3.33,1.64 -4.97,3.7 -4.97,6.19l0 104.19c-0.85,4.13 -0.43,15.29 1.21,33.5 0,5.76 0.43,10.32 1.27,13.6l-18.62 0c0,-4.13 0,-8.26 0,-12.39 0.84,-4.97 1.27,-9.52 1.27,-13.65l-57.05 0c-8.31,0 -14.5,0.42 -18.62,1.27 -4.98,0 -9.53,0 -13.66,0l0 -16.14c7.46,1.64 18.21,2.07 32.28,1.22l57.05 0 0 -30.96 -37.2 0c-6.62,0 -12.44,0.37 -17.36,1.22 -5.82,0 -11.17,0 -16.14,0l0 -16.14c9.9,1.69 21.06,2.06 33.5,1.27l37.2 0 0 -31.01 -52.13 0c-9.89,0.79 -20.21,1.64 -31.01,2.49 -2.43,0 -4.49,0 -6.19,0l0 -16.14zm171.19 131.44l-18.63 0c0,-7.4 0,-14.44 0,-21.06 0.85,-7.46 1.27,-16.14 1.27,-26.03l0 -80.65c0,-15.71 -0.42,-29.74 -1.27,-42.17 8.26,1.69 15.72,2.49 22.33,2.49 0.85,2.48 0.85,3.75 0,3.75 -4.12,3.28 -5.76,5.35 -4.97,6.19l0 27.26 49.63 0c10.75,0.84 22.71,0.42 35.94,-1.22l0 16.14c-16.51,-0.85 -28.53,-1.7 -35.94,-2.49l-49.63 0 0 31.01 35.98 0c10.74,0.79 22.76,0.42 35.99,-1.27l0 16.14c-9.11,-0.85 -21.12,-1.22 -35.99,-1.22l-35.98 0 0 30.96 49.63 0c15.72,0.85 27.68,0.42 35.94,-1.22l0 16.14c-9.9,-0.85 -21.91,-1.27 -35.94,-1.27l-49.63 0c-0.79,10.74 -0.42,20.27 1.27,28.52zm-19.84 59.53c-11.59,-16.51 -23.61,-32.22 -35.99,-47.09l11.17 -9.95c3.28,4.13 6.61,8.26 9.89,12.44 5.82,6.61 15.3,18.15 28.52,34.71l-13.59 9.89zm101.7 23.61c-0.85,-0.85 -2.12,-1.7 -3.76,-2.49 -18.99,-25.67 -34.29,-44.66 -45.87,-57.05l12.38 -9.94c13.23,14.07 30.64,33.92 52.12,59.53l-14.87 9.95zm-245.59 4.92c-4.97,-2.44 -9.52,-4.92 -13.65,-7.41 14.87,-19.85 27.73,-40.96 38.47,-63.29 3.28,4.18 7.83,7.04 13.6,8.73 -14.02,27.25 -26.83,47.94 -38.42,61.97zm89.28 18.62c-14.03,0 -21.07,-6.61 -21.07,-19.84l0 -29.79c0,-9.05 -0.42,-16.51 -1.21,-22.28 0,-6.61 0,-13.23 0,-19.84 1.64,0.79 4.92,1.64 9.89,2.43 5.77,0 9.95,0 12.39,0 0.84,1.69 0.84,3.33 0,4.97 -3.29,1.64 -4.93,3.76 -4.93,6.2l0 53.34c0,6.61 4.93,10.37 14.87,11.16l54.56 0c12.44,3.34 23.18,-9.52 32.28,-38.42 4.13,5.77 9.05,10.75 14.87,14.87 -10.74,28.1 -26.46,40.54 -47.15,37.2l-64.5 0zm350.03 -127.74c-2.49,0 -7.46,0.43 -14.92,1.22 -10.75,0 -18.16,0 -22.28,0l0 -16.09c12.38,1.64 24.76,2.49 37.2,2.49l35.93 0 0 -21.11c0,-3.28 -0.37,-9.11 -1.22,-17.36 -0.85,-7.46 -0.85,-13.23 0,-17.36 9.1,1.64 16.51,3.28 22.33,4.98 1.64,0.79 2.49,2.06 2.49,3.7 0,0.85 -0.85,1.64 -2.49,2.49 -4.97,4.13 -7.04,9.47 -6.19,16.09l0 28.57 57.04 0c8.26,0 17.78,-0.85 28.53,-2.49 -1.64,5.77 -2.07,15.3 -1.27,28.53l0 40.9c-0.8,13.23 -1.64,27.3 -2.49,42.17 0.85,20.7 -17.73,31.86 -55.77,33.5 -1.64,-6.61 -4.98,-12.38 -9.95,-17.36 35.56,0 52.12,-5.39 49.63,-16.14 0.8,-16.51 1.64,-30.58 2.49,-42.17l0 -54.56 -68.21 0c-7.46,57.89 -35.14,101.29 -83.13,130.23 -4.13,-5.77 -8.26,-9.95 -12.38,-12.38 46.3,-24.03 72.76,-63.29 79.37,-117.85l-34.71 0zm-52.13 -44.66c31.44,-24.82 54.19,-59.95 68.21,-105.41 6.62,2.49 12.44,4.98 17.36,7.46 1.69,1.64 2.49,2.86 2.49,3.71 0,1.64 -0.8,2.48 -2.49,2.48 -4.13,1.64 -6.98,4.98 -8.68,9.9 -1.64,2.49 -3.7,6.61 -6.19,12.43 -3.28,6.62 -5.34,10.75 -6.19,12.39l106.68 0c12.38,0.84 24.39,0.42 35.93,-1.22l0 16.09c-4.92,0 -9.89,0 -14.87,0 -4.97,-0.8 -11.96,-1.22 -21.06,-1.22l-112.87 0c-14.08,19.84 -27.73,37.62 -40.96,53.34 -5.77,-4.13 -11.53,-7.46 -17.36,-9.95zm-16.08 124.04c0,8.25 0,18.2 0,29.74 0.79,11.59 1.64,19.47 2.43,23.6l-19.84 0c0.85,-14.08 1.27,-32.28 1.27,-54.61l0 -136.42c-6.62,11.59 -16.93,25.24 -31.01,40.96 -4.13,-4.13 -9.53,-7.04 -16.14,-8.68 35.56,-36.41 59.11,-77.74 70.7,-124.04 7.46,2.49 13.65,4.98 18.62,7.46 1.64,1.64 2.86,2.86 3.71,3.71 -0.85,1.64 -2.07,2.48 -3.71,2.48 -2.48,0.8 -5.39,4.98 -8.68,12.39 0,0.84 0,1.27 0,1.27 -4.12,7.4 -9.94,19.84 -17.35,37.2l0 164.94z"/>
  <path class="fil7" d="M1198.32 1811.08c-60.42,0 -109.4,-48.98 -109.4,-109.4 0,-60.42 48.98,-109.4 109.4,-109.4 60.42,0 109.4,48.98 109.4,109.4 0,60.42 -48.98,109.4 -109.4,109.4z"/>
  <path class="fil8" d="M659.31 1312.79c0,-27.3 -0.37,-44.23 -1.22,-50.85 10.74,2.49 18.57,4.13 23.55,4.98 3.33,2.48 3.75,4.92 1.27,7.4 -5.82,4.13 -8.31,9.53 -7.46,16.14l0 208.39c0,8.25 0,18.15 0,29.74 0.84,11.59 1.64,19.84 2.48,24.82l-19.84 0c0.85,-11.59 1.22,-29.37 1.22,-53.34l0 -187.28zm-28.53 91.76c-4.12,-0.79 -9.1,-1.64 -14.87,-2.49 0.85,-3.28 1.64,-6.98 2.49,-11.16 5.77,-23.97 9.1,-43.39 9.9,-58.26 1.69,0.84 3.33,1.21 4.97,1.21 5.82,0.85 9.95,1.7 12.44,2.49 1.64,0.85 2.43,1.64 2.43,2.49 0,1.64 -0.79,2.49 -2.43,2.49 -1.7,1.64 -2.91,4.12 -3.76,7.46 -3.28,20.63 -7.04,39.26 -11.17,55.77zm79.38 130.23c28.15,-4.92 48.79,-16.09 62.02,-33.5 9.1,-16.51 13.23,-41.75 12.43,-75.61 6.62,1.64 13.23,2.85 19.85,3.7 2.43,1.64 2.43,3.33 0,4.97 -2.49,0.8 -3.76,2.86 -3.76,6.19 0,56.2 -26.04,92.61 -78.11,109.17 -2.48,-5.82 -6.61,-10.79 -12.43,-14.92zm174.89 13.65c-19.85,-18.99 -45.88,-34.71 -78.16,-47.15l8.68 -13.6c33.92,15.67 60.8,31.81 80.64,48.37l-11.16 12.38zm-171.13 -256.75c4.12,0.85 9.89,1.27 17.35,1.27 4.92,0 8.68,0 11.17,0l44.61 0 0 -8.68c0,-10.74 -0.37,-19.05 -1.22,-24.82 5.77,1.64 13.65,3.34 23.55,4.98 1.69,0.79 2.48,2.06 2.48,3.7 0,0.85 -0.79,1.64 -2.48,2.49 -4.92,3.33 -7.04,7.04 -6.19,11.16l0 11.17 53.34 0c11.58,0.85 20.69,0.42 27.3,-1.27l0 14.92c-3.33,0 -9.1,0 -17.41,0 -5.77,-0.84 -9.05,-1.27 -9.89,-1.27l-53.34 0 0 2.49c-0.85,7.46 -0.43,13.65 1.27,18.63l-18.63 0c0.85,-4.13 1.22,-10.38 1.22,-18.63l0 -2.49 -44.61 0c-1.7,0 -4.55,0.43 -8.68,1.27 -8.31,0 -14.92,0 -19.84,0l0 -14.92zm-1.27 68.26c0,1.64 0.42,4.5 1.27,8.68 1.64,4.13 3.28,7.41 4.92,9.9l-13.6 4.97c-6.62,-20.69 -13.66,-39.69 -21.12,-57.04l13.66 -4.98c1.64,4.13 3.7,9.1 6.19,14.87 1.64,5.82 3.33,9.53 4.97,11.17l33.5 0 0 -4.98c0,-6.61 -0.43,-14.44 -1.27,-23.54 7.46,0.84 14.07,1.64 19.84,2.48 1.64,0.85 2.91,2.07 3.76,3.71 0,0.84 -0.85,1.69 -2.49,2.48 -3.33,0.85 -4.55,4.98 -3.76,12.44l0 7.41 75.68 0 0 -7.41c0,-6.62 -0.43,-14.5 -1.22,-23.6 1.64,0.84 4.92,1.27 9.89,1.27 4.98,0.79 8.26,1.22 9.95,1.22 1.64,0.84 2.86,2.06 3.71,3.7 0,0.85 -0.85,2.06 -2.49,3.76 -3.28,0.79 -4.55,4.55 -3.71,11.16l0 9.9 12.39 0c7.46,0.84 19.42,0 35.98,-2.49l0 17.36c-16.56,-0.8 -28.52,-1.64 -35.98,-2.44l-12.39 0 0 4.92c-0.84,7.47 -0.42,13.66 1.22,18.63l-18.57 0c0.79,-4.13 1.22,-10.32 1.22,-18.63l0 -4.92 -75.68 0 0 7.41c-0.79,8.26 -0.37,14.5 1.27,18.63l-18.62 0c0.84,-4.98 1.27,-11.17 1.27,-18.63l0 -7.41 -29.79 0zm143.88 127.74c-0.85,-3.33 -0.85,-8.67 0,-16.14 0.84,-9.94 1.21,-17.78 1.21,-23.54l0 -37.26 -117.79 0 0 48.42c0,4.92 0,11.96 0,21.06 0.79,8.26 1.64,14.45 2.49,18.63l-18.63 0c0,-3.33 0,-9.1 0,-17.41 0.85,-9.9 1.27,-17.36 1.27,-22.28l0 -34.76c0,-2.49 -0.42,-7.41 -1.27,-14.87 0,-6.62 0,-11.17 0,-13.66 6.62,1.64 16.14,2.07 28.52,1.27l94.25 0c13.23,0.8 22.75,0.37 28.52,-1.27 -1.64,8.26 -2.43,17.78 -2.43,28.53l0 24.81c0,4.98 0,11.59 0,19.85 0.79,8.25 1.64,14.44 2.43,18.62l-18.57 0zm270.6 -9.94l-12.38 11.16c-15.72,-14.08 -30.59,-26.88 -44.66,-38.47l9.94 -12.38c19.85,15.71 35.51,28.94 47.1,39.69zm-71.91 60.8c-14.08,-0.85 -21.12,-7.04 -21.12,-18.63l0 -34.71c0,-9.11 -0.37,-17.78 -1.21,-26.04 4.97,0.8 11.96,1.64 21.06,2.44 0.84,0.84 1.27,1.69 1.27,2.48 0,0.85 -0.43,1.27 -1.27,1.27 -2.49,3.28 -3.71,6.19 -3.71,8.68l0 42.18c0,4.12 3.34,6.61 9.95,7.4l64.45 0c16.57,0.85 26.89,-8.25 31.01,-27.25 4.13,4.13 9.53,7.41 16.14,9.9 -8.25,22.33 -23.55,33.07 -45.88,32.28l-70.69 0zm181.08 -28.58l-13.65 9.95c-16.57,-16.56 -33.92,-31.86 -52.13,-45.88l11.17 -12.43c17.41,14.07 35.56,30.21 54.61,48.36zm-272.89 19.9c-4.13,-4.98 -8.26,-8.31 -12.39,-9.95 14.87,-11.59 29.8,-29.79 44.67,-54.56 5.76,4.13 10.31,7.41 13.65,9.9 1.64,1.64 2.06,3.33 1.22,4.97 0,0.85 -0.85,1.22 -2.49,1.22 -3.28,0 -5.35,1.27 -6.19,3.76 -14.08,20.63 -26.88,35.56 -38.47,44.66zm186.05 -153.83c-19.84,-25.61 -33.49,-49.16 -40.9,-70.7 -2.49,0 -7.04,0.43 -13.66,1.27l0 -16.14c6.62,1.64 16.09,2.07 28.53,1.22l52.07 0c15.71,0.85 28.1,0.42 37.2,-1.22 -11.54,32.23 -25.61,60.38 -42.18,84.35 21.54,19.85 44.24,33.08 68.26,39.69 -7.46,4.97 -12.01,10.74 -13.65,17.36 -27.3,-14.87 -48.79,-29.8 -64.5,-44.67 -18.21,17.36 -37.63,32.28 -58.32,44.67 -4.12,-6.62 -9.05,-11.59 -14.87,-14.87 23.97,-9.95 44.66,-23.6 62.02,-40.96zm-26.03 -70.7c9.89,22.33 22.33,41.75 37.2,58.32 11.59,-18.21 21.06,-37.63 28.52,-58.32l-65.72 0zm-120.34 53.34c14.08,5.77 25.67,10.74 34.77,14.87 1.64,0.85 2.86,1.27 3.7,1.27 9.11,-13.23 16.51,-32.28 22.34,-57.04l-43.4 0c-5.82,14.87 -11.59,28.52 -17.41,40.9zm-21.06 -40.9c-1.64,0 -4.55,0.37 -8.68,1.22 -7.46,0 -13.65,0 -18.62,0l0 -14.87c3.33,0 9.1,0.42 17.35,1.21 4.98,0 8.31,0 9.95,0l26.04 0c4.13,-12.38 8.25,-27.25 12.43,-44.61 5.77,1.64 11.96,3.28 18.58,4.93 1.64,0.84 2.48,2.06 2.48,3.75 0,1.64 -0.84,2.44 -2.48,2.44 -3.28,0.84 -5.35,2.48 -6.19,4.97 -2.49,10.74 -5.4,20.27 -8.68,28.52l32.22 0c10.75,0.85 20.27,0.43 28.53,-1.21 -9.11,33.07 -19,58.68 -29.74,76.88 10.74,5.77 21.06,12.02 31.01,18.63l-8.68 14.87c-9.95,-7.46 -20.27,-14.08 -31.01,-19.84 -21.54,18.99 -48,35.13 -79.38,48.36 -3.33,-5.82 -7.88,-11.16 -13.65,-16.14 33.07,-9.1 59.11,-22.33 78.11,-39.69 -14.03,-7.4 -30.17,-14.44 -48.37,-21.06 6.61,-12.43 13.65,-28.52 21.11,-48.36l-22.33 0z"/>
  <path class="fil9" d="M1398.32 1911.08c-60.42,0 -109.4,-48.98 -109.4,-109.4 0,-60.42 48.98,-109.4 109.4,-109.4 60.42,0 109.4,48.98 109.4,109.4 0,60.42 -48.98,109.4 -109.4,109.4z"/>
  <path class="fil10" d="M1682.09 1862.6c-4.92,-9.89 -12.81,-22.33 -23.55,-37.2l13.65 -7.46c9.9,12.44 18.63,24.4 26.04,35.99l-16.14 8.67zm-101.66 38.47c-0.84,6.62 -0.42,12.81 1.22,18.58l-18.63 0c0.85,-6.62 1.27,-12.81 1.27,-18.58l0 -16.13c0,-9.11 -0.42,-16.14 -1.27,-21.07 5.83,0.8 10.8,1.22 14.93,1.22 3.28,0 5.77,0 7.41,0l199.7 0c0.8,0 3.28,0 7.41,0 6.62,-0.85 11.59,-1.22 14.92,-1.22 0,2.49 -0.42,6.2 -1.27,11.17 -0.79,4.92 -0.79,8.25 0,9.9l0 13.65c0,1.64 0,3.7 0,6.19 0,3.33 0.43,7.46 1.27,12.38l-17.35 0c0.79,-5.77 1.21,-11.96 1.21,-18.57l0 -21.12 -210.82 0 0 23.6zm22.28 207.12c0,-4.13 0,-10.32 0,-18.63 0.85,-3.28 1.27,-5.76 1.27,-7.4l0 -21.12c0,-2.49 -0.42,-7.41 -1.27,-14.87 0,-6.61 0,-11.16 0,-13.65 6.62,1.64 16.14,2.06 28.58,1.27l43.39 0 0 -26.09 -96.73 0c-7.46,0.85 -19.85,1.7 -37.2,2.49l0 -16.09c3.28,0 10.32,0.37 21.06,1.22 8.25,0 13.65,0 16.14,0l96.73 0 0 -26.04 -42.18 0c-2.48,0 -7.46,0.43 -14.87,1.22 -9.94,0 -16.98,0 -21.11,0l0 -16.09c12.44,1.65 24.4,2.44 35.98,2.44l42.18 0 0 -26.04 -44.66 0c-15.72,0 -27.68,0.43 -35.99,1.27l0 -16.14c6.62,1.64 18.63,2.07 35.99,1.22l44.66 0 0 -7.41c0,-0.84 -0.42,-4.12 -1.27,-9.95 0,-6.61 0,-11.53 0,-14.86 9.1,1.64 16.56,3.33 22.33,4.97 1.69,0.79 2.49,1.64 2.49,2.49 0,0.79 -0.8,2.06 -2.49,3.7 -4.92,2.49 -7.04,6.19 -6.19,11.17l0 9.89 49.63 0c16.51,0.85 28.9,0.42 37.2,-1.22l0 16.14c-8.3,-0.84 -20.69,-1.27 -37.2,-1.27l-49.63 0 0 26.04 49.63 0c4.13,0.85 10.32,0.85 18.58,0 8.25,-0.79 14.5,-1.22 18.62,-1.22l0 14.87c-8.3,-0.79 -20.69,-1.22 -37.2,-1.22l-49.63 0 0 26.04 95.51 0c16.51,0.85 28.95,0.42 37.2,-1.22l0 16.09c-11.59,-0.79 -23.97,-1.64 -37.2,-2.49l-95.51 0 0 26.09 53.34 0c14.07,0.79 23.55,0.37 28.52,-1.27 0,2.49 -0.42,7.88 -1.22,16.14 0,7.41 0,11.59 0,12.38l0 21.12c0,1.64 0,4.55 0,8.67 0.8,8.26 1.22,14.03 1.22,17.36 -5.77,-1.64 -15.29,-2.06 -28.52,-1.27l-111.6 0c-14.08,-0.79 -23.6,-0.37 -28.58,1.27zm152.56 -14.87l0 -45.93 -136.42 0 0 45.93 136.42 0zm219.81 -140.18c-4.18,-16.51 -10.8,-35.56 -19.85,-57.04l14.87 -6.19c9.1,20.64 16.14,39.69 21.06,57.04l-16.08 6.19zm-95.52 17.36c6.62,-18.15 11.17,-42.54 13.65,-73.18 7.41,1.69 13.66,2.91 18.58,3.75 1.69,0.8 2.48,2.07 2.48,3.71 0,1.64 -0.79,2.49 -2.48,2.49 -2.49,0.84 -3.71,2.91 -3.71,6.19 -2.48,19.05 -6.19,39.26 -11.16,60.8 -3.28,-0.85 -7.46,-1.69 -12.38,-2.49 -1.7,0 -3.34,-0.42 -4.98,-1.27zm47.15 141.4c0.79,-22.34 1.64,-40.49 2.43,-54.56l0 -178.6c-0.79,-18.99 -1.64,-35.98 -2.43,-50.85 10.74,1.64 19,3.28 24.76,4.98 3.34,2.48 3.34,4.92 0,7.4 -5.76,4.13 -8.25,9.53 -7.4,16.14l0 200.93c0,8.25 0,18.2 0,29.74 0.79,11.59 1.64,19.84 2.48,24.82l-19.84 0zm199.65 -26.04l0 -93.03 -102.92 0 0 93.03 102.92 0zm0 -106.68l0 -79.38 -102.92 0 0 79.38 102.92 0zm-62.01 -91.76l50.85 0c0.85,0 4.97,0 12.38,0 8.31,-0.84 13.65,-1.21 16.14,-1.21 -1.64,4.92 -2.06,14.44 -1.22,28.52l0 159.96c-0.84,9.95 -0.42,18.63 1.22,26.04 -5.77,-1.64 -15.29,-2.06 -28.52,-1.22l-80.59 0c-13.23,-0.84 -22.76,-0.42 -28.53,1.22 0.8,-7.41 1.22,-16.09 1.22,-26.04l0 -159.96c0,-2.49 -0.42,-7.46 -1.22,-14.93 0,-6.61 0,-11.16 0,-13.59 1.65,0 5.77,0.37 12.39,1.21 7.46,0 12.8,0 16.14,0l16.08 0c2.49,-8.25 5.82,-21.91 9.95,-40.9 0.8,-4.98 2.07,-9.95 3.71,-14.92 4.12,1.69 8.25,2.91 12.38,3.75 1.69,0.8 3.76,1.22 6.24,1.22 3.28,2.49 3.28,4.97 0,7.46 -2.48,1.64 -4.12,4.13 -4.97,7.41 -5.77,13.23 -10.32,25.24 -13.65,35.98z"/>
  <path class="fil11" d="M7798.32 1611.08c-60.42,0 -109.4,-48.98 -109.4,-109.4 0,-60.42 48.98,-109.4 109.4,-109.4 60.42,0 109.4,48.98 109.4,109.4 0,60.42 -48.98,109.4 -109.4,109.4z"/>
  <path class="fil12" d="M7004.34 1487.97c-4.13,-18.2 -9.95,-37.2 -17.36,-57.04l14.87 -6.19c7.41,19 13.66,38.42 18.58,58.26l-16.09 4.97zm6.19 148.86c-3.33,-4.18 -7.46,-7.04 -12.43,-8.73 19.05,-14.87 37.25,-36.36 54.61,-64.46 4.92,3.29 9.47,6.62 13.65,9.9 1.64,1.64 2.43,2.91 2.43,3.7 0,1.7 -1.21,2.49 -3.7,2.49 -1.64,0 -3.71,1.69 -6.19,4.98 -0.85,0.84 -1.64,1.64 -2.49,2.48 -16.51,21.49 -31.86,38.05 -45.88,49.64zm169.92 -9.95c-18.21,-22.33 -33.5,-40.11 -45.88,-53.34l12.38 -9.9c16.51,18.15 32.23,36.36 47.15,54.56l-13.65 8.68zm-71.97 -81.86l0 83.08c3.33,19.84 -10.74,29.37 -42.12,28.57 -1.69,-7.46 -4.98,-13.23 -9.95,-17.41 28.1,3.34 40.11,-1.21 35.98,-13.6l0 -80.64 -29.79 0c-13.23,0 -22.7,0.42 -28.52,1.27 0.85,-6.62 1.27,-16.14 1.27,-28.58l0 -26.03c0,-14.03 -0.42,-23.55 -1.27,-28.52 4.13,0 9.95,0.42 17.36,1.27 4.97,0 8.67,0 11.16,0l73.19 0c2.48,0 7.46,0 14.86,0 6.62,-0.85 11.17,-1.27 13.66,-1.27 0,2.48 -0.43,7.46 -1.22,14.87 -0.85,7.46 -0.85,12.01 0,13.65l0 26.03c0,2.49 0,6.62 0,12.44 0.79,8.25 1.22,13.65 1.22,16.14 -5.77,-0.85 -15.3,-1.27 -28.52,-1.27l-27.31 0zm2.49 -131.45c-17.36,-14.92 -31.38,-26.46 -42.18,-34.76l11.17 -11.12c12.43,8.26 26.88,19.85 43.44,34.72l-12.43 11.16zm-93.03 0c3.33,0 9.95,0.43 19.84,1.22 8.31,0 13.66,0 16.14,0l100.49 0c16.51,0.85 28.89,0.42 37.2,-1.22l0 16.09c-11.59,-0.79 -23.97,-1.64 -37.2,-2.43l-100.49 0c-8.25,0.79 -20.26,1.64 -35.98,2.43l0 -16.09zm-91.76 100.44c-4.97,-0.8 -10.32,-1.64 -16.14,-2.49 9.95,-28.1 16.14,-52.49 18.63,-73.18 4.13,0.84 9.52,1.69 16.14,2.48 1.64,0.85 2.86,2.07 3.7,3.76 0,0.8 -0.84,1.64 -2.48,2.49 -1.64,2.43 -2.91,6.19 -3.71,11.11 -4.13,18.2 -9.52,36.83 -16.14,55.83zm29.79 142.66c0.8,-11.59 1.22,-29.37 1.22,-53.34l0 -186.05c0,-27.31 -0.42,-44.24 -1.22,-50.86 10.75,2.49 18.58,4.13 23.55,4.98 3.28,1.64 3.71,4.13 1.22,7.41 -5.77,4.18 -8.26,9.52 -7.41,16.14l0 208.38c0,4.13 0,13.23 0,27.25 0.79,14.08 1.22,22.76 1.22,26.09l-18.58 0zm95.47 -179.86l0 54.56 95.51 0 0 -54.56 -95.51 0zm335.11 -66.99c-1.64,0 -4.55,0.42 -8.68,1.27 -7.41,0 -13.65,0 -18.58,0l0 -14.87c3.28,0 9.11,0.37 17.36,1.21 4.97,0 8.26,0 9.9,0l114.14 0c11.53,0.85 20.63,0.43 27.25,-1.21l0 14.87c-3.28,0 -9.1,0 -17.36,0 -5.77,-0.85 -9.1,-1.27 -9.89,-1.27l-17.41 0 0 89.32 22.33 0c1.69,0 5.82,0 12.43,0 6.62,-0.85 11.54,-1.27 14.87,-1.27l0 14.92c-6.61,-0.85 -15.71,-1.27 -27.3,-1.27l-22.33 0 0 115.36c4.18,21.48 -11.54,31.86 -47.1,31.01 -0.84,-7.46 -2.91,-14.45 -6.19,-21.06 28.1,5.77 40.91,2.06 38.42,-11.17l0 -111.65c-31.43,52.92 -68.21,90.96 -110.39,114.09 -2.48,-0.8 -7.03,-3.28 -13.65,-7.41 -1.64,-1.64 -2.86,-2.91 -3.7,-3.76 44.66,-18.15 81.86,-53.29 111.6,-105.41l-61.97 0c-13.23,0.85 -24.39,2.91 -33.49,6.19 -0.85,-2.43 -2.91,-6.19 -6.19,-11.11 -1.7,-2.49 -2.49,-4.55 -2.49,-6.24 12.38,-2.49 24.39,-26.46 35.93,-71.92 1.69,0.85 4.97,2.07 9.95,3.71 3.28,0.84 5.77,1.27 7.46,1.27 1.64,0.79 2.86,2.06 3.7,3.7 0,1.64 -0.84,2.49 -2.48,2.49 -4.13,2.48 -7.04,6.61 -8.68,12.38 -6.62,19.05 -13.23,34.77 -19.85,47.15l94.25 0 0 -89.32 -81.86 0zm-68.21 29.79c-14.03,-13.23 -31.01,-28.52 -50.86,-45.88l11.17 -11.17c19.05,16.51 36.41,31.81 52.12,45.88l-12.43 11.17zm-6.19 161.23c12.38,-8.25 26.45,-19.05 42.17,-32.27 1.64,5.82 4.55,10.37 8.68,13.65 -28.95,19.84 -49.21,34.71 -60.75,44.66 -4.18,-5.77 -8.73,-11.17 -13.65,-16.14 4.92,-1.64 7.41,-7.83 7.41,-18.57l0 -109.17 -19.85 0c-11.53,0 -20.21,0.42 -26.03,1.27l0 -14.92c2.48,0 6.61,0.42 12.43,1.27 5.77,0.79 10.32,0.79 13.6,0l8.68 0c9.1,0 18.63,-0.85 28.52,-2.49 -1.64,5.77 -2.06,15.29 -1.21,28.52l0 104.19z"/>
  <path class="fil13" d="M9998.32 4911.08c-60.42,0 -109.4,-48.98 -109.4,-109.4 0,-60.42 48.98,-109.4 109.4,-109.4 60.42,0 109.4,48.98 109.4,109.4 0,60.42 -48.98,109.4 -109.4,109.4z"/>
  <path class="fil14" d="M9773.88 4619.53c5.77,5.77 10.75,9.89 14.87,12.38 1.64,1.64 2.07,2.91 1.22,3.76 -0.79,0.79 -2.06,1.21 -3.7,1.21 -1.64,0 -3.71,0.43 -6.2,1.22 -3.33,0 -5.82,0 -7.46,0 -19.84,4.98 -47.15,8.68 -81.86,11.17 -34.71,3.33 -69.85,4.97 -105.41,4.97 -0.85,-4.13 -3.28,-9.1 -7.46,-14.87 98.43,0.8 163.72,-5.82 196,-19.84zm-148.85 152.56c-14.08,0.79 -28.95,1.64 -44.66,2.48l0 -17.41c6.61,0.85 14.5,1.7 23.6,2.49 9.89,0 16.93,0 21.06,0l26.03 0c4.13,-12.38 7.47,-24.76 9.95,-37.2 9.1,2.49 15.3,4.13 18.58,4.98 1.69,0.84 2.48,2.06 2.48,3.7 0,1.64 -0.79,2.49 -2.48,2.49 -3.28,1.64 -5.35,4.12 -6.2,7.46 -0.84,4.13 -2.48,9.47 -4.97,16.08 -0.79,1.7 -1.22,2.49 -1.22,2.49l78.11 0c17.41,0 32.7,-0.79 45.93,-2.49l0 17.41c-14.08,-0.84 -29.37,-1.69 -45.93,-2.48l-83.08 0c-5.77,11.53 -10.32,20.21 -13.65,26.03l86.83 0c9.9,0.8 21.91,0.43 35.99,-1.27 -19.85,26.46 -38.9,47.15 -57.05,62.02 31.38,12.44 64.45,19.84 99.22,22.33 -1.69,0.85 -3.33,2.49 -4.97,4.98 -2.49,3.28 -4.13,7.03 -4.98,11.16 -35.56,-4.97 -69.85,-14.5 -102.92,-28.52 -26.46,13.23 -55.4,23.55 -86.84,31.01 -2.48,-6.62 -6.61,-12.01 -12.38,-16.14 30.59,-3.28 58.26,-11.17 83.08,-23.55 -13.23,-8.31 -28.1,-24.39 -44.66,-48.37 -23.13,28.95 -49.58,50.86 -79.38,65.73 -4.12,-2.49 -9.47,-5.82 -16.08,-9.95 43.81,-18.15 77.68,-50.01 101.65,-95.46l-21.06 0zm-48.37 -42.18c0,1.64 0,4.13 0,7.41 0,4.97 0.43,8.68 1.22,11.17l-17.36 0c0.85,-6.62 1.27,-12.81 1.27,-18.58l0 -7.46c0,-9.1 -0.42,-16.51 -1.27,-22.33 9.95,1.69 17.36,2.06 22.33,1.27l146.37 0c17.36,-19.84 30.59,-38.89 39.69,-57.04 5.77,2.43 11.16,4.92 16.09,7.4 1.69,2.49 2.48,4.13 2.48,4.98 0,1.64 -1.21,2.49 -3.7,2.49 -2.49,0 -5.4,2.48 -8.68,7.4 -1.64,2.49 -3.7,4.98 -6.19,7.47 -9.95,13.22 -17.36,22.33 -22.33,27.3l40.9 0c4.98,0.79 12.44,0.42 22.33,-1.27 -1.64,5.82 -2.06,13.23 -1.21,22.33l0 7.46c-0.85,5.77 -0.43,11.96 1.21,18.58l-17.35 0c-0.85,-2.49 -0.85,-6.2 0,-11.17 0.84,-3.28 1.27,-5.77 1.27,-7.41l0 -14.87 -217.07 0 0 14.87zm28.53 -74.4c14.07,14.02 25.24,25.61 33.49,34.71l-12.43 9.9c-10.75,-12.38 -21.49,-23.97 -32.23,-34.71l11.17 -9.9zm65.72 -2.49c12.43,12.39 23.97,24.77 34.71,37.2l-12.38 11.17c-9.9,-12.44 -21.49,-25.24 -34.71,-38.47l12.38 -9.9zm-13.65 158.75c13.22,17.36 26.88,30.59 40.95,39.69 14.87,-10.74 28.52,-23.97 40.91,-39.69l-81.86 0z"/>
  <path class="fil15" d="M308.32 2091.08c-60.42,0 -109.4,-48.98 -109.4,-109.4 0,-60.42 48.98,-109.4 109.4,-109.4 60.42,0 109.4,48.98 109.4,109.4 0,60.42 -48.98,109.4 -109.4,109.4z"/>
  <path class="fil16" d="M591.03 2238.26l-14.87 6.25c-8.25,-19.85 -16.93,-37.26 -26.03,-52.13l13.6 -6.19c8.3,13.23 17.41,30.59 27.3,52.07zm0 156.32c6.62,-4.18 9.53,-14.92 8.68,-32.28l0 -193.46c-0.79,-8.26 -1.64,-17.78 -2.49,-28.53 14.08,1.64 23.97,2.49 29.79,2.49l80.6 0c9.94,0 19.42,-0.85 28.52,-2.49 -1.64,5.77 -2.07,15.3 -1.22,28.53l0 71.91c-0.85,12.43 -0.42,21.91 1.22,28.52 -5.77,-0.79 -15.29,-1.22 -28.52,-1.22l-35.93 0c4.12,17.36 11.11,34.29 21.06,50.86 18.2,-11.59 34.29,-24.82 48.36,-39.69 4.98,5.77 9.1,10.32 12.39,13.65 0.84,1.64 0.84,2.86 0,3.71 0,0.84 -0.8,1.21 -2.44,1.21 -4.97,0 -9.95,2.07 -14.92,6.25 -5.77,4.92 -14.45,11.11 -26.04,18.57 -5.76,3.34 -9.89,5.77 -12.38,7.46 18.15,30.59 40.11,50.43 65.72,59.53 -9.94,4.13 -16.14,8.26 -18.62,12.39 -42.97,-31.44 -72.34,-76.04 -88.06,-133.94l-42.17 0 0 116.58c21.54,-10.74 40.11,-22.75 55.83,-35.98 0.84,4.97 3.33,10.37 7.46,16.14 -2.49,1.64 -4.98,3.28 -7.46,4.97 -31.44,15.72 -53.77,28.95 -67,39.69 -2.43,-4.13 -6.61,-9.1 -12.38,-14.87zm127.74 -239.4l-104.19 0 0 43.39 104.19 0 0 -43.39zm0 55.83l-104.19 0 0 43.39 104.19 0 0 -43.39zm-228.17 55.77c-5.83,-0.79 -11.17,-1.64 -16.14,-2.43 9.89,-28.95 15.71,-53.34 17.35,-73.18 0,0.79 0.85,1.21 2.49,1.21 7.46,2.49 12.38,3.34 14.87,2.49 2.49,0.85 2.49,2.91 0,6.19 -1.64,1.64 -2.86,5.82 -3.71,12.44 -0.84,3.28 -1.64,6.19 -2.48,8.68 -4.98,20.63 -9.1,35.56 -12.38,44.6zm50.85 94.3c-0.85,28.1 -0.43,45.88 1.22,53.34l-18.63 0c0.85,-11.59 1.27,-29.37 1.27,-53.34l0 -187.27c0,-5.82 -0.42,-15.72 -1.27,-29.79 0,-9.9 0,-16.51 0,-19.85 10.79,2.49 18.63,4.13 23.6,4.98 1.64,0.79 2.49,2.06 2.49,3.7 0,0.85 -0.85,1.64 -2.49,2.49 -4.97,4.13 -7.04,9.52 -6.19,16.14l0 209.6z"/>
  <path class="fil17" d="M1728.32 1561.08c-60.42,0 -109.4,-48.98 -109.4,-109.4 0,-60.42 48.98,-109.4 109.4,-109.4 60.42,0 109.4,48.98 109.4,109.4 0,60.42 -48.98,109.4 -109.4,109.4z"/>
  <path class="fil18" d="M2051.22 1339.89c-2.49,8.26 -6.62,18.2 -12.38,29.74 -5.83,-2.49 -11.17,-4.55 -16.14,-6.19 9.89,-14.87 18.62,-37.2 26.03,-66.94 4.97,0.79 9.95,1.64 14.87,2.43 1.69,0 2.91,0.43 3.76,1.27 0,0.8 -0.43,1.64 -1.27,2.49 -1.64,1.64 -2.86,4.13 -3.71,7.41 -2.48,3.33 -4.55,9.1 -6.19,17.36l40.91 0c16.56,0.84 28.94,0.42 37.2,-1.22l0 16.14c-11.54,-0.85 -23.97,-1.7 -37.2,-2.49l-9.9 0 0 49.58 23.55 0c12.38,0.85 24.39,0.43 35.98,-1.21l0 16.14c-4.97,0 -9.95,0 -14.92,0 -4.92,-0.85 -11.96,-1.27 -21.06,-1.27l-21.06 0c13.23,33.92 34.71,62.44 64.45,85.56 -4.92,2.49 -9.89,6.25 -14.87,11.17 -21.48,-20.64 -40.9,-45.88 -58.26,-75.62 -13.23,33.87 -33.5,61.17 -60.8,81.86 -5.77,-4.97 -10.74,-8.73 -14.87,-11.16 31.43,-17.41 52.92,-48 64.5,-91.81l-13.65 0c-15.71,0 -28.1,0.42 -37.2,1.27l0 -16.14c7.41,1.64 19.85,2.06 37.2,1.21l14.87 0 0 -49.58 -19.84 0zm-127.74 66.94c11.59,-28.1 19.42,-61.59 23.54,-100.44l-29.73 0c-3.34,19 -9.11,46.31 -17.36,81.87 3.28,2.48 9.1,7.46 17.36,14.87 2.48,1.64 4.55,2.91 6.19,3.7zm12.38 11.17c4.97,4.18 13.23,11.58 24.82,22.33 4.97,4.97 8.68,7.88 11.16,8.67l-11.16 12.44c-11.59,-10.74 -22.33,-20.69 -32.23,-29.79 -18.2,24.82 -35.14,42.6 -50.85,53.34 -4.98,-4.98 -9.95,-7.83 -14.87,-8.68 20.64,-13.23 38.42,-31.43 53.29,-54.56 -3.29,-2.48 -8.68,-6.61 -16.09,-12.43 -7.46,-6.62 -12.86,-11.96 -16.14,-16.09 5.77,-28.94 12.01,-57.89 18.63,-86.84l-3.76 0c-5.77,0 -14.87,0.43 -27.25,1.22l0 -14.87c3.28,0 9.05,0.43 17.35,1.27 4.92,0 8.26,0 9.9,0l6.19 0c3.33,-17.35 6.24,-38.47 8.68,-63.29 1.69,0.85 4.18,1.27 7.46,1.27 3.33,0.8 6.19,1.22 8.68,1.22 1.64,0.85 2.49,1.64 2.49,2.49 0,0.84 -0.43,1.64 -1.22,2.48 -1.7,3.29 -2.91,7.47 -3.76,12.39 -0.79,5.82 -2.49,16.98 -4.92,33.49 -0.85,4.13 -1.27,7.46 -1.27,9.95l19.84 0c8.26,0 16.14,-0.84 23.55,-2.49 -4.13,45.46 -13.6,87.63 -28.52,126.48zm78.16 -140.13l0 96.73c-0.85,51.28 -20.69,94.67 -59.53,130.23 -5.77,-5.77 -10.32,-9.52 -13.66,-11.16 34.72,-23.97 54.19,-61.6 58.32,-112.87 -10.74,7.46 -22.33,16.13 -34.77,26.03 -3.28,-3.28 -7.41,-7.83 -12.38,-13.6 14.87,-7.46 30.58,-17.36 47.15,-29.79l0 -27.25 -8.68 6.19c-9.1,-11.59 -17.78,-21.91 -26.09,-31.01l11.17 -8.68c8.3,9.1 16.14,17.78 23.6,26.04l0 -37.21c-0.85,-9.94 -1.7,-19.42 -2.49,-28.52 14.02,1.64 23.97,2.49 29.74,2.49l84.35 0c12.38,0 24.39,-0.85 35.98,-2.49l0 16.09c-4.97,0 -9.95,0 -14.92,0 -4.92,-0.79 -11.96,-1.22 -21.06,-1.22l-96.73 0zm33.49 -42.17l9.9 -12.38c11.59,7.4 25.66,16.93 42.17,28.52l-9.89 12.38c-14.08,-10.74 -28.15,-20.27 -42.18,-28.52zm371.04 37.2c-11.53,-17.36 -22.7,-31.43 -33.44,-42.18l14.87 -9.89c12.38,13.23 23.55,27.67 33.5,43.39l-14.93 8.68zm-63.23 35.98c0,-14.07 -0.42,-23.55 -1.22,-28.52 14.02,1.64 23.97,2.49 29.74,2.49l69.48 0c10.74,0 20.21,-0.85 28.52,-2.49 0,3.28 -0.42,9.1 -1.27,17.36 0,6.61 0,10.31 0,11.16l0 34.71c0,2.49 0,6.2 0,11.17 0.85,8.26 1.27,14.08 1.27,17.36 -5.82,-0.8 -15.29,-1.22 -28.52,-1.22l-81.86 0c1.64,63.66 -19.05,108.74 -62.02,135.2 -4.97,-4.97 -10.74,-8.73 -17.36,-11.16 24.82,-14.08 41.33,-30.22 49.59,-48.42 9.1,-18.15 13.65,-46.67 13.65,-85.57l0 -52.07zm-71.92 104.19c13.23,-25.66 21.91,-63.28 26.04,-112.87l-44.66 0c-1.64,7.41 -3.71,15.3 -6.19,23.55 -6.62,31.43 -11.59,53.76 -14.87,66.99 9.1,4.13 22.33,11.59 39.68,22.33zm-32.27 -125.3c5.82,-31.38 9.52,-55.78 11.16,-73.13 4.98,1.64 10.74,3.28 17.36,4.92 1.69,0.84 2.91,2.06 3.75,3.76 0,0.79 -0.84,1.64 -2.48,2.48 -4.13,1.64 -6.19,6.62 -6.19,14.87 -1.7,5.77 -2.91,13.65 -3.76,23.55 -1.64,10.74 -2.86,18.63 -3.7,23.55l21.06 0c11.58,0 23.17,-0.37 34.76,-1.22 1.64,0 2.86,-0.42 3.71,-1.22 -4.13,61.18 -14.08,106.63 -29.74,136.42 11.53,8.26 23.12,17.78 34.71,28.52l-12.43 13.66c-6.62,-6.62 -17.36,-16.14 -32.23,-28.52 -14.87,18.99 -37.62,38.41 -68.21,58.26 -4.13,-5.77 -9.53,-9.9 -16.14,-12.39 28.95,-14.07 52.49,-32.65 70.7,-55.82 -15.72,-9.1 -31.81,-18.21 -48.37,-27.31 9.1,-32.22 16.93,-64.87 23.55,-97.95l-11.11 0c-5.82,0 -14.93,0.43 -27.31,1.22l0 -14.87c3.28,0 9.1,0.42 17.36,1.22 4.97,0 8.25,0 9.95,0l13.6 0zm120.33 69.48l93.03 0 0 -62.02 -93.03 0 0 62.02z"/>
  <path class="fil19" d="M2798.32 1411.08c-60.42,0 -109.4,-48.98 -109.4,-109.4 0,-60.42 48.98,-109.4 109.4,-109.4 60.42,0 109.4,48.98 109.4,109.4 0,60.42 -48.98,109.4 -109.4,109.4z"/>
  <path class="fil20" d="M3043.35 1000.86l151.29 0c16.57,0.85 28.95,0.42 37.2,-1.22l0 16.14c-14.87,-1.69 -27.25,-2.48 -37.2,-2.48l-60.74 0 0 32.22 42.17 0c16.51,0.85 28.89,0.43 37.2,-1.21l0 16.08c-11.59,-0.79 -23.97,-1.64 -37.2,-2.48l-42.17 0 0 32.27 44.6 0c16.57,0.8 28.95,0.43 37.26,-1.27l0 16.14c-4.98,0 -10.37,0 -16.14,0 -4.13,-0.84 -11.17,-1.21 -21.12,-1.21l-44.6 0 0 31.01 70.69 0c16.51,0.79 28.89,0.37 37.2,-1.27l0 16.14c-4.97,0 -10.37,0 -16.14,0 -4.12,-0.85 -11.16,-1.27 -21.06,-1.27l-162.51 0c0,1.69 0,4.55 0,8.67 0.85,5.82 1.27,9.95 1.27,12.44l-17.35 0c0,-3.33 0,-9.95 0,-19.84 0.79,-6.62 1.22,-11.17 1.22,-13.66l0 -107.89c-10.75,12.38 -22.76,27.3 -35.99,44.66 -4.13,-3.34 -9.47,-6.62 -16.08,-9.95 29.73,-28.1 54.98,-64.51 75.61,-109.11 7.46,4.92 13.66,7.83 18.63,8.67 1.64,4.13 1.22,6.62 -1.27,7.41 -4.13,0 -6.61,1.27 -7.41,3.76 -2.49,4.13 -6.19,9.47 -11.16,16.09 -3.34,4.97 -5.4,8.67 -6.2,11.16zm-1.27 12.44l0 32.22 75.68 0 0 -32.22 -75.68 0zm0 76.88l75.68 0 0 -32.27 -75.68 0 0 32.27zm0 13.66l0 31.01 75.68 0 0 -31.01 -75.68 0zm195.96 121.55c-19,-25.67 -33.87,-44.24 -44.61,-55.83l13.6 -9.95c17.41,20.69 32.7,39.69 45.93,57.1l-14.92 8.68zm-157.48 1.21c-4.13,-17.35 -9.53,-34.29 -16.14,-50.85l14.87 -6.19c7.46,21.48 13.22,38.84 17.4,52.07l-16.13 4.97zm-64.51 -60.74c0.85,1.64 3.33,3.28 7.46,4.92 4.13,1.69 7.04,2.91 8.68,3.75 1.64,2.44 1.22,4.13 -1.27,4.92 -3.28,0.85 -5.35,2.49 -6.19,4.98 -6.62,11.59 -16.94,26.46 -31.01,44.66 -1.64,1.64 -3.28,4.13 -4.98,7.46 -1.64,-1.69 -4.49,-3.75 -8.67,-6.24 -1.64,-1.64 -3.28,-2.86 -4.92,-3.71 15.71,-15.71 29.31,-35.98 40.9,-60.74zm135.2 55.77c-6.61,-15.72 -14.07,-31.8 -22.33,-48.37l13.65 -6.19c9.11,18.21 16.94,33.92 23.55,47.15l-14.87 7.41zm-7.46 -226.96c-14.87,-11.59 -29.74,-21.91 -44.66,-31.01l8.68 -12.38c18.2,10.74 33.49,21.48 45.93,32.22l-9.95 11.17zm285.53 13.65l0 -40.9c-0.85,-3.34 -1.7,-11.59 -2.49,-24.82 14.02,2.49 21.91,3.7 23.55,3.7 3.33,1.64 3.33,4.13 0,7.47 -4.98,3.28 -7.04,7.03 -6.19,11.16l0 4.92 73.18 0c12.38,0 24.4,-0.79 35.93,-2.43l0 16.08c-7.41,-0.79 -19.42,-1.21 -35.93,-1.21l-73.18 0 0 26.03 96.73 0c9.1,0 22.33,-0.84 39.69,-2.48 -4.98,7.46 -12.02,18.99 -21.06,34.71 -3.34,4.97 -5.4,8.68 -6.25,11.16 -4.92,-1.64 -10.32,-3.28 -16.09,-4.92 5.77,-8.31 11.54,-16.98 17.36,-26.09l-200.92 0 0 69.48c0.84,59.54 -10.75,106.26 -34.72,140.13 -8.3,-3.28 -14.5,-4.92 -18.62,-4.92 24.81,-26.46 37.2,-71.55 37.2,-135.21l0 -54.55c0,-14.08 -0.43,-24.03 -1.22,-29.79 12.38,1.64 21.91,2.48 28.52,2.48l64.51 0zm109.11 58.32c-9.89,0 -18.57,0 -26.03,0l-70.7 3.7 0 24.82c-0.85,6.61 2.49,9.47 9.95,8.68l70.64 0c7.46,0.79 14.08,-6.62 19.85,-22.33 3.33,4.12 7.88,7.03 13.65,8.67 -9.1,19.85 -19.85,28.95 -32.23,27.26l-78.16 0c-14.02,0.84 -20.63,-4.92 -19.84,-17.36l0 -28.52 -33.44 1.27c-7.46,1.64 -15.72,2.48 -24.82,2.48l-1.27 -14.92c3.33,0.85 9.52,1.27 18.63,1.27 3.28,-0.84 5.76,-1.27 7.46,-1.27l33.44 -1.21 0 -4.98c0,-9.89 -0.37,-17.78 -1.22,-23.55 3.28,0.8 4.13,1.22 2.49,1.22 11.59,1.69 18.57,2.91 21.06,3.76 1.64,0.79 2.49,1.64 2.49,2.43 0,0.85 -0.85,1.69 -2.49,2.49 -4.97,3.33 -7.04,7.46 -6.19,12.43l0 4.93 69.48 -3.71c2.43,0 6.61,0 12.38,0 5.77,-0.79 10.32,-1.64 13.65,-2.49l1.22 14.93zm-39.69 101.65l-12.38 8.68c-11.59,-14.87 -23.6,-28.1 -35.98,-39.69l11.16 -8.68c13.23,11.59 25.62,24.82 37.2,39.69zm-63.23 64.51c-11.59,-0.8 -17.36,-7.84 -17.36,-21.07l0 -35.98c0,-8.25 -0.42,-16.93 -1.27,-26.03 8.31,1.64 15.3,2.48 21.12,2.48 1.64,2.49 1.64,4.13 0,4.92 -3.34,2.49 -4.98,4.98 -4.98,7.47l0 43.39c0.85,5.82 4.55,9.1 11.17,9.95l43.39 0c14.07,0.84 23.97,-10.75 29.79,-34.72 4.13,4.13 9.47,6.99 16.09,8.68 -9.9,28.1 -24.77,41.75 -44.61,40.91l-53.34 0zm151.29 -34.72l-14.87 8.68c-14.08,-20.69 -30.16,-40.11 -48.37,-58.31l12.38 -9.9c17.36,19 34.35,38.84 50.86,59.53zm-214.53 17.36c-4.18,-3.28 -9.1,-5.35 -14.92,-6.19 10.74,-16.57 19.84,-39.69 27.31,-69.48 3.28,2.48 7.46,4.55 12.38,6.24 0.85,0 1.69,0 2.49,0 1.64,0.8 2.48,1.64 2.48,2.44 0,1.69 -0.84,2.48 -2.48,2.48 -2.49,1.7 -4.13,3.76 -4.98,6.19 -7.41,24.03 -14.87,43.45 -22.28,58.32z"/>
  <path class="fil21" d="M1498.32 8511.08c-60.42,0 -109.4,-48.98 -109.4,-109.4 0,-60.42 48.98,-109.4 109.4,-109.4 60.42,0 109.4,48.98 109.4,109.4 0,60.42 -48.98,109.4 -109.4,109.4z"/>
  <path class="fil22" d="M779.87 8354.5c0,-0.79 0,-2.49 0,-4.97 4.12,-25.62 7.03,-47.1 8.67,-64.46l-53.34 0c-15.71,0 -27.67,0.43 -35.98,1.22l0 -17.36c6.61,1.64 18.63,2.07 35.98,1.22l138.91 0c12.38,0.85 24.39,0.42 35.98,-1.22l0 17.36c-4.97,0 -9.95,0 -14.87,0 -4.97,-0.79 -12.01,-1.22 -21.11,-1.22l-69.43 0c-2.48,30.59 -5.39,53.71 -8.68,69.43l97.95 0c16.57,0 31.44,-0.79 44.67,-2.49l0 18.63c-17.36,-0.85 -32.28,-1.64 -44.67,-2.49l-65.72 0 0 121.55c-0.85,5.77 2.06,8.68 8.68,8.68l54.56 0c13.23,0.85 21.48,-14.45 24.81,-45.88 5.77,3.28 11.59,5.35 17.36,6.19 -6.61,38.84 -19.84,57.05 -39.69,54.56l-63.23 0c-13.23,-0.79 -19.85,-7.04 -19.85,-18.57l0 -126.53 -17.35 0c-10.74,59.53 -46.73,107.48 -107.9,143.88 -1.69,-5.82 -7.04,-10.32 -16.14,-13.65 58.69,-30.59 94.25,-73.98 106.68,-130.23l-58.31 0c-14.87,0.85 -29.8,1.64 -44.66,2.49l0 -18.63c19.84,1.7 34.71,2.49 44.66,2.49l62.02 0zm330.13 71.97c7.46,-3.34 11.17,-9.95 11.17,-19.85l0 -96.78c0,-14.87 -0.43,-27.25 -1.22,-37.2 22.28,-3.28 40.48,-9.47 54.56,-18.58 4.97,4.13 9.1,8.26 12.38,12.39 0.85,1.64 1.27,3.33 1.27,4.97 -0.85,0.85 -2.06,0.85 -3.76,0 -3.28,0 -7.41,0.42 -12.38,1.22 -5.77,3.33 -17.36,6.61 -34.71,9.95l0 132.71c2.48,-0.85 7.03,-2.06 13.65,-3.76 6.61,-0.79 11.53,-2.06 14.87,-3.7l0 -76.89c0,-3.33 -0.43,-9.1 -1.27,-17.36 -0.8,-8.25 -0.8,-14.49 0,-18.62 9.1,1.64 16.56,3.33 22.33,4.97 3.33,1.64 3.33,4.13 0,7.46 -4.13,2.44 -5.77,7.84 -4.98,16.09l0 71.97c1.7,47.94 -17.72,89.69 -58.26,125.25 -4.12,-4.13 -9.52,-7.46 -16.14,-9.95 33.08,-24.76 52.13,-54.13 57.05,-88.05 -15.72,4.97 -29.74,10.74 -42.18,17.36 -1.64,-0.8 -3.7,-2.86 -6.19,-6.2 -3.28,-3.28 -5.34,-5.76 -6.19,-7.4zm98 -136.48c0,-1.64 -0.42,-4.49 -1.27,-8.67 0,-4.93 0,-9.05 0,-12.39 9.1,1.64 15.72,2.07 19.85,1.22l27.3 0c4.98,0.85 11.59,0.42 19.85,-1.22 -1.65,5.77 -2.07,12.81 -1.27,21.06l0 153.83c0.84,14.03 -10.32,21.49 -33.45,22.33 -1.69,-5.82 -5.82,-12.01 -12.43,-18.62 21.48,3.33 31.43,0 29.79,-9.9l0 -153.83 -33.5 0 0 202.2c0,2.43 0,7.41 0,14.87 0.85,10.74 1.22,18.2 1.22,22.33l-18.57 0c0.79,-11.59 1.64,-23.97 2.48,-37.2l0 -196.01zm-127.74 -12.38l-37.25 0 0 45.88 37.25 0 0 -45.88zm0 104.19l0 -45.87 -37.25 0 0 45.87 37.25 0zm0 55.83l0 -43.44 -37.25 0 0 57.04c4.18,-0.79 11.16,-3.28 21.11,-7.41 7.46,-2.48 12.81,-4.55 16.14,-6.19zm14.87 50.8c0,11.59 0.8,24.03 2.49,37.26l-18.63 0c-0.79,-4.13 -0.79,-10.38 0,-18.63 0.85,-7.46 1.27,-13.65 1.27,-18.63l0 -35.93c-18.2,5.77 -40.96,14.45 -68.21,26.04 -1.69,-3.34 -4.55,-7.04 -8.73,-11.17 -0.79,-1.64 -1.22,-2.91 -1.22,-3.7 2.49,-0.85 5.77,-1.7 9.95,-2.49 6.62,-1.64 11.96,-3.7 16.09,-6.19l0 -177.38c-1.64,0 -4.13,0.42 -7.41,1.27 -5.82,0.8 -11.16,0.8 -16.14,0l0 -14.92c3.28,0 9.1,0.42 17.36,1.27 4.97,0 8.25,0 9.95,0l52.07 0c11.58,0.79 20.69,0.42 27.3,-1.27l0 14.92c-2.49,0 -6.24,0 -11.16,0 -2.49,-0.85 -4.18,-1.27 -4.98,-1.27l0 153.78c0.8,0 2.91,-0.8 6.19,-2.49 2.49,-0.79 4.55,-1.64 6.19,-2.43 -1.64,6.61 -1.64,11.96 0,16.08 -4.12,1.7 -8.25,3.34 -12.38,4.98l0 40.9z"/>
  <path class="fil23" d="M698.32 3283.35c-60.42,0 -109.4,-48.98 -109.4,-109.4 0,-60.42 48.98,-109.4 109.4,-109.4 60.42,0 109.4,48.98 109.4,109.4 0,60.42 -48.98,109.4 -109.4,109.4z"/>
  <path class="fil24" d="M950.13 3311.74c13.23,21.54 24.4,39.69 33.5,54.61l-14.87 7.41c-9.1,-18.21 -17.78,-33.87 -26.03,-47.1 -18.21,33.08 -36.83,60.75 -55.83,83.08 -1.64,-0.85 -4.13,-2.06 -7.46,-3.7 -4.13,-2.49 -6.99,-4.55 -8.68,-6.25 22.33,-20.63 42.6,-49.16 60.8,-85.56 -14.07,-19.85 -29.79,-39.27 -47.15,-58.26l11.17 -9.95c15.71,16.56 30.16,33.49 43.39,50.85 9.95,-30.59 16.56,-58.26 19.84,-83.08l-60.75 0c-6.61,0.79 -13.22,1.22 -19.84,1.22 -3.33,0 -5.4,0 -6.19,0l0 -16.09c6.61,1.64 15.29,2.44 26.03,2.44l47.15 0c12.39,0 23.13,-0.8 32.23,-2.44 -4.97,38.84 -14.08,76.47 -27.31,112.82zm14.93 -35.93c28.1,-23.97 47.94,-61.6 59.53,-112.87 1.64,0.79 4.5,1.64 8.68,2.49 3.28,1.64 6.19,2.48 8.68,2.48 2.48,1.64 3.7,2.86 3.7,3.71 0,0.84 -0.85,2.06 -2.49,3.7 -4.13,4.97 -7.83,12.44 -11.16,22.33 -4.98,12.38 -9.53,22.76 -13.66,31.01l96.74 0c4.18,0 10.79,0 19.84,0 7.46,-0.85 13.23,-1.22 17.41,-1.22l0 14.87c-4.97,0 -10.37,0 -16.14,0 -4.13,-0.84 -11.17,-1.27 -21.11,-1.27l-27.26 0 0 44.66 14.87 0c4.13,0.85 10.32,0.85 18.63,0 8.26,-0.79 14.45,-1.21 18.57,-1.21l0 16.08c-8.25,-1.64 -20.63,-2.43 -37.2,-2.43l-14.87 0 0 44.61 17.36 0c16.51,0.85 28.95,0.42 37.2,-1.22l0 16.14c-14.87,-1.69 -27.3,-2.49 -37.2,-2.49l-17.36 0 0 52.07 35.99 0c16.51,0.85 28.52,0.43 35.93,-1.21l0 13.6c-11.59,-0.8 -23.55,-1.22 -35.93,-1.22l-104.2 0c-0.84,14.87 -0.42,26.04 1.22,33.5l-18.57 0c0,-4.98 0,-10.32 0,-16.14 0.79,-4.98 1.21,-11.96 1.21,-21.06l0 -161.24c-5.76,9.89 -13.65,20.64 -23.54,32.22 -4.13,-2.48 -9.1,-5.76 -14.87,-9.89zm152.5 -71.97l-12.38 9.95c-14.08,-14.07 -28.1,-28.1 -42.17,-42.17l11.16 -9.95c19.85,18.2 34.29,32.28 43.39,42.17zm-45.88 37.2l-52.07 0 0 44.66 52.07 0 0 -44.66zm-52.07 101.71l52.07 0 0 -44.61 -52.07 0 0 44.61zm0 12.43l0 52.07 52.07 0 0 -52.07 -52.07 0zm347.5 -23.6c-12.39,-17.35 -25.19,-33.07 -38.42,-47.09l11.16 -9.95c13.23,12.43 26.46,28.1 39.69,47.15l-12.43 9.89zm-94.25 -96.73c-14.07,-13.23 -30.16,-27.25 -48.36,-42.17 -1.64,-0.8 -2.49,-1.64 -2.49,-2.49l11.16 -12.38c3.29,3.33 6.62,6.19 9.9,8.68 14.08,11.58 28.15,23.54 42.17,35.98l-12.38 12.38zm1.22 160.02c1.69,0.8 6.61,2.86 14.92,6.19 4.13,1.64 8.68,2.91 13.6,3.71 26.46,9.95 54.61,15.71 84.35,17.35 23.18,1.7 60.38,-0.37 111.65,-6.19 -4.18,4.13 -5.82,10.32 -4.97,18.63 -21.48,1.64 -42.6,2.49 -63.29,2.49 -19.84,0.79 -37.99,1.21 -54.55,1.21 -22.34,-2.48 -49.16,-9.1 -80.6,-19.84 -2.48,0 -4.55,-0.42 -6.19,-1.22 -10.79,-4.97 -18.2,-7.46 -22.33,-7.46 -16.56,2.49 -31.01,10.32 -43.44,23.55 -3.28,-7.41 -6.62,-12.38 -9.9,-14.87 20.69,-13.23 35.56,-21.06 44.66,-23.55l0 -107.9 -17.35 0c-12.44,0 -22.76,0.38 -31.01,1.22l0 -16.14c2.43,0.85 6.19,1.27 11.16,1.27 5.77,0.8 11.96,1.22 18.58,1.22l11.16 0c4.98,0 13.23,-0.79 24.82,-2.49 -1.64,13.23 -2.06,22.76 -1.27,28.52l0 94.3zm166.21 -22.33c-0.85,19 -19.84,27.68 -57.04,26.04 -2.49,-6.62 -6.19,-13.23 -11.17,-19.85 34.71,5.77 52.49,1.64 53.34,-12.38l0 -121.55 -85.57 0c-9.1,0.79 -21.53,1.64 -37.25,2.49l0 -16.14c3.34,0 9.53,0.42 18.63,1.21 9.1,0 15.29,0 18.62,0l85.57 0 0 -37.2c0,-3.28 -0.42,-9.1 -1.27,-17.35 -0.79,-7.46 -0.79,-13.23 0,-17.36 10.74,2.49 18.63,4.13 23.6,4.98 1.64,0.79 2.44,2.06 2.44,3.7 0,0.85 -0.8,1.64 -2.44,2.49 -5.82,4.97 -8.31,10.32 -7.46,16.14l0 44.6 16.14 0c4.13,0 10.32,0 18.57,0 7.47,-0.79 13.23,-1.21 17.36,-1.21l0 16.14c-10.74,-0.85 -22.7,-1.7 -35.93,-2.49l-16.14 0 0 127.74z"/>
  <path class="fil25" d="M618.32 581.08c-60.42,0 -109.4,-48.98 -109.4,-109.4 0,-60.42 48.98,-109.4 109.4,-109.4 60.42,0 109.4,48.98 109.4,109.4 0,60.42 -48.98,109.4 -109.4,109.4z"/>
  <path class="fil26" d="M893 386.25l-17.36 0c-7.4,0 -13.22,0.42 -17.35,1.22 -4.13,0 -7.83,0 -11.17,0 0.85,-9.11 1.64,-16.51 2.49,-22.34l0 -35.93c0,-1.69 -0.85,-7.03 -2.49,-16.14 0,-3.33 0,-6.19 0,-8.67 7.46,1.64 16.99,2.06 28.52,1.21l135.21 0c1.64,0 5.39,0 11.16,0 6.62,-0.79 11.96,-1.21 16.14,-1.21 -1.69,8.25 -2.06,15.29 -1.27,21.06l0 39.68c-0.79,6.62 -0.42,14.08 1.27,22.34 -8.31,-0.8 -16.56,-1.22 -24.82,-1.22l-26.03 0 0 23.55 33.44 0c7.46,0 17.78,-0.85 31.01,-2.49l0 17.36c-13.23,-0.8 -23.55,-1.64 -31.01,-2.49l-33.44 0 0 23.6 59.53 0c10.74,0 21.91,-0.85 33.44,-2.49l0 17.36c-8.25,-0.85 -19.42,-1.22 -33.44,-1.22l-60.8 0c22.33,23.97 56.67,40.06 102.97,48.37 -7.46,6.61 -12.01,11.96 -13.65,16.08 -24.82,-6.61 -46.72,-15.71 -65.72,-27.25 -12.44,8.26 -22.75,14.03 -31.01,17.36 22.28,13.23 44.24,26.46 65.72,39.69l-13.65 12.38c-21.48,-16.51 -48.37,-33.87 -80.59,-52.07l0 42.17c0.79,13.23 -12.01,20.64 -38.47,22.34 -0.85,-3.34 -3.34,-9.53 -7.46,-18.63 22.33,2.49 32.7,-0.42 31.01,-8.68l0 -22.33c-14.03,6.61 -35.93,14.07 -65.73,22.33 -11.59,4.97 -20.26,8.68 -26.03,11.17 -2.49,-6.62 -6.62,-11.59 -12.38,-14.87 37.2,-5.83 71.91,-16.99 104.14,-33.5l0 -22.33c0,-9.1 -0.43,-17.36 -1.22,-24.82 7.41,0.85 14.45,1.64 21.06,2.49 0.85,0.84 1.27,1.64 1.27,2.48 0,0.85 -0.42,1.22 -1.27,1.22 -3.28,1.7 -4.92,3.34 -4.92,4.98l0 21.11c4.92,1.64 9.89,4.13 14.87,7.41 10.74,-4.98 21.06,-11.17 31.01,-18.58 -11.59,-9.1 -20.69,-18.62 -27.31,-28.52l-55.82 0c-27.26,25.61 -60.75,45.03 -100.44,58.26 -4.13,-4.12 -8.26,-9.52 -12.38,-16.14 37.2,-8.25 67.78,-22.27 91.75,-42.12l-63.23 0c-7.46,0 -13.65,0.37 -18.63,1.22 -4.13,0 -8.25,0 -12.38,0l0 -17.36c8.25,2.49 18.57,3.28 31.01,2.49l64.45 0 0 -23.6 -38.42 0c-4.12,0 -13.65,0.85 -28.52,2.49l0 -17.36c7.41,2.49 16.94,3.33 28.52,2.49l38.42 0 0 -23.55zm127.74 -68.21l-156.26 0 0 21.06 156.26 0 0 -21.06zm0 54.56l0 -21.06 -156.26 0 0 21.06 156.26 0zm-49.58 37.2l0 -23.55 -62.02 0 0 23.55 62.02 0zm-62.02 12.38l0 23.6 62.02 0 0 -23.6 -62.02 0zm-23.55 65.77c10.75,7.41 20.64,15.3 29.74,23.55l-11.16 9.9c-9.1,-9.05 -18.58,-16.94 -28.53,-23.55l9.95 -9.9zm426.87 21.07l-12.38 11.16c-15.72,-14.08 -30.59,-26.88 -44.66,-38.47l9.94 -12.38c19.85,15.71 35.51,28.94 47.1,39.69zm-71.91 60.8c-14.08,-0.85 -21.12,-7.04 -21.12,-18.63l0 -34.71c0,-9.11 -0.37,-17.78 -1.21,-26.04 4.97,0.8 11.96,1.64 21.06,2.44 0.84,0.84 1.27,1.69 1.27,2.48 0,0.85 -0.43,1.27 -1.27,1.27 -2.49,3.28 -3.71,6.19 -3.71,8.68l0 42.18c0,4.12 3.34,6.61 9.95,7.4l64.45 0c16.57,0.85 26.89,-8.25 31.01,-27.25 4.13,4.13 9.53,7.41 16.14,9.9 -8.25,22.33 -23.55,33.07 -45.88,32.28l-70.69 0zm181.08 -28.58l-13.65 9.95c-16.57,-16.56 -33.92,-31.86 -52.13,-45.88l11.17 -12.43c17.41,14.07 35.56,30.21 54.61,48.36zm-272.89 19.9c-4.13,-4.98 -8.26,-8.31 -12.39,-9.95 14.87,-11.59 29.8,-29.79 44.67,-54.56 5.76,4.13 10.31,7.41 13.65,9.9 1.64,1.64 2.06,3.33 1.22,4.97 0,0.85 -0.85,1.22 -2.49,1.22 -3.28,0 -5.35,1.27 -6.19,3.76 -14.08,20.63 -26.88,35.56 -38.47,44.66zm186.05 -153.83c-19.84,-25.61 -33.49,-49.16 -40.9,-70.7 -2.49,0 -7.04,0.43 -13.66,1.27l0 -16.14c6.62,1.64 16.09,2.07 28.53,1.22l52.07 0c15.71,0.85 28.1,0.42 37.2,-1.22 -11.54,32.23 -25.61,60.38 -42.18,84.35 21.54,19.85 44.24,33.08 68.26,39.69 -7.46,4.97 -12.01,10.74 -13.65,17.36 -27.3,-14.87 -48.79,-29.8 -64.5,-44.67 -18.21,17.36 -37.63,32.28 -58.32,44.67 -4.12,-6.62 -9.05,-11.59 -14.87,-14.87 23.97,-9.95 44.66,-23.6 62.02,-40.96zm-26.03 -70.7c9.89,22.33 22.33,41.75 37.2,58.32 11.59,-18.21 21.06,-37.63 28.52,-58.32l-65.72 0zm-120.34 53.34c14.08,5.77 25.67,10.74 34.77,14.87 1.64,0.85 2.86,1.27 3.7,1.27 9.11,-13.23 16.51,-32.28 22.34,-57.04l-43.4 0c-5.82,14.87 -11.59,28.52 -17.41,40.9zm-21.06 -40.9c-1.64,0 -4.55,0.37 -8.68,1.22 -7.46,0 -13.65,0 -18.62,0l0 -14.87c3.33,0 9.1,0.42 17.35,1.21 4.98,0 8.31,0 9.95,0l26.04 0c4.13,-12.38 8.25,-27.25 12.43,-44.61 5.77,1.64 11.96,3.28 18.58,4.93 1.64,0.84 2.48,2.06 2.48,3.75 0,1.64 -0.84,2.44 -2.48,2.44 -3.28,0.84 -5.35,2.48 -6.19,4.97 -2.49,10.74 -5.4,20.27 -8.68,28.52l32.22 0c10.75,0.85 20.27,0.43 28.53,-1.21 -9.11,33.07 -19,58.68 -29.74,76.88 10.74,5.77 21.06,12.02 31.01,18.63l-8.68 14.87c-9.95,-7.46 -20.27,-14.08 -31.01,-19.84 -21.54,18.99 -48,35.13 -79.38,48.36 -3.33,-5.82 -7.88,-11.16 -13.65,-16.14 33.07,-9.1 59.11,-22.33 78.11,-39.69 -14.03,-7.4 -30.17,-14.44 -48.37,-21.06 6.61,-12.43 13.65,-28.52 21.11,-48.36l-22.33 0z"/>
  <path class="fil27" d="M8998.32 3111.08c-60.42,0 -109.4,-48.98 -109.4,-109.4 0,-60.42 48.98,-109.4 109.4,-109.4 60.42,0 109.4,48.98 109.4,109.4 0,60.42 -48.98,109.4 -109.4,109.4z"/>
  <path class="fil28" d="M8534.48 3310.2l0 8.68c18.21,-33.92 27.73,-70.28 28.53,-109.12 9.1,1.64 16.13,2.44 21.11,2.44 2.49,2.49 2.49,4.97 0,7.46 -2.49,1.64 -4.55,6.19 -6.25,13.65 -2.43,11.59 -4.92,23.55 -7.4,35.99l70.69 0c5.77,0.79 16.09,0.37 31.01,-1.27 -3.33,7.46 -7.88,17.78 -13.65,31 -5.77,14.08 -9.95,24.4 -12.38,31.01 -7.46,-0.84 -13.66,-1.64 -18.63,-2.48 8.26,-14.87 15.72,-29.74 22.33,-44.67l-83.08 0c-10.79,28.95 -21.96,52.55 -33.49,70.7 -3.34,-2.49 -8.68,-4.92 -16.14,-7.41 -0.85,0 -1.22,-0.42 -1.22,-1.27 4.92,-4.12 9.89,-10.32 14.87,-18.57 -10.74,-0.85 -19.05,-1.27 -24.82,-1.27l-11.16 0 0 105.41c0,4.97 0,12.01 0,21.11 0.84,8.26 1.64,14.03 2.48,17.36l-18.62 0c0,-2.49 0,-7.46 0,-14.87 0.84,-9.95 1.27,-17.78 1.27,-23.6l0 -105.41 -39.69 0 0 16.14c-0.85,48.79 -10.32,91.33 -28.52,127.74 -7.46,-0.85 -13.66,-1.64 -18.63,-2.49 21.54,-34.71 32.28,-76.46 32.28,-125.25l0 -66.99c0,-9.9 -0.85,-20.27 -2.49,-31.01 31.43,0 63.66,-6.19 96.73,-18.58 4.98,5.77 8.68,9.9 11.17,12.39 0.79,2.48 0.79,4.12 0,4.97 0,0.85 -0.85,0.85 -2.49,0 -5.77,0 -13.65,1.22 -23.55,3.7 -28.94,5.83 -50.43,9.53 -64.5,11.17l0 54.56 65.72 0c5.77,0.84 15.29,0.42 28.52,-1.22zm-40.9 173.62c51.22,-26.46 78.53,-67.36 81.86,-122.77l0 -14.87c0,-16.56 -0.42,-28.52 -1.27,-35.98 10.74,2.49 18.63,4.13 23.55,4.97 1.69,0.8 2.49,2.07 2.49,3.71 0,0.84 -0.8,1.64 -2.49,2.49 -4.92,3.28 -6.99,9.1 -6.19,17.35l0 27.31c22.33,43.81 50.06,80.17 83.13,109.11 -6.62,2.49 -11.59,6.19 -14.92,11.17 -28.1,-28.1 -52.5,-60.38 -73.13,-96.74 -8.31,43.82 -34.77,79.38 -79.38,106.69 -3.33,-4.98 -7.88,-9.11 -13.65,-12.44zm428.14 -117.79c5.76,4.12 10.31,6.98 13.6,8.68 1.69,1.64 2.06,3.28 1.27,4.92 0,0.84 -0.85,1.27 -2.49,1.27 -2.49,0 -4.55,1.21 -6.19,3.7 -4.13,4.13 -7.46,7.89 -9.95,11.17l50.85 0c14.08,0 28.95,-0.8 44.66,-2.49l0 17.36c-18.99,-0.8 -33.92,-1.64 -44.66,-2.44l-193.46 0c-10.74,0.8 -25.61,1.64 -44.66,2.44l0 -17.36c19.05,1.69 33.92,2.49 44.66,2.49l60.75 0c-6.62,-4.98 -15.3,-10.75 -26.04,-17.36l8.68 -12.38c1.64,1.64 3.76,3.28 6.19,4.92 7.46,4.18 16.99,10.79 28.52,19.84l-3.7 4.98 50.85 0c8.26,-9.11 15.3,-19 21.12,-29.74zm-141.4 123.98c0.8,-7.41 1.22,-16.09 1.22,-26.03l0 -4.98c0,-4.92 -0.42,-9.47 -1.22,-13.6 0,-4.13 0,-9.1 0,-14.92 9.1,1.69 18.58,2.06 28.52,1.27l131.45 0c10.74,0.79 20.27,0.42 28.52,-1.27 -1.64,13.23 -2.49,22.75 -2.49,28.52l0 4.98c0,6.61 0.85,15.29 2.49,26.03 -8.25,-1.64 -17.78,-2.06 -28.52,-1.22l-131.45 0c-8.3,-0.84 -17.78,-0.42 -28.52,1.22zm171.14 -14.87l0 -29.74 -153.78 0 0 29.74 153.78 0zm-169.92 -106.63c0,-4.18 0,-10.37 0,-18.62 0.85,-3.34 1.27,-5.77 1.27,-7.46l0 -4.93c0,-2.48 -0.42,-10.79 -1.27,-24.81 8.25,1.64 17.78,2.06 28.52,1.21l125.26 0c11.58,0.85 21.11,0.43 28.52,-1.21 -0.8,7.41 -1.22,15.71 -1.22,24.81l0 4.93c-0.85,9.94 -0.42,18.62 1.22,26.08 -13.23,-0.84 -22.7,-1.69 -28.52,-2.48l-125.26 0c-9.1,0.79 -18.57,1.64 -28.52,2.48zm164.94 -14.92l0 -26.03 -148.8 0 0 26.03 148.8 0zm-203.36 -116.57c19,1.64 34.29,2.48 45.88,2.48l76.89 0 0 -8.68c0,-10.74 -0.42,-18.62 -1.27,-23.54 5.82,1.64 13.65,3.28 23.6,4.92 1.64,0.84 2.49,1.69 2.49,2.49 0,0.84 -0.85,2.06 -2.49,3.75 -4.97,2.44 -7.04,6.19 -6.19,11.17l0 9.89 75.62 0c11.59,0 26.88,-0.84 45.88,-2.48l0 17.35c-19.85,-1.64 -35.14,-2.48 -45.88,-2.48l-75.62 0 0 24.81 66.94 0c14.87,0.85 26.88,0.43 35.98,-1.21l0 16.08c-9.1,-0.79 -21.11,-1.21 -35.98,-1.21l-153.78 0c-15.71,0 -27.73,0.42 -35.98,1.21l0 -16.08c9.1,1.64 21.11,2.06 35.98,1.21l70.7 0 0 -24.81 -76.89 0c-12.43,0.84 -27.73,1.69 -45.88,2.48l0 -17.35zm338.82 24.81c10.74,1.64 24.39,2.07 40.9,1.22l29.79 0 0 -19.84c0,-9.1 -0.42,-16.51 -1.27,-22.33 7.46,0.84 14.08,1.69 19.85,2.48 1.69,0.85 2.91,2.07 3.75,3.76 0,0.79 -0.84,1.64 -2.48,2.49 -3.34,0.79 -4.55,4.92 -3.76,12.38l0 21.06 79.37 0 0 -18.57c0,-6.62 -0.37,-14.5 -1.21,-23.6 7.46,0.84 14.07,1.69 19.84,2.48 1.64,0.85 2.91,2.07 3.71,3.76 -0.8,0.79 -2.07,1.64 -3.71,2.49 -0.85,0.79 -1.22,1.64 -1.22,2.43 -2.48,1.7 -3.33,4.98 -2.48,9.95l0 21.06 35.93 0c22.33,0.85 35.98,0.42 40.96,-1.22l0 16.14c-5.83,-0.84 -19.43,-1.27 -40.96,-1.27l-35.93 0 0 23.55c0,1.69 0,4.18 0,7.46 0.79,4.98 1.21,8.68 1.21,11.17l-17.35 0c0.84,-4.13 1.21,-10.32 1.21,-18.63l0 -23.55 -79.37 0 0 26.04c-0.79,8.31 -0.37,14.5 1.27,18.63l-18.63 0c0.85,-4.98 1.27,-11.17 1.27,-18.63l0 -26.04 -29.79 0c-18.15,0 -31.8,0.43 -40.9,1.27l0 -16.14zm34.71 96.74c-21.48,0 -36.35,0.42 -44.66,1.21l0 -16.08c10.74,1.64 26.09,2.06 45.93,1.21l61.97 0c9.1,-12.38 16.98,-27.67 23.6,-45.88 6.61,2.49 12.38,4.56 17.35,6.2 1.64,0.84 2.91,2.06 3.71,3.75 0,1.64 -0.8,2.44 -2.49,2.44 -4.92,1.69 -8.68,5.39 -11.17,11.16 -5.76,11.59 -9.89,19.05 -12.38,22.33l104.19 0c4.93,0 14.03,0 27.26,0 8.3,-0.79 14.07,-1.21 17.35,-1.21l0 16.08c-9.05,-0.79 -23.97,-1.21 -44.61,-1.21l-111.65 0c-9.1,12.38 -20.64,25.61 -34.71,39.68 4.12,1.64 9.52,2.07 16.14,1.22l101.7 0c13.23,0.85 22.7,0.42 28.52,-1.22 -1.69,5.77 -2.06,15.3 -1.27,28.53l0 39.68c-0.79,10.75 -0.42,19.42 1.27,26.04 -6.61,-1.64 -16.13,-2.07 -28.52,-1.22l-102.97 0c-13.23,-0.85 -22.7,-0.42 -28.53,1.22 0.85,-13.23 1.7,-21.91 2.49,-26.04l0 -39.68c-0.79,-5.77 -1.64,-11.17 -2.49,-16.14 -25.61,23.17 -47.94,41.38 -66.93,54.61 -2.49,-1.7 -6.25,-4.13 -11.17,-7.47 -3.33,-2.48 -5.4,-4.55 -6.19,-6.19 44.61,-22.33 82.65,-53.34 114.09,-93.02l-55.83 0zm168.7 119.06l0 -64.51 -125.31 0 0 64.51 125.31 0zm139.1 -254.27c9.11,7.46 21.54,18.63 37.26,33.5 9.05,-10.74 17.78,-23.55 26.03,-38.42 0,0.8 0.8,1.64 2.49,2.44 5.77,3.33 10.32,6.24 13.6,8.73 0.85,1.64 0.85,2.86 0,3.7 0,0.8 -0.79,1.22 -2.43,1.22 -3.34,2.49 -6.62,5.82 -9.95,9.95 -7.46,9.89 -14.45,18.2 -21.06,24.82 19.84,33.86 28.94,70.64 27.25,110.33 -1.64,42.17 -7.04,69.48 -16.09,81.86 -6.61,11.59 -23.6,20.69 -50.85,27.3 -4.13,-7.46 -8.31,-13.23 -12.44,-17.35 26.46,-1.64 42.6,-7.04 48.37,-16.14 8.31,-9.9 13.65,-35.14 16.14,-75.67 0,-18.15 -0.42,-29.74 -1.22,-34.72 -19.05,24.82 -39.32,47.95 -60.8,69.48 -4.13,-3.33 -9.52,-6.61 -16.14,-9.95 26.46,-22.33 50.85,-48.78 73.18,-79.37 -4.92,-14.87 -10.74,-29.32 -17.35,-43.39 -14.87,14.87 -29.37,28.1 -43.39,39.69 -1.64,-0.85 -4.55,-2.49 -8.68,-4.98 -2.49,-1.64 -4.55,-3.28 -6.19,-4.97 18.15,-11.54 34.71,-25.61 49.58,-42.12 -10.74,-10.8 -23.12,-22.34 -37.2,-34.77l9.89 -11.17zm124.04 132.72c-9.89,0 -19,0.42 -27.25,1.27l0 -16.14c6.61,1.64 16.09,2.06 28.52,1.22l37.2 0 0 -88.06 -45.88 0c-5.82,0 -14.92,0.43 -27.3,1.27l0 -16.14c6.61,1.64 15.71,2.07 27.3,1.22l109.12 0c11.59,0.85 20.69,0.42 27.3,-1.22l0 16.14c-6.61,-0.84 -15.71,-1.27 -27.3,-1.27l-48.37 0 0 88.06 40.91 0c11.58,0.84 20.69,0.42 27.3,-1.22l0 16.14c-6.61,-0.85 -15.72,-1.27 -27.3,-1.27l-40.91 0 0 101.7 63.24 0c12.43,0.85 21.9,0.43 28.52,-1.21l0 12.38c-4.13,0 -10.32,0 -18.57,0 -4.98,0 -8.26,0 -9.95,0l-142.61 0c-1.64,0 -4.13,0 -7.46,0 -4.93,0 -11.54,0 -19.85,0l0 -12.38c3.34,0 9.1,0.37 17.41,1.21 4.92,0 8.68,0 11.11,0l63.29 0 0 -101.7 -38.47 0z"/>
  <path class="fil29" d="M8998.32 811.08c-60.42,0 -109.4,-48.98 -109.4,-109.4 0,-60.42 48.98,-109.4 109.4,-109.4 60.42,0 109.4,48.98 109.4,109.4 0,60.42 -48.98,109.4 -109.4,109.4z"/>
  <path class="fil30" d="M9357.58 418.43c26.46,-37.2 47.15,-74.83 62.02,-112.87 7.46,1.64 14.45,4.55 21.06,8.67 3.33,2.49 2.91,4.98 -1.22,7.47 -3.28,0 -8.25,6.19 -14.87,18.57 -19.84,37.25 -35.56,63.29 -47.15,78.16l45.88 0c4.13,0.84 10.37,0.84 18.63,0 7.46,-0.85 13.23,-1.22 17.36,-1.22l0 17.36c-7.46,-0.85 -19.42,-1.27 -35.99,-1.27l-203.36 0c-15.71,0 -27.72,0.42 -35.98,1.27l0 -17.36c3.28,0 9.9,0.37 19.84,1.22 8.26,0 13.66,0 16.14,0l137.64 0zm-158.75 133.93c-4.13,-5.77 -9.52,-9.9 -16.14,-12.38 38.89,-20.69 72.39,-48.79 100.49,-84.35 2.49,2.48 4.97,4.55 7.46,6.19 4.13,3.33 6.99,5.4 8.68,6.19 1.64,3.33 0.79,5.4 -2.49,6.24 -3.33,0 -7.88,2.86 -13.65,8.68 -32.23,32.23 -60.38,55.41 -84.35,69.43zm235.64 0c-27.25,-26.46 -59.96,-55.4 -97.95,-86.78l9.9 -12.44c22.33,18.2 56.25,47.15 101.7,86.84l-13.65 12.38zm-168.65 -147.59c-19.05,-31.43 -37.62,-58.68 -55.82,-81.86l13.65 -9.89c21.48,27.25 40.11,55.4 55.83,84.35l-13.66 7.4zm65.73 -22.33c-11.59,-27.25 -26.89,-55.77 -45.88,-85.56l14.87 -7.46c18.2,28.15 33.92,57.09 47.15,86.83l-16.14 6.19zm233.4 178.6c0.85,-13.23 1.64,-21.91 2.49,-26.04l0 -86.83c0,-0.8 -0.43,-3.71 -1.22,-8.68 0,-5.77 0,-10.32 0,-13.6 -2.49,1.64 -5.82,3.7 -9.95,6.19 -13.23,7.41 -22.75,12.38 -28.52,14.87 -1.64,-3.28 -6.62,-7.46 -14.87,-12.38 50.43,-18.21 86.78,-46.73 109.11,-85.62l-50.85 0c-3.28,0 -9.89,0.42 -19.84,1.27 -13.23,0 -21.91,0 -26.04,0l0 -16.14c10.74,0.84 26.04,1.27 45.88,1.27l55.83 0c7.46,-18.21 13.65,-37.63 18.62,-58.32 2.44,0.85 6.99,2.49 13.6,4.98 1.7,0.79 3.34,1.22 4.98,1.22 1.64,0.84 2.49,2.06 2.49,3.75 0,1.64 -0.85,2.44 -2.49,2.44 -3.28,0.84 -5.35,2.48 -6.19,4.97 -2.49,5.82 -5.77,14.87 -9.95,27.31 -2.44,6.61 -4.13,11.16 -4.92,13.65l95.46 0c23.18,0.79 38.05,0.37 44.66,-1.27l0 16.14c-9.1,-0.85 -23.97,-1.27 -44.66,-1.27l-49.58 0c25.61,38.04 63.23,63.71 112.87,76.94 -5.82,4.13 -9.1,9.47 -9.95,16.09 -50.43,-17.36 -90.12,-48.37 -119.06,-93.03l-35.99 0c-15.66,29.79 -36.77,53.76 -63.23,71.96 5.82,0.8 10.74,1.22 14.87,1.22 2.48,0 4.18,0 4.97,0l120.33 0c10.75,0 20.22,-0.79 28.53,-2.49 -1.7,5.83 -2.07,15.3 -1.27,28.53l0 86.83c-0.8,10.75 -0.43,19.42 1.27,26.04 -5.82,-1.64 -15.3,-2.07 -28.53,-1.22l-120.33 0c-13.23,-0.85 -22.75,-0.42 -28.52,1.22zm17.36 -126.47l0 49.58 63.28 0 0 -49.58 -63.28 0zm79.37 0l0 49.58 63.29 0 0 -49.58 -63.29 0zm63.29 62.02l-63.29 0 0 49.58 63.29 0 0 -49.58zm-79.38 49.58l0 -49.58 -63.28 0 0 49.58 63.28 0z"/>
  <path class="fil31" d="M7098.32 6611.08c-60.42,0 -109.4,-48.98 -109.4,-109.4 0,-60.42 48.98,-109.4 109.4,-109.4 60.42,0 109.4,48.98 109.4,109.4 0,60.42 -48.98,109.4 -109.4,109.4z"/>
  <path class="fil32" d="M6486.44 6505.86c5.76,4.12 10.31,6.98 13.6,8.68 1.69,1.64 2.06,3.28 1.27,4.92 0,0.84 -0.85,1.27 -2.49,1.27 -2.49,0 -4.55,1.21 -6.19,3.7 -4.13,4.13 -7.46,7.89 -9.95,11.17l50.85 0c14.08,0 28.95,-0.8 44.66,-2.49l0 17.36c-18.99,-0.8 -33.92,-1.64 -44.66,-2.44l-193.46 0c-10.74,0.8 -25.61,1.64 -44.66,2.44l0 -17.36c19.05,1.69 33.92,2.49 44.66,2.49l60.75 0c-6.62,-4.98 -15.3,-10.75 -26.04,-17.36l8.68 -12.38c1.64,1.64 3.76,3.28 6.19,4.92 7.46,4.18 16.99,10.79 28.52,19.84l-3.7 4.98 50.85 0c8.26,-9.11 15.3,-19 21.12,-29.74zm-141.4 123.98c0.8,-7.41 1.22,-16.09 1.22,-26.03l0 -4.98c0,-4.92 -0.42,-9.47 -1.22,-13.6 0,-4.13 0,-9.1 0,-14.92 9.1,1.69 18.58,2.06 28.52,1.27l131.45 0c10.74,0.79 20.27,0.42 28.52,-1.27 -1.64,13.23 -2.49,22.75 -2.49,28.52l0 4.98c0,6.61 0.85,15.29 2.49,26.03 -8.25,-1.64 -17.78,-2.06 -28.52,-1.22l-131.45 0c-8.3,-0.84 -17.78,-0.42 -28.52,1.22zm171.14 -14.87l0 -29.74 -153.78 0 0 29.74 153.78 0zm-169.92 -106.63c0,-4.18 0,-10.37 0,-18.62 0.85,-3.34 1.27,-5.77 1.27,-7.46l0 -4.93c0,-2.48 -0.42,-10.79 -1.27,-24.81 8.25,1.64 17.78,2.06 28.52,1.21l125.26 0c11.58,0.85 21.11,0.43 28.52,-1.21 -0.8,7.41 -1.22,15.71 -1.22,24.81l0 4.93c-0.85,9.94 -0.42,18.62 1.22,26.08 -13.23,-0.84 -22.7,-1.69 -28.52,-2.48l-125.26 0c-9.1,0.79 -18.57,1.64 -28.52,2.48zm164.94 -14.92l0 -26.03 -148.8 0 0 26.03 148.8 0zm-203.36 -116.57c19,1.64 34.29,2.48 45.88,2.48l76.89 0 0 -8.68c0,-10.74 -0.42,-18.62 -1.27,-23.54 5.82,1.64 13.65,3.28 23.6,4.92 1.64,0.84 2.49,1.69 2.49,2.49 0,0.84 -0.85,2.06 -2.49,3.75 -4.97,2.44 -7.04,6.19 -6.19,11.17l0 9.89 75.62 0c11.59,0 26.88,-0.84 45.88,-2.48l0 17.35c-19.85,-1.64 -35.14,-2.48 -45.88,-2.48l-75.62 0 0 24.81 66.94 0c14.87,0.85 26.88,0.43 35.98,-1.21l0 16.08c-9.1,-0.79 -21.11,-1.21 -35.98,-1.21l-153.78 0c-15.71,0 -27.73,0.42 -35.98,1.21l0 -16.08c9.1,1.64 21.11,2.06 35.98,1.21l70.7 0 0 -24.81 -76.89 0c-12.43,0.84 -27.73,1.69 -45.88,2.48l0 -17.35zm435.55 105.41c28.94,-35.56 47.94,-80.6 57.04,-135.15 7.46,3.28 14.08,5.34 19.85,6.19 2.48,1.64 2.48,3.7 0,6.19 -2.49,1.64 -4.98,5.4 -7.47,11.16 0,0.85 0,1.22 0,1.22 -4.12,13.23 -9.04,28.52 -14.86,45.93l75.67 0c9.89,0.8 21.9,0.37 35.98,-1.27 -8.31,18.21 -15.29,37.63 -21.11,58.32 -5.77,-0.85 -11.96,-1.7 -18.58,-2.49 5.77,-13.23 11.54,-27.3 17.36,-42.17l-94.3 0c-9.89,20.69 -20.21,39.68 -30.96,57.04 -5.82,-1.64 -12.01,-3.28 -18.62,-4.97zm-26.04 -78.11l-47.15 0c-8.25,0.79 -20.26,1.64 -35.98,2.49l0 -16.14c3.33,0 9.95,0.42 19.84,1.22 8.31,0 13.66,0 16.14,0l39.69 0c5.82,0.84 14.87,0.42 27.31,-1.22 -5.82,42.97 -14.5,79.8 -26.04,110.38 12.38,18.21 23.13,35.99 32.23,53.34l-16.14 9.9c-6.62,-15.72 -14.45,-31.43 -23.55,-47.1 -14.87,28.89 -33.07,55.78 -54.56,80.59 -5.82,-4.12 -12.01,-7.46 -18.62,-9.89 24.81,-23.18 45.88,-51.28 63.23,-84.35 -14.02,-18.2 -28.89,-36.41 -44.61,-54.56l12.39 -11.16c6.61,8.25 19.42,24.39 38.47,48.36 8.25,-27.3 14.02,-54.61 17.35,-81.86zm-7.46 224.47c61.17,-31.43 94.67,-76.88 100.49,-136.42l0 -7.46c0,-12.38 -0.42,-21.9 -1.27,-28.52 1.64,0.85 5.4,1.27 11.17,1.27 5.76,0.79 9.94,1.22 12.38,1.22 3.33,1.64 3.33,4.13 0,7.46 -4.13,3.28 -6.19,8.25 -6.19,14.87l0 13.65c10.74,44.61 43.02,86.41 96.73,125.26 -3.28,1.64 -6.19,3.7 -8.68,6.19 -3.28,1.64 -6.19,3.7 -8.68,6.19 -39.69,-35.56 -67.78,-71.49 -84.29,-107.9 -15.72,47.15 -47.58,85.99 -95.52,116.58 -5.82,-6.62 -11.16,-10.75 -16.14,-12.39z"/>
  <path class="fil33" d="M8191.66 4452.28c21.48,-14.03 40.95,-33.45 58.31,-58.27 3.28,2.49 7.83,6.2 13.6,11.17 1.69,3.28 0.85,5.34 -2.43,6.19 -2.49,0.85 -6.62,4.55 -12.44,11.17 -13.23,14.07 -28.1,28.09 -44.66,42.17 -1.64,-0.85 -2.86,-2.06 -3.7,-3.7 -1.64,-1.7 -4.56,-4.55 -8.68,-8.73zm152.56 6.24c-16.57,-14.92 -34.72,-31.01 -54.56,-48.37l9.89 -12.43c23.98,19.84 43.03,36.4 57.05,49.63l-12.38 11.17zm-166.22 -53.34c-13.22,-12.44 -30.58,-25.67 -52.07,-39.69l8.68 -12.43c17.36,10.79 35.14,24.39 53.34,40.95l-9.95 11.17zm-11.16 59.53l-11.17 11.17c-14.87,-14.87 -31.8,-29.37 -50.85,-43.45l9.95 -12.38c14.08,10.74 31.43,25.61 52.07,44.66zm-59.53 142.61c27.3,-34.71 47.99,-70.27 62.02,-106.63 0.84,2.44 3.33,5.35 7.46,8.68 2.48,2.44 4.13,3.71 4.97,3.71 -7.46,14.07 -18.2,33.49 -32.28,58.26 -11.59,19.84 -19.84,35.19 -24.82,45.93 -2.43,-1.69 -4.49,-2.91 -6.19,-3.76 -4.12,-3.28 -7.83,-5.34 -11.16,-6.19zm116.57 -106.63c-8.25,0.8 -20.21,1.64 -35.93,2.44l0 -16.09c3.28,0 9.9,0.42 19.85,1.22 8.25,0 13.65,0 16.08,0l44.67 0 0 -14.87c0,-3.33 -0.43,-9.53 -1.22,-18.63 0,-8.25 0,-14.02 0,-17.35 9.1,1.64 16.51,3.33 22.33,4.97 1.64,0.85 2.49,2.06 2.49,3.7 0,0.85 -0.85,1.7 -2.49,2.49 -4.13,3.33 -5.82,8.68 -4.98,16.14l0 23.55 62.02 0c16.51,0.85 28.53,0.42 35.93,-1.22l0 16.09c-11.53,-0.8 -23.54,-1.64 -35.93,-2.44l-45.88 0c20.64,41.33 48.37,69.85 83.08,85.57 -7.46,5.77 -12.01,10.32 -13.65,13.65 -41.33,-26.46 -69.85,-58.73 -85.57,-96.78l0 90.54c-0.84,17.41 -0.42,29.79 1.22,37.25l-18.57 0c0,-4.18 0,-9.95 0,-17.41 0.79,-8.25 1.22,-14.87 1.22,-19.84l0 -76.89c-25.62,33.92 -54.99,62.02 -88.06,84.35 -2.49,0 -5.34,-1.64 -8.68,-4.97 -3.28,-2.49 -5.76,-4.13 -7.46,-4.98 38.05,-21.48 70.33,-51.65 96.79,-90.49l-37.26 0zm-9.89 -104.19c-0.85,4.98 -0.43,11.17 1.22,18.57l-18.58 0c0.8,-6.61 1.22,-12.8 1.22,-18.57l0 -13.65c0,-8.26 -0.42,-15.29 -1.22,-21.06 5.77,0.79 10.74,1.21 14.87,1.21 3.33,0 5.77,0 7.46,0l132.72 0c0.79,0 3.28,0 7.41,0 3.33,0 8.25,-0.42 14.87,-1.21 -1.65,5.77 -2.07,12.8 -1.22,21.06l0 13.65c-0.85,5.77 -0.43,11.96 1.22,18.57l-18.58 0c0.8,-7.4 1.22,-13.59 1.22,-18.57l0 -21.11 -142.61 0 0 21.11zm316.48 50.85c-7.41,-14.92 -14.87,-28.52 -22.28,-40.95l12.39 -7.41c7.46,12.38 14.87,26.03 22.33,40.9l-12.44 7.46zm-95.46 37.2c9.1,-23.97 14.45,-48.78 16.09,-74.4 6.61,0.8 12.43,1.64 17.41,2.44 1.64,0.84 2.43,2.11 2.43,3.75 0,1.65 -0.79,2.49 -2.43,2.49 -1.7,0.8 -2.49,2.86 -2.49,6.19 -4.13,23.13 -8.68,44.66 -13.65,64.51 -4.98,-1.69 -10.75,-3.34 -17.36,-4.98zm49.58 148.81c0.85,-21.49 1.64,-39.27 2.49,-53.29l0 -186.06c-0.85,-18.2 -1.64,-34.71 -2.49,-49.63 10.74,1.69 19.05,3.33 24.82,4.97 1.64,0.85 2.49,2.07 2.49,3.71 0,0.84 -0.85,1.69 -2.49,2.48 -5.77,4.13 -8.25,9.53 -7.46,16.14l0 208.39c0,8.25 0,18.15 0,29.74 0.85,10.74 1.69,18.63 2.49,23.55l-19.85 0zm90.54 -91.76l0 23.55 98 0 0 -23.55 -98 0zm86.84 -49.64c9.89,0 19.42,-0.79 28.52,-2.43 -1.64,5.77 -2.06,15.29 -1.27,28.52l0 89.27c0.85,14.08 -11.53,22.33 -37.2,24.82 -0.79,-4.97 -3.28,-10.74 -7.41,-17.36 19.85,1.64 29.32,-2.48 28.52,-12.43l0 -24.77 -98 0 0 16.09c-0.79,17.41 -0.42,29.79 1.27,37.25l-18.62 0c0,-5.82 0,-12.01 0,-18.62 0.84,-4.98 1.21,-11.17 1.21,-18.63l0 -75.62c0,-13.23 -0.37,-22.75 -1.21,-28.52 12.38,1.64 21.9,2.43 28.52,2.43l75.67 0zm-86.84 12.44l0 23.55 98 0 0 -23.55 -98 0zm2.49 -116.58c-15.72,0 -27.68,0.43 -35.98,1.22l0 -16.14c6.61,1.69 18.62,2.12 35.98,1.27l35.98 0 0 -12.38c0,-9.95 -0.42,-17.78 -1.27,-23.6 7.46,1.64 14.93,3.33 22.33,4.97 1.64,0.85 2.49,1.64 2.49,2.49 0,0.79 -0.42,1.64 -1.22,2.49 -4.97,3.28 -7.03,7.4 -6.24,12.38l0 13.65 38.47 0c16.51,0.85 28.95,0.42 37.2,-1.27l0 16.14c-4.97,0 -10.32,0 -16.14,0 -4.13,-0.79 -11.16,-1.22 -21.06,-1.22l-38.47 0 0 26.04 31.01 0c16.56,0.84 28.94,0.42 37.2,-1.27l0 16.14c-11.54,-0.8 -23.97,-1.64 -37.2,-2.49l-31.01 0 0 28.52 59.53 0c16.56,0.85 28.95,0.43 37.25,-1.21l0 16.13c-4.97,0 -10.37,0 -16.13,0 -4.13,-0.84 -11.17,-1.27 -21.12,-1.27l-123.98 0c-2.49,0 -7.46,0.43 -14.92,1.27 -9.9,0 -16.94,0 -21.07,0l0 -16.13c6.62,1.64 18.63,2.06 35.99,1.21l48.36 0 0 -28.52 -26.03 0c-8.31,0.85 -20.27,1.69 -35.98,2.49l0 -16.14c3.28,0 9.89,0.42 19.84,1.27 8.25,0 13.65,0 16.14,0l26.03 0 0 -26.04 -35.98 0z"/>
  <path class="fil34" d="M8898.32 4611.08c-60.42,0 -109.4,-48.98 -109.4,-109.4 0,-60.42 48.98,-109.4 109.4,-109.4 60.42,0 109.4,48.98 109.4,109.4 0,60.42 -48.98,109.4 -109.4,109.4z"/>
  <path class="fil21" d="M1898.32 8911.08c-60.42,0 -109.4,-48.98 -109.4,-109.4 0,-60.42 48.98,-109.4 109.4,-109.4 60.42,0 109.4,48.98 109.4,109.4 0,60.42 -48.98,109.4 -109.4,109.4z"/>
  <path class="fil22" d="M2325.58 8678.71c4.97,4.98 9.52,9.95 13.65,14.93 0.8,2.43 1.22,4.12 1.22,4.92 -0.8,1.69 -2.07,2.06 -3.71,1.27 -5.76,-0.85 -11.58,-0.85 -17.35,0 -71.97,12.38 -137.69,20.26 -197.22,23.55 -3.28,-5.77 -6.62,-11.96 -9.9,-18.58 100.01,-2.49 171.13,-11.16 213.31,-26.09zm-112.87 47.15c15.71,12.38 29.79,25.24 42.17,38.47l-13.65 11.12c-12.38,-14.03 -25.61,-26.83 -39.69,-38.42l11.17 -11.17zm-54.56 75.67c-8.25,0.8 -20.27,1.64 -35.98,2.49l0 -17.41c3.33,0.85 9.95,1.27 19.84,1.27 8.31,0 13.65,0 16.14,0l130.23 0c13.23,0 27.67,-0.85 43.39,-2.49 -43.81,40.54 -94.67,76.89 -152.56,109.12 36.41,19.84 71.12,29.79 104.19,29.79l26.04 0c23.18,0 41.38,-0.42 54.61,-1.22 -2.49,2.44 -4.55,7.41 -6.24,14.87 -0.8,1.64 -1.22,3.28 -1.22,4.98 -9.1,-0.85 -18.63,-1.27 -28.52,-1.27 -36.41,-0.8 -60.81,-2.07 -73.19,-3.71 -25.61,-4.97 -50.85,-13.65 -75.67,-26.03 -12.38,-7.46 -22.7,-9.53 -31.01,-6.25 -11.53,9.1 -20.21,16.99 -26.03,23.6 -5.77,-3.33 -11.54,-5.82 -17.36,-7.46 18.2,-20.69 34.71,-32.65 49.64,-35.98 0.79,0 2.48,-0.37 4.92,-1.22 5.82,-2.48 12.43,-5.4 19.84,-8.68 38.05,-19.84 74.46,-44.66 109.17,-74.4l-130.23 0zm274.36 70.7c0.8,-6.61 1.22,-16.14 1.22,-28.52l0 -116.63c0,-2.43 -0.42,-7.41 -1.22,-14.87 0,-6.61 0,-11.17 0,-13.65 12.38,1.69 21.91,2.48 28.52,2.48l29.74 0c9.95,0 19.42,-0.79 28.53,-2.48 -1.64,5.82 -2.07,15.29 -1.22,28.52l0 116.63c-0.85,12.38 -0.42,21.91 1.22,28.52 -5.77,-0.85 -15.3,-1.27 -28.53,-1.27l-29.74 0c-13.22,0 -22.75,0.42 -28.52,1.27zm69.43 -14.92l0 -143.83 -52.07 0 0 143.83 52.07 0zm114.09 -62.02l48.36 0c16.57,0.85 28.53,0.42 35.99,-1.22l0 16.14c-11.59,-0.85 -23.55,-1.69 -35.99,-2.49l-40.9 0c23.97,46.31 53.76,83.08 89.27,110.39 -7.41,2.49 -13.23,5.77 -17.36,9.89 -29.74,-23.12 -56.2,-57.83 -79.37,-104.14l0 94.25c0,2.49 0,7.04 0,13.65 0.84,11.54 1.27,19.42 1.27,23.55l-18.63 0c0,-4.97 0,-10.32 0,-16.14 0.85,-4.92 1.27,-11.96 1.27,-21.06l0 -99.22c-19.84,49.58 -49.64,87.21 -89.32,112.87 -3.28,-4.97 -8.68,-9.1 -16.14,-12.43 42.17,-22.34 73.6,-59.54 94.3,-111.61l-26.09 0c-8.26,0.8 -20.22,1.64 -35.93,2.49l0 -16.14c3.28,0 9.89,0.43 19.84,1.22 8.26,0 13.65,0 16.09,0l37.25 0 0 -57.05 -32.28 0c-15.71,0 -27.67,0.43 -35.93,1.27l0 -16.13c6.62,1.64 18.57,2.06 35.93,1.27l32.28 0 0 -28.58c0,-16.51 -0.42,-28.52 -1.27,-35.93 10.74,2.49 18.63,4.13 23.55,4.97 3.33,1.64 3.76,4.13 1.27,7.41 -5.77,4.13 -8.26,9.53 -7.46,16.14l0 35.99 34.76 0c16.51,0.79 28.9,0.37 37.2,-1.27l0 16.13c-4.97,0 -10.37,0 -16.14,0 -4.12,-0.84 -11.16,-1.27 -21.06,-1.27l-34.76 0 0 57.05z"/>
  <path class="fil35" d="M998.32 6111.08c-60.42,0 -109.4,-48.98 -109.4,-109.4 0,-60.42 48.98,-109.4 109.4,-109.4 60.42,0 109.4,48.98 109.4,109.4 0,60.42 -48.98,109.4 -109.4,109.4z"/>
  <path class="fil36" d="M1375.89 5936.87c-16.56,0 -28.95,0.43 -37.2,1.22l0 -16.09c6.61,1.65 19,2.07 37.2,1.22l26.03 0 0 -40.9c-0.84,-9.1 -1.64,-20.69 -2.48,-34.72 10.74,2.44 18.62,4.13 23.55,4.93 1.69,0.84 2.48,2.06 2.48,3.75 0,0.8 -0.79,1.64 -2.48,2.44 -4.93,3.33 -6.99,8.73 -6.2,16.14l0 48.36 49.64 0c12.38,0.85 24.39,0.43 35.93,-1.22l0 16.09c-4.92,0 -9.89,0 -14.87,0 -4.97,-0.79 -11.96,-1.22 -21.06,-1.22l-49.64 0 0 78.16 31.01 0c9.11,0 18.63,-0.84 28.53,-2.48 -1.64,9.89 -2.49,19.42 -2.49,28.52l0 55.77c-0.8,5.82 0,14.5 2.49,26.09 -6.62,-1.69 -16.14,-2.06 -28.53,-1.27l-71.91 0c-13.23,-0.79 -22.75,-0.42 -28.52,1.27 0.79,-11.59 1.64,-20.27 2.48,-26.09l0 -55.77c0,-2.49 -0.42,-7.46 -1.27,-14.87 0,-6.62 0,-11.17 0,-13.65 12.39,2.48 21.91,3.28 28.53,2.48l24.81 0 0 -78.16 -26.03 0zm-120.33 -3.7c-8.26,0.79 -20.27,1.64 -35.93,2.49l0 -16.14c3.28,0 9.89,0.42 19.84,1.21 8.26,0 13.6,0 16.09,0l16.14 0 0 -32.22c-0.85,-9.1 -1.64,-21.91 -2.49,-38.47 10.74,2.49 18.63,4.18 23.55,4.97 1.69,0.85 2.91,2.07 3.75,3.71 0,1.69 -0.84,2.91 -2.48,3.75 -4.98,2.49 -7.46,7.84 -7.46,16.09l0 42.17 3.75 0c2.44,0 7.41,0 14.87,0 9.9,-0.79 16.94,-1.21 21.06,-1.21l0 16.14c-11.58,-0.85 -23.54,-1.7 -35.93,-2.49l-3.75 0 0 29.74c22.33,20.69 39.26,37.62 50.85,50.85l-14.87 9.95c-9.1,-12.43 -21.11,-26.46 -35.98,-42.17l0 101.7c0,8.26 0,18.15 0,29.74 0.84,10.74 1.64,18.63 2.48,23.6l-19.84 0c0.85,-20.69 1.64,-38.47 2.49,-53.34l0 -102.97c-10.75,25.66 -26.88,54.61 -48.37,86.83 -4.13,-4.13 -9.52,-7.04 -16.14,-8.68 30.59,-40.53 51.7,-82.28 63.29,-125.25l-14.92 0zm109.16 94.24l0 80.6 94.25 0 0 -80.6 -94.25 0zm367.34 -17.35c1.64,0 5.4,0.42 11.17,1.22 4.12,0 7.03,0 8.67,0 2.49,2.48 2.49,4.55 0,6.19 -1.64,2.48 -2.48,7.46 -2.48,14.92l52.12 0c16.51,0.79 28.52,0.42 35.93,-1.27l0 16.14c-4.92,0 -9.89,0 -14.87,0 -4.97,-0.85 -11.96,-1.22 -21.06,-1.22l-45.93 0c25.66,29.74 52.12,51.22 79.37,64.45 -5.76,3.34 -9.89,7.89 -12.38,13.66 -28.1,-18.21 -52.49,-39.27 -73.18,-63.24l0 40.91c0,2.48 0,7.46 0,14.92 0.84,10.74 1.27,18.15 1.27,22.28l-18.63 0c0,-4.92 0,-10.32 0,-16.09 0.85,-4.97 1.27,-12.01 1.27,-21.11l0 -43.4c-25.66,29.74 -54.19,53.34 -85.62,70.7 -4.92,-5.77 -10.32,-9.95 -16.09,-12.38 33.87,-13.28 65.3,-36.83 94.25,-70.7l-43.39 0c-16.57,0 -28.95,0.37 -37.2,1.22l0 -16.14c6.61,1.69 18.99,2.06 37.2,1.27l50.85 0c0.79,-4.13 0.37,-11.59 -1.27,-22.33zm-45.88 -83.08c0,-3.33 0,-7.89 0,-13.65 0.85,-2.49 1.22,-4.55 1.22,-6.19l0 -21.12c-0.79,-2.49 -1.22,-6.19 -1.22,-11.16 0,-4.13 0,-7.41 0,-9.9 9.1,1.64 15.72,2.06 19.85,1.22l76.88 0c4.98,0.84 11.59,0.42 19.85,-1.22 -1.64,4.92 -2.07,11.96 -1.22,21.06l0 21.12c-0.85,4.12 -0.42,10.74 1.22,19.84 -3.28,0.79 -7.04,0.79 -11.17,0 -4.13,-0.85 -7.41,-1.27 -9.89,-1.27l-75.67 0c-2.49,0 -5.77,0.42 -9.95,1.27 -4.13,0 -7.41,0 -9.9,0zm62.02 78.1c0.79,-9.1 1.22,-15.71 1.22,-19.84l0 -21.06c0,-7.46 -0.43,-14.5 -1.22,-21.11 7.41,1.64 14.45,2.06 21.06,1.27l37.2 0c4.98,0.79 11.59,0.37 19.85,-1.27 -1.65,4.97 -2.07,12.01 -1.22,21.11l0 21.06c-0.85,4.13 -0.43,10.74 1.22,19.84 -3.29,0.85 -6.99,0.85 -11.17,0 -4.13,-0.84 -7.41,-1.21 -9.9,-1.21l-35.98 0c-2.49,0 -5.77,0.37 -9.89,1.21 -4.98,0 -8.68,0 -11.17,0zm37.2 -91.75l0 -34.77 -83.08 0 0 34.77 83.08 0zm23.55 78.1l0 -34.71 -43.39 0 0 34.71 43.39 0zm-151.29 13.65c0,-3.28 0,-7.83 0,-13.65 0.85,-2.49 1.22,-4.55 1.22,-6.19l0 -18.57c0,-2.49 -0.37,-6.25 -1.22,-11.17 0,-4.18 0,-7.46 0,-9.95 9.1,1.64 15.72,2.07 19.84,1.27l34.72 0c8.25,0.8 14.87,0.37 19.84,-1.27 0,2.49 -0.42,6.19 -1.22,11.17 -0.84,4.97 -0.84,8.25 0,9.95l0 18.57c0,1.64 0,3.7 0,6.19 0,4.13 0.43,8.68 1.22,13.65 -3.28,0 -7.04,0 -11.16,0 -4.13,-0.84 -7.04,-1.21 -8.68,-1.21l-34.72 0c-2.48,0 -5.76,0.37 -9.94,1.21 -4.13,0 -7.41,0 -9.9,0zm58.26 -13.65l0 -32.22 -42.12 0 0 32.22 42.12 0zm-133.93 -69.43c2.49,3.29 2.49,5.35 0,6.2 -1.64,0.84 -4.13,6.19 -7.41,16.14 0,0.79 0,1.21 0,1.21 -3.33,14.87 -7.46,29.79 -12.43,44.66 -2.49,0 -4.98,-0.42 -7.41,-1.27 -4.18,-0.79 -7.46,-1.64 -9.95,-2.43 9.95,-24.82 16.93,-48 21.11,-69.48 3.28,1.64 8.68,3.33 16.09,4.97zm18.63 -32.27c0,-15.67 -0.43,-27.26 -1.27,-34.72 10.74,2.49 18.62,4.13 23.6,4.98 1.64,0.84 2.48,2.06 2.48,3.7 0,0.85 -0.84,1.64 -2.48,2.49 -4.98,3.33 -7.04,8.68 -6.25,16.14l0 73.18c16.57,-18.2 27.31,-32.7 32.28,-43.44 5.77,4.12 11.17,7.88 16.14,11.16 1.64,4.13 0.79,6.19 -2.49,6.19 -3.33,0.85 -7.88,4.98 -13.65,12.44 -5.82,7.41 -16.56,19 -32.28,34.71l0 8.68c-0.79,6.61 -1.64,14.5 -2.43,23.55 -0.85,9.95 -1.7,17.78 -2.49,23.6 19,15.72 34.71,31.38 47.1,47.09l-12.39 9.95c-12.38,-14.87 -24.81,-28.52 -37.2,-40.95 -7.46,26.45 -21.9,52.91 -43.39,79.37 -2.48,-3.28 -8.31,-5.77 -17.41,-7.41 33.92,-32.28 51.28,-76.09 52.13,-131.5l0 -99.21z"/>
  <path class="fil37" d="M3498.32 7911.08c-60.42,0 -109.4,-48.98 -109.4,-109.4 0,-60.42 48.98,-109.4 109.4,-109.4 60.42,0 109.4,48.98 109.4,109.4 0,60.42 -48.98,109.4 -109.4,109.4z"/>
  <path class="fil38" d="M3823.87 7720.81c-18.2,-15.71 -34.77,-28.52 -49.63,-38.47l9.94 -12.38c14.87,9.95 32.23,22.75 52.07,38.47l-12.38 12.38zm37.2 101.71l71.92 0 0 -33.5 -71.92 0 0 33.5zm-16.14 130.23c0,-1.64 0,-5.82 0,-12.44 0.85,-12.38 1.22,-20.64 1.22,-24.76l0 -33.5 -104.14 0c-5.82,0 -14.92,0.42 -27.31,1.22l0 -14.87c3.34,0 9.11,0.42 17.36,1.21 4.97,0 8.26,0 9.95,0l104.14 0 0 -34.71 -60.75 0c-12.38,0.85 -21.91,1.64 -28.52,2.49 0.85,-5.77 1.22,-15.3 1.22,-28.52l0 -53.34c0,-14.03 -0.37,-23.55 -1.22,-28.53 7.46,1.64 17.36,2.07 29.74,1.27l78.16 0c19.84,-17.41 36.35,-38.04 49.58,-62.01 1.69,0.79 4.55,2.48 8.73,4.92 6.61,2.48 10.74,3.75 12.38,3.75 1.64,1.64 2.49,2.86 2.49,3.71 0,0.84 -0.85,1.27 -2.49,1.27 -6.61,0 -13.65,4.92 -21.11,14.87 -10.74,14.87 -20.22,26.03 -28.52,33.49l35.98 0c13.23,0.8 22.75,0.37 28.52,-1.27 -1.64,4.98 -2.06,14.5 -1.22,28.53l0 53.34c-0.84,12.38 -0.42,21.9 1.22,28.52 -10.74,-0.85 -20.27,-1.64 -28.52,-2.49l-60.75 0 0 34.71 106.63 0c2.49,0.85 7.04,0.85 13.65,0 5.77,-0.79 10.32,-1.21 13.65,-1.21l0 14.87c-6.61,-0.8 -15.71,-1.22 -27.3,-1.22l-106.63 0 0 33.5c0,3.28 0,9.47 0,18.57 0.8,7.46 1.64,13.65 2.49,18.63l-18.63 0zm-70.69 -177.38l71.91 0 0 -33.5 -71.91 0 0 33.5zm0 47.15l71.91 0 0 -33.5 -71.91 0 0 33.5zm158.75 -80.65l-71.92 0 0 33.5 71.92 0 0 -33.5zm190.01 -18.57c-19.05,-17.36 -36.78,-31.43 -53.34,-42.18l9.95 -11.16c16.51,9.95 34.71,23.55 54.55,40.9l-11.16 12.44zm3.7 217.01c20.69,-32.23 31.86,-84.3 33.5,-156.26l0 -83.08c0,-2.49 -0.43,-7.46 -1.22,-14.87 0,-6.62 0,-11.17 0,-13.65 11.54,1.64 21.06,2.48 28.52,2.48l104.14 0c10.75,0 20.27,-0.84 28.53,-2.48 -1.65,5.76 -2.07,15.29 -1.22,28.52l0 217.06c-2.49,14.03 -19,22.28 -49.64,24.77 -0.79,-4.13 -2.86,-10.32 -6.19,-18.58 24.82,1.64 38.05,-2.06 39.69,-11.16l0 -225.74 -126.47 0 0 85.56c-0.85,77.74 -11.59,135.2 -32.28,172.41 -6.62,-4.13 -12.38,-5.77 -17.36,-4.98zm-50.85 -184.78c9.95,0 19.42,-0.8 28.52,-2.49 -1.64,5.82 -2.06,15.29 -1.22,28.52l0 100.49c6.62,-4.13 16.51,-11.59 29.74,-22.33 1.7,4.97 4.55,9.89 8.68,14.87 -14.02,9.1 -30.58,20.69 -49.58,34.71 -5.77,-6.61 -10.32,-11.53 -13.65,-14.87 5.76,-1.64 8.67,-8.25 8.67,-19.84l0 -106.63 -18.57 0c-5.82,0 -15.29,0.37 -28.52,1.22l0 -14.87c4.13,0 10.32,0.42 18.57,1.22 4.98,0 8.26,0 9.95,0l7.41 0zm137.69 -13.66c-5.82,0 -14.87,0.43 -27.31,1.27l0 -14.87c3.34,0 9.1,0.37 17.36,1.22 4.97,0 8.31,0 9.95,0l17.35 0 0 -9.89c0,-0.85 -0.42,-4.19 -1.27,-9.95 0,-6.62 0,-11.59 0,-14.87 9.11,1.64 16.57,3.28 22.34,4.97 1.69,0.8 2.48,1.64 2.48,2.44 0,0.84 -0.79,2.06 -2.48,3.75 -4.93,3.28 -6.99,7.04 -6.2,11.17l0 12.38 13.66 0c1.64,0 5.76,0 12.38,0 7.46,-0.85 12.86,-1.22 16.14,-1.22l0 14.87c-7.46,-0.84 -16.93,-1.27 -28.52,-1.27l-13.66 0 0 37.26 22.34 0c1.64,0 5.76,0 12.38,0 6.61,-0.85 11.59,-1.27 14.92,-1.27l0 14.87c-6.61,-0.8 -15.72,-1.22 -27.3,-1.22l-59.54 0c-5.76,0 -14.87,0.42 -27.3,1.22l0 -14.87c3.33,0 9.1,0.42 17.41,1.27 4.92,0.79 8.25,0.79 9.89,0l22.33 0 0 -37.26 -17.35 0zm-13.65 145.15c0.84,-9.94 1.21,-16.98 1.21,-21.11l0 -28.52c0,-7.46 0,-14.45 0,-21.06 9.1,1.64 15.72,2.06 19.85,1.21l37.25 0c8.25,0.85 14.87,0.43 19.84,-1.21 -1.69,4.92 -2.11,11.96 -1.27,21.06l0 28.52c-0.84,4.97 -0.42,12.01 1.27,21.11 -7.46,-0.84 -14.07,-1.27 -19.84,-1.27l-37.25 0c-5.77,0 -12.81,0.43 -21.06,1.27zm62.01 -14.92l0 -40.9 -44.66 0 0 40.9 44.66 0z"/>
  <path class="fil39" d="M2998.32 3511.08c-60.42,0 -109.4,-48.98 -109.4,-109.4 0,-60.42 48.98,-109.4 109.4,-109.4 60.42,0 109.4,48.98 109.4,109.4 0,60.42 -48.98,109.4 -109.4,109.4z"/>
  <path class="fil12" d="M3330.83 3318.68l0 -22.33 -78.16 0c-1.64,0 -4.13,0.42 -7.41,1.22 -8.31,0 -14.92,0 -19.84,0l0 -13.6c3.28,0 9.1,0.37 17.36,1.21 4.97,0 8.25,0 9.89,0l171.19 0c12.38,0.85 21.48,0.43 27.25,-1.21l0 13.6c-3.28,0 -9.1,0 -17.36,0 -5.77,-0.8 -9.1,-1.22 -9.89,-1.22l-79.38 0 0 22.33 101.71 0c4.92,0.79 12.38,0.42 22.28,-1.27 -1.65,5.82 -2.07,13.23 -1.22,22.33l0 4.98c-0.85,5.76 -0.43,12.01 1.22,18.62l-17.36 0c0.85,-7.46 1.27,-13.65 1.27,-18.62l0 -13.66 -107.9 0 0 26.04c0,4.97 0,12.01 0,21.11 0.8,8.26 1.64,14.45 2.49,18.58l-17.41 0c0.85,-9.11 1.27,-22.33 1.27,-39.69l0 -26.04 -104.19 0 0 18.63c-0.85,7.41 -0.43,13.65 1.27,18.57l-17.41 0c0.84,-6.61 1.27,-12.8 1.27,-18.57l0 -9.95c0,-9.1 -0.43,-16.51 -1.27,-22.33 9.94,1.69 17.41,2.06 22.33,1.27l98 0zm-19.84 42.18l-68.21 0 0 -12.44 68.21 0 0 12.44zm127.74 -12.44l0 12.44 -68.21 0 0 -12.44 68.21 0zm-127.74 39.69l-68.21 0 0 -11.17 68.21 0 0 11.17zm127.74 0l-68.21 0 0 -11.17 68.21 0 0 11.17zm-234.42 147.58c19.84,-19.84 30.21,-43.39 31,-70.69l0 -33.45c0,-14.07 -0.42,-23.6 -1.21,-28.52 14.87,2.43 24.39,3.28 28.52,2.43l161.24 0c7.4,0 16.51,-0.79 27.25,-2.43l0 14.87c-6.62,-0.85 -15.72,-1.27 -27.25,-1.27l-173.68 0 0 49.64 182.35 0c11.54,0.79 20.64,0.42 27.26,-1.27l0 13.65c-3.28,0 -9.1,0 -17.36,0 -5.77,-0.8 -9.1,-1.22 -9.9,-1.22l-76.88 0c9.89,16.51 20.63,28.52 32.22,35.93 16.51,-8.25 30.59,-19.42 42.18,-33.44 0.79,1.64 2.48,4.13 4.97,7.41 2.44,3.33 4.55,5.39 6.19,6.19 1.64,1.69 2.07,2.91 1.22,3.75 0,0.8 -1.22,1.22 -3.7,1.22 -6.62,2.49 -11.17,4.98 -13.66,7.46 -9.1,6.62 -16.93,11.96 -23.54,16.14 23.12,9.05 45.03,15.3 65.72,18.58 -4.13,4.12 -6.19,9.52 -6.19,16.14 -61.17,-15.72 -101.71,-42.18 -121.55,-79.38l-43.39 0 0 55.83c4.92,-2.49 6.61,-3.34 4.92,-2.49 19.84,-6.61 35.13,-12.86 45.93,-18.63 0,5.77 0.79,9.95 2.43,12.39 -21.48,9.1 -42.97,19.47 -64.45,31.01 -4.13,-4.92 -8.31,-9.05 -12.44,-12.39 5.83,-7.46 9.11,-14.07 9.95,-19.84l0 -45.88 -33.49 0c-3.34,23.97 -13.23,46.3 -29.8,66.94 -4.92,-4.92 -9.89,-7.83 -14.86,-8.68zm93.02 -88.05c-5.77,0 -15.29,0.42 -28.52,1.27l0 -14.92c7.46,1.69 16.93,2.11 28.52,1.27l111.6 0c11.59,0.84 20.69,0.42 27.31,-1.27l0 14.92c-6.62,-0.85 -15.72,-1.27 -27.31,-1.27l-111.6 0zm322.73 -63.24c-4.13,-18.2 -9.95,-37.2 -17.36,-57.04l14.87 -6.19c7.41,19 13.66,38.42 18.58,58.26l-16.09 4.97zm6.19 148.86c-3.33,-4.18 -7.46,-7.04 -12.43,-8.73 19.05,-14.87 37.25,-36.36 54.61,-64.46 4.92,3.29 9.47,6.62 13.65,9.9 1.64,1.64 2.43,2.91 2.43,3.7 0,1.7 -1.21,2.49 -3.7,2.49 -1.64,0 -3.71,1.69 -6.19,4.98 -0.85,0.84 -1.64,1.64 -2.49,2.48 -16.51,21.49 -31.86,38.05 -45.88,49.64zm169.92 -9.95c-18.21,-22.33 -33.5,-40.11 -45.88,-53.34l12.38 -9.9c16.51,18.15 32.23,36.36 47.15,54.56l-13.65 8.68zm-71.97 -81.86l0 83.08c3.33,19.84 -10.74,29.37 -42.12,28.57 -1.69,-7.46 -4.98,-13.23 -9.95,-17.41 28.1,3.34 40.11,-1.21 35.98,-13.6l0 -80.64 -29.79 0c-13.23,0 -22.7,0.42 -28.52,1.27 0.85,-6.62 1.27,-16.14 1.27,-28.58l0 -26.03c0,-14.03 -0.42,-23.55 -1.27,-28.52 4.13,0 9.95,0.42 17.36,1.27 4.97,0 8.67,0 11.16,0l73.19 0c2.48,0 7.46,0 14.86,0 6.62,-0.85 11.17,-1.27 13.66,-1.27 0,2.48 -0.43,7.46 -1.22,14.87 -0.85,7.46 -0.85,12.01 0,13.65l0 26.03c0,2.49 0,6.62 0,12.44 0.79,8.25 1.22,13.65 1.22,16.14 -5.77,-0.85 -15.3,-1.27 -28.52,-1.27l-27.31 0zm2.49 -131.45c-17.36,-14.92 -31.38,-26.46 -42.18,-34.76l11.17 -11.12c12.43,8.26 26.88,19.85 43.44,34.72l-12.43 11.16zm-93.03 0c3.33,0 9.95,0.43 19.84,1.22 8.31,0 13.66,0 16.14,0l100.49 0c16.51,0.85 28.89,0.42 37.2,-1.22l0 16.09c-11.59,-0.79 -23.97,-1.64 -37.2,-2.43l-100.49 0c-8.25,0.79 -20.26,1.64 -35.98,2.43l0 -16.09zm-91.76 100.44c-4.97,-0.8 -10.32,-1.64 -16.14,-2.49 9.95,-28.1 16.14,-52.49 18.63,-73.18 4.13,0.84 9.52,1.69 16.14,2.48 1.64,0.85 2.86,2.07 3.7,3.76 0,0.8 -0.84,1.64 -2.48,2.49 -1.64,2.43 -2.91,6.19 -3.71,11.11 -4.13,18.2 -9.52,36.83 -16.14,55.83zm29.79 142.66c0.8,-11.59 1.22,-29.37 1.22,-53.34l0 -186.05c0,-27.31 -0.42,-44.24 -1.22,-50.86 10.75,2.49 18.58,4.13 23.55,4.98 3.28,1.64 3.71,4.13 1.22,7.41 -5.77,4.18 -8.26,9.52 -7.41,16.14l0 208.38c0,4.13 0,13.23 0,27.25 0.79,14.08 1.22,22.76 1.22,26.09l-18.58 0zm95.47 -179.86l0 54.56 95.51 0 0 -54.56 -95.51 0z"/>
  <path class="fil40" d="M7829.53 7239.79c0.84,-11.59 1.27,-29.37 1.27,-53.35l0 -179.86c0,-5.77 -0.43,-15.72 -1.27,-29.74 0,-9.95 0,-16.56 0,-19.84 10.74,2.49 18.62,4.13 23.6,4.97 1.64,0.8 2.48,2.07 2.48,3.71 0,0.84 -0.84,1.64 -2.48,2.48 -4.13,4.13 -6.25,9.48 -6.25,16.09l0 202.19c0,4.13 0,13.23 0,27.26 0.85,14.07 1.27,22.75 1.27,26.09l-18.62 0zm43.44 -191.03c-8.31,-12.39 -16.56,-23.55 -24.82,-33.5l11.17 -9.9c9.89,13.23 18.57,24.82 26.03,34.72l-12.38 8.68zm-88.05 39.68c6.61,-15.71 13.23,-39.68 19.84,-71.91 6.62,1.64 12.38,2.91 17.36,3.7 2.48,2.49 2.06,4.55 -1.27,6.19 -0.8,0 -2.07,2.07 -3.71,6.25 -4.12,19.84 -9.52,40.06 -16.14,60.75 -4.92,-1.64 -10.32,-3.34 -16.08,-4.98zm241.83 125.26l0 -109.12c0,-16.56 -0.43,-28.52 -1.27,-35.98 9.1,1.64 16.56,3.33 22.33,4.97 3.33,1.64 3.75,4.13 1.27,7.46 -4.98,1.65 -7.04,6.99 -6.19,16.09l0 120.33c0.79,15.72 -12.86,23.98 -40.96,24.82 -1.64,-6.61 -4.55,-13.23 -8.68,-19.84 23.97,3.28 35.14,0.37 33.5,-8.73zm-125.26 -48.37l47.1 0 0 -31.01 -47.1 0 0 31.01zm45.88 -126.47l38.42 0c12.43,0.79 21.54,0.42 27.3,-1.27l0 16.14c-6.61,-0.85 -15.71,-1.22 -27.3,-1.22l-38.42 0c-5.77,0 -14.87,0.37 -27.3,1.22l0 -16.14c7.46,1.69 16.56,2.06 27.3,1.27zm38.42 154.99c0.85,-7.41 1.27,-15.29 1.27,-23.54l0 -60.75c0,-10.75 -0.42,-18.63 -1.27,-23.6 13.23,2.48 20.69,3.75 22.33,3.75 3.33,1.64 3.76,3.71 1.27,6.19 -4.97,3.29 -7.04,7.41 -6.19,12.39l0 62.02c-0.85,6.61 -0.43,14.49 1.22,23.54l-18.63 0zm-37.2 -102.92l-47.1 0 0 31.01 47.1 0 0 -31.01zm-47.1 109.17c0,2.43 0,7.41 0,14.87 0.8,10.74 1.22,18.2 1.22,22.33l-18.57 0c0.79,-11.59 1.64,-23.97 2.43,-37.2l0 -94.3c-0.79,-9.9 -1.64,-19.42 -2.43,-28.52 3.28,0 9.04,0.42 17.35,1.27 5.77,0 9.9,0 12.38,0l22.34 0c1.64,0.79 6.61,0.79 14.87,0 7.46,-0.85 12.43,-1.27 14.86,-1.27 -1.64,8.31 -2.43,17.78 -2.43,28.52l0 111.65c0.79,13.23 -11.59,20.27 -37.25,21.07 0,-8.26 -2.44,-15.3 -7.41,-21.07 21.48,3.29 31.43,1.64 29.74,-4.97l0 -34.71 -47.1 0 0 22.33zm-27.3 -116.63c-4.98,-4.92 -10.32,-9.05 -16.14,-12.38 43.87,-28.1 76.94,-67.37 99.22,-117.8 1.69,0.8 4.97,2.07 9.94,3.71 3.29,0.79 5.77,1.22 7.47,1.22 1.64,0.84 2.43,2.06 2.43,3.75 0,1.64 -0.79,2.44 -2.43,2.44 -0.85,0.84 -1.27,1.27 -1.27,1.27 -0.85,0 -2.07,1.64 -3.71,4.97 26.46,35.56 62.02,61.6 106.63,78.11 -7.41,4.12 -11.96,8.67 -13.6,13.65 -44.66,-19.85 -78.58,-46.3 -101.71,-79.38 -29.79,43.82 -58.73,77.31 -86.83,100.44zm445.49 -57.05c16.56,-26.45 29.37,-50 38.47,-70.69 2.44,1.69 5.77,3.76 9.9,6.24 3.33,2.44 5.77,3.71 7.46,3.71 0.79,1.64 1.22,3.28 1.22,4.97 -0.8,0.79 -2.07,1.22 -3.71,1.22 -3.33,4.13 -7.46,9.52 -12.43,16.14 -9.05,14.02 -17.73,26.88 -26.04,38.41l12.44 0c14.02,0.85 23.54,0.43 28.52,-1.21 -1.69,4.97 -2.07,14.44 -1.27,28.52l0 42.17c-0.8,12.39 -0.42,21.91 1.27,28.53 -3.34,0 -7.04,0 -11.17,0 -3.33,-0.85 -8.25,-1.27 -14.87,-1.27l-6.24 0 0 80.64c-0.79,11.59 4.13,17.36 14.92,17.36l16.09 0c8.31,0.85 15.29,-7.83 21.11,-26.04 3.28,3.28 9.1,5.35 17.36,6.19 -10.74,23.98 -22.76,35.14 -35.98,33.5l-23.55 0c-15.72,-1.64 -24.4,-10.32 -26.04,-26.03l0 -85.62 -34.76 0c-3.28,42.17 -9.48,69.9 -18.58,83.13 -7.46,12.38 -26.03,26.46 -55.82,42.17 -4.13,-7.46 -8.26,-12.8 -12.39,-16.14 28.95,-10.74 46.73,-21.06 53.34,-31.01 8.26,-10.74 14.45,-36.77 18.58,-78.15l-3.71 0c-9.1,0 -17.78,0.42 -26.03,1.27 0.79,-6.62 1.21,-16.14 1.21,-28.53l0 -42.17c0,-2.49 -0.42,-7.46 -1.21,-14.87 0,-6.61 0,-11.17 0,-13.65 6.61,1.64 16.08,2.06 28.52,1.21l43.39 0zm-156.26 -32.22c-0.85,-9.95 -1.64,-21.91 -2.49,-35.98 9.1,1.69 16.93,3.33 23.55,4.97 3.33,1.64 3.33,4.13 0,7.46 -4.92,2.49 -6.99,7.83 -6.19,16.09l0 225.74c0,0.85 0,5.77 0,14.87 0.84,11.59 1.27,19.42 1.27,23.6l-18.63 0c0.85,-15.72 1.64,-28.52 2.49,-38.47l0 -218.28zm49.58 91.76c-5.77,-18.15 -13.23,-38.84 -22.28,-62.02l14.87 -6.19c0.8,3.33 2.07,7.03 3.71,11.16 8.25,23.18 14.5,40.11 18.62,50.85l-14.92 6.2zm-81.81 21.11c-4.97,-1.64 -10.37,-2.06 -16.14,-1.27 7.41,-23.97 12.81,-49.16 16.14,-75.62 5.77,1.64 11.11,2.86 16.09,3.71 2.49,1.64 2.49,3.7 0,6.19 -1.64,1.64 -3.28,6.19 -4.98,13.65 0,1.64 0,2.91 0,3.7 -1.64,7.47 -4.12,17.36 -7.4,29.8 -1.64,8.25 -2.91,14.87 -3.71,19.84zm150.02 -89.32c-11.53,-15.72 -24.34,-31.81 -38.42,-48.37l12.39 -9.89c13.23,15.71 26.03,31.37 38.47,47.09l-12.44 11.17zm76.94 22.33l-93.03 0 0 69.48 93.03 0 0 -69.48z"/>
  <path class="fil41" d="M7598.32 7211.08c-60.42,0 -109.4,-48.98 -109.4,-109.4 0,-60.42 48.98,-109.4 109.4,-109.4 60.42,0 109.4,48.98 109.4,109.4 0,60.42 -48.98,109.4 -109.4,109.4z"/>
 </g>
</svg>
