<?xml version="1.0" encoding="UTF-8"?>
<!DOCTYPE svg PUBLIC "-//W3C//DTD SVG 1.1//EN" "http://www.w3.org/Graphics/SVG/1.1/DTD/svg11.dtd">
<!-- Creator: CorelDRAW -->
<svg xmlns="http://www.w3.org/2000/svg" xml:space="preserve" width="100mm" height="100mm" version="1.1" style="shape-rendering:geometricPrecision; text-rendering:geometricPrecision; image-rendering:optimizeQuality; fill-rule:evenodd; clip-rule:evenodd"
viewBox="0 0 100000 100000"
 xmlns:xlink="http://www.w3.org/1999/xlink"
 xmlns:xodm="http://www.corel.com/coreldraw/odm/2003">
 <defs>
  <style type="text/css">
   <![CDATA[
    .str0 {stroke:white;stroke-width:176.4;stroke-miterlimit:22.9256}
    .fil0 {fill:none}
    .fil1 {fill:white}
    .fil5 {fill:#F5B4B4}
    .fil3 {fill:#F6B06F}
    .fil24 {fill:#D07772}
    .fil17 {fill:#F08863}
    .fil21 {fill:#F08742}
    .fil13 {fill:#F0861B}
    .fil7 {fill:#E6232A}
    .fil25 {fill:#CA559A}
    .fil9 {fill:#B04B87}
    .fil15 {fill:#A1D9F7}
    .fil19 {fill:#57ABB7}
    .fil27 {fill:#00A3E9}
    .fil11 {fill:#009C4D}
    .fil2 {fill:white;fill-rule:nonzero}
    .fil6 {fill:#F5B4B4;fill-rule:nonzero}
    .fil4 {fill:#F6B06F;fill-rule:nonzero}
    .fil23 {fill:#D07772;fill-rule:nonzero}
    .fil18 {fill:#F08863;fill-rule:nonzero}
    .fil22 {fill:#F08742;fill-rule:nonzero}
    .fil14 {fill:#F0861B;fill-rule:nonzero}
    .fil8 {fill:#E6232A;fill-rule:nonzero}
    .fil26 {fill:#CA559A;fill-rule:nonzero}
    .fil10 {fill:#B04B87;fill-rule:nonzero}
    .fil16 {fill:#A1D9F7;fill-rule:nonzero}
    .fil20 {fill:#57ABB7;fill-rule:nonzero}
    .fil28 {fill:#00A3E9;fill-rule:nonzero}
    .fil12 {fill:#009C4D;fill-rule:nonzero}
   ]]>
  </style>
 </defs>
 <g id="圖層_x0020_1">
  <metadata id="CorelCorpID_0Corel-Layer"/>
  <line class="fil0 str0" x1="-2.3" y1="50002.5" x2="99997.7" y2= "50002.5" />
  <line class="fil0 str0" x1="49997.7" y1="100002.5" x2="49997.8" y2= "2.5" />
  <path class="fil1" d="M49997.7 51096.5c-604.2,0 -1094,-489.8 -1094,-1094 0,-604.2 489.8,-1094 1094,-1094 604.2,0 1094,489.8 1094,1094 0,604.2 -489.8,1094 -1094,1094z"/>
  <path class="fil2" d="M42502.2 45720.3c57.6,24.8 198.4,33.3 421.2,24.8l1364.7 0c190,8.5 322.3,0 396.9,-24.8l0 273c-24.9,-8.4 -62.5,-12.7 -111.7,-12.7 -33.3,-7.9 -128.6,-12.1 -285.2,-12.1l-546.1 0 0 1165.7 768.9 0c165.6,0 310.1,-8.5 434.4,-24.9l0 285.3c-58.2,-8 -124.3,-16.4 -198.4,-24.9 -83.1,0 -165.6,-4.2 -248.2,-12.2l-756.7 0 0 607.5c0,149.2 8.5,285.2 24.9,409.6l-310.1 0c8.4,-107.4 16.4,-244 24.8,-409.6l0 -595.3 -818.6 0c-189.9,8.5 -334.9,16.9 -433.9,24.9l0 -285.3c107.4,16.4 248.2,24.9 421.8,24.9l830.7 0 0 -1165.7 -558.2 0c-198.5,0 -338.7,7.9 -421.2,24.8l0 -273zm1847.8 496.3l260.4 136c-132.3,273.1 -260.4,492.2 -384.7,657.8 -57.7,-58.2 -132.3,-111.7 -223.4,-161.4 149.3,-190 264.6,-401.1 347.7,-632.4zm-1451 12.2c66.2,206.9 160.9,409.1 285.3,607.5l-273.1 124.3c-91,-182 -182,-384.7 -273,-608l260.8 -123.8zm3214.6 -669.9c190,8.4 285.2,20.6 285.2,37.6 0,16.4 -8.4,37 -24.8,61.9 -8.5,32.8 -12.7,66.1 -12.7,98.9l0 111.7 111.6 0c124.4,0 264.6,-8 421.8,-24.9l0 223.3c-74.1,-7.9 -210.6,-12.2 -409.1,-12.2l-124.3 0 0 173.6 87.3 0c140.2,8.5 243.4,4.2 309.5,-12.2l0 210.6c-49.2,-8.4 -156.6,-12.1 -322.2,-12.1l-86.8 0 0 185.7 161.4 0c66.1,0 148.7,0 247.6,0 58.2,-7.9 103.8,-12.2 136.6,-12.2l0 210.6c-24.9,8.5 -70.4,8.5 -136.6,0 -74,0 -160.8,-4.2 -260.3,-12.1l-607.5 0c-190.5,7.9 -318.6,12.1 -384.7,12.1l0 -210.6c91,8 223.3,12.2 396.9,12.2l223.3 0 0 -185.7 -99 0c-99.5,0 -173.5,3.7 -223.3,12.1 -49.7,0 -95.2,0 -136.5,0l0 -210.6c24.9,0 66.1,3.7 123.8,12.2 83.1,8.5 152.9,8.5 211.2,0l123.8 0 0 -173.6 -161.4 0c-123.8,0 -210.6,4.3 -260.4,12.2 -57.6,0 -103.2,0 -136.5,0l0 -210.6c33.3,0 87.3,4.2 161.4,12.2 91,0 165.6,0 223.3,0l173.6 0 0 -111.7c-8,-41.3 -12.2,-107.4 -12.2,-198.4zm1153.1 -12.2c223.3,57.7 330.7,99 322.8,123.8 -8.5,8.5 -16.4,20.7 -24.9,37.6 -57.7,49.2 -111.7,115.4 -161.4,198.4l310.1 0c33.3,0 95.2,0 186.2,0 91.1,-8.4 153,-12.7 185.8,-12.7 16.9,0 20.6,8.5 12.7,24.9 -41.3,66.2 -83.1,132.3 -124.4,198.5 -49.2,99.4 -111.6,206.9 -185.7,322.2l173.6 0c132.3,8.5 227.5,4.2 285.2,-12.2 -16.4,91.1 -20.7,206.9 -12.2,347.2l0 161.4c32.8,0 94.7,-4.3 185.7,-12.2l0 222.8c-82.5,0 -144.4,-3.7 -185.7,-12.2l0 223.3c0,49.8 3.7,190 12.2,421.8l-260.4 0c0,-41.3 4.3,-83.1 12.2,-124.4l-322.3 0 0 446.6c0,115.9 -29.1,190.5 -86.7,223.3 -49.8,41.3 -190.5,78.4 -421.8,111.7 -16.4,-107.4 -57.7,-210.6 -123.8,-310.1 281,49.7 413.3,16.4 396.9,-99.5l0 -372 -124.4 0c-173.6,0 -285.2,4.2 -335,12.7l0 -198.4c83.1,0 190.5,0 322.8,0l136.6 0 0 -335 -161.4 0c-173.6,0 -293.7,4.2 -359.9,12.2l0 -222.8c58.2,24.3 177.8,32.8 359.9,24.3l161.4 0 0 -322.2 -62.5 0c-173.5,0 -276.7,4.2 -310.1,12.2l0 -173.6 -98.9 149.2 -161.4 -211.1c190.5,-206.4 343.4,-492.2 458.8,-855.7zm49.7 545.6c-91,148.7 -165.1,260.3 -223.3,334.9 24.9,0 78.8,4.3 161.4,12.2 66.1,0 111.6,0 136.5,0l148.7 0c33.4,-57.7 82.6,-148.7 148.7,-272.5 8.5,-16.4 20.6,-41.3 37.6,-74.6l-409.6 0zm359.8 533.4l0 322.2 322.3 0 0 -322.2 -322.3 0zm-1736.2 508.5l0 173.6 582.7 0 0 -173.6 -582.7 0zm1736.2 0l0 335 322.3 0 0 -335 -322.3 0zm-1736.2 335l0 210.6 582.7 0 0 -210.6 -582.7 0zm-260.8 -545.6c99.4,16.4 198.4,24.3 297.9,24.3l520.7 0c91,0 186.3,-7.9 285.2,-24.3 -16.4,82.6 -24.9,156.6 -24.9,222.8l0 943c0,115.3 -24.3,185.7 -74,210.6 -41.3,41.2 -161.4,78.8 -359.9,111.6 -7.9,-123.8 -45.5,-219.1 -111.6,-285.2 8.4,0 20.6,0 37.5,0 198.5,16.4 289,-20.6 272.6,-111.7l0 -173.5 -582.7 0 0 297.4c0,83.1 3.7,169.8 12.2,260.9l-273 0c0,-49.8 0,-99.5 0,-149.3 0,-49.2 4.2,-90.5 12.7,-123.8l0 -980c-8.5,-24.4 -12.7,-57.7 -12.7,-99 0,-41.2 0,-82.5 0,-123.8z"/>
  <path class="fil3" d="M99983.2 27610.8c-604.2,0 -1094,-489.8 -1094,-1094 0,-604.2 489.8,-1094 1094,-1094 604.2,0 1094,489.8 1094,1094 0,604.2 -489.8,1094 -1094,1094z"/>
  <path class="fil4" d="M93811.4 24961.9c107.4,8.4 194.2,12.7 260.3,12.7 66.2,7.9 103.2,16.4 111.7,24.9 0,7.9 -8.5,16.4 -24.9,24.8 -33.3,49.2 -45.5,90.5 -37,123.8 -8.5,99 -12.7,219.1 -12.7,359.9l372 0c132.3,0 248.1,-8.5 347.1,-24.9 -49.2,322.3 -74.1,636.6 -74.1,942.5 140.2,8.4 244,0 310.1,-24.9l0 285.2c-66.1,-16.4 -177.8,-24.9 -335,-24.9l-471.4 0c115.8,480 393.1,773.1 831.3,880.6 -99.5,49.7 -194.8,145 -285.2,285.7 -438.7,-256.6 -694.8,-653.5 -769.5,-1191.1 -107.4,546.1 -375.7,942.9 -805.9,1191.1 -91,-107.9 -189.9,-177.8 -297.4,-211.1 429.7,-107.4 710.7,-426 843,-955.2l-185.7 0c-190.5,8.5 -330.8,17 -421.8,24.9l0 -285.2c115.9,24.9 256.1,33.3 421.8,24.9l210.6 0c16.4,-165.1 33.3,-392.7 49.7,-682.1l-99.5 0c-181.5,0 -310.1,8.4 -384.1,24.8l0 -260.3c0,0 16.4,3.7 49.7,12.2 57.7,8.4 169.3,12.7 334.4,12.7l99.5 0c0,-281.6 -12.7,-471.5 -37,-571zm-1190.7 24.9c231.3,0 351.4,8.4 359.3,24.8 0,8.5 -4.2,16.4 -12.1,24.9 -41.3,74.6 -61.9,186.3 -61.9,335l0 2046.2c-8.5,231.8 0,372.1 24.8,421.8l-310.1 0c8,-41.3 12.2,-91 12.2,-148.7 8.5,-49.7 12.2,-140.8 12.2,-273.1l0 -2021.4c0,-206.9 -8,-343.4 -24.4,-409.5zm545.6 595.3c107.4,173.5 194.2,347.6 260.4,521.2l-273.1 123.8c-49.2,-198.4 -123.8,-376.2 -222.8,-533.4l235.5 -111.6zm-930.3 49.7c16.4,8.5 62,16.4 136.6,24.9 107.4,8.4 165.1,12.1 173.5,12.1 0,8.5 -4.2,20.7 -12.1,37.6 -24.9,49.2 -62.5,334.5 -111.7,855.7 -124.3,-8.5 -223.3,-16.4 -297.9,-24.9 33.3,-91 57.7,-214.8 74.6,-372 24.9,-148.7 37,-326.5 37,-533.4zm2282.3 111.7l-421.7 0c-8.5,206.9 -24.9,413.2 -49.8,620.1 0,32.9 0,53.5 0,62l446.7 0c0,-91.1 0,-198.5 0,-322.3 7.9,-132.3 16.4,-252.4 24.8,-359.8zm3338.4 -768.9c8.5,24.9 16.4,45.5 24.9,61.9 115.9,165.6 165.1,256.1 148.7,273 -7.9,16.4 -28.6,20.7 -61.9,12.2 -99,-8.5 -214.9,-8.5 -347.1,0 -16.4,8.5 -37.6,12.7 -62,12.7 -653.5,32.8 -1095.9,49.2 -1327.1,49.2 -66.2,480 -99.5,719.7 -99.5,719.7l781.6 0 0 -260.9c-8.5,-173.6 -16.4,-288.9 -24.9,-347.1 24.9,8.4 32.8,12.7 24.9,12.7 223.3,7.9 335,24.9 335,49.2 0,16.9 -8.5,33.3 -24.9,49.7 -33.4,41.3 -49.8,95.3 -49.8,161.4l0 335 645.1 0c214.8,0 342.9,-8.5 384.2,-24.9l0 285.2c-24.9,-8.4 -69.9,-16.4 -136,-24.8 -74.6,-8.5 -157.2,-16.4 -248.2,-24.9l-645.1 0 0 1165.8c24.9,231.7 -140.7,343.4 -495.8,334.9 -33.3,-140.7 -91,-256.1 -174.1,-347.1 289.5,82.5 426,32.8 409.6,-148.7l0 -1004.9 -620.2 0c-99.5,0 -227.5,20.6 -384.7,61.9l-86.8 -223.3c33.4,-16.4 66.2,-69.8 99.5,-160.9 24.9,-132.3 41.3,-260.3 49.7,-384.7 8,-115.9 12.2,-272.5 12.2,-470.9 314.3,32.8 665.7,32.8 1054.1,0 364.1,-33.4 636.6,-87.3 818.6,-161.4zm-1512.9 1574.8l310.1 198.4c-355.6,389 -628.6,649.3 -818.6,781.6 -99.5,-66.1 -198.4,-120.1 -297.9,-161.4 339.2,-190 608,-463 806.4,-818.6zm1252.6 24.9c273,215.3 524.9,450.8 756.7,706.9l-297.9 173.6c-148.7,-239.7 -372,-479.4 -670,-719.2l211.2 -161.3z"/>
  <path class="fil5" d="M22483.2 67810.8c-604.2,0 -1094,-489.8 -1094,-1094 0,-604.2 489.8,-1094 1094,-1094 604.2,0 1094,489.8 1094,1094 0,604.2 -489.8,1094 -1094,1094z"/>
  <path class="fil6" d="M25859.4 65227.3c16.4,7.9 37,12.1 61.9,12.1 165.6,16.4 248.1,29.1 248.1,37.1 0,8.4 -8.4,21.1 -24.8,37.5 -24.9,32.8 -37.1,74.1 -37.1,123.9l0 99.4 384.2 0c330.7,8 504.3,0 521.2,-24.8l0 272.5c-24.8,-7.9 -74.6,-16.4 -149.2,-24.3 -57.7,-8.5 -181.5,-12.7 -372,-12.7l-384.2 0 0 297.9 372 0c256.2,7.9 392.7,0 409.1,-24.9l0 260.4c-57.7,-24.9 -194.2,-37.1 -409.1,-37.1l-372 0 0 310.1 446.1 0c264.6,0 430.2,-16.9 496.4,-49.7l0 285.2c-41.3,-24.9 -206.9,-37.1 -496.4,-37.1l-446.1 0c0,90.5 8,153 24.9,185.8l-285.2 0c16.4,-41.3 24.3,-194.2 24.3,-458.8l0 -917.6c-7.9,-49.7 -12.1,-103.7 -12.1,-161.4 0,-58.2 0,-115.9 0,-173.5zm-632.4 24.8c214.8,8 330.7,20.7 347.1,37.1 -8.4,8.4 -16.4,16.4 -24.8,24.8 -24.9,49.8 -37.1,107.5 -37.1,173.6l0 967.3c0,239.7 8,413.3 24.9,520.7l-297.9 0c8.4,-49.2 16.4,-123.8 24.8,-222.8l-384.7 0c-239.7,0 -396.8,12.2 -470.9,37.1l0 -260.4c57.7,16.4 210.6,24.9 458.8,24.9l396.8 0 0 -297.9 -260.3 0c-206.9,0 -364.1,8.4 -471.5,24.9l0 -248.2c58.2,24.8 214.8,33.3 471.5,24.8l260.3 0 0 -297.3 -384.7 0c-173.5,0 -285.2,3.7 -334.4,12.1 -58.2,8.5 -99.5,16.4 -124.3,24.9l0 -273.1c49.7,24.9 202.6,33.4 458.7,24.9l372.6 0c-8.5,-157.1 -17,-256.1 -24.9,-297.4zm582.6 1736.2c107.4,157.2 190.5,310.1 248.2,458.8l-235.5 99.5c-74.6,-190.5 -149.2,-351.9 -223.3,-484.2l210.6 -74.1zm868.4 12.2c123.8,107.4 289.4,297.9 495.8,570.4l-247.6 161.4c-140.8,-231.2 -298,-426 -471.5,-582.6l223.3 -149.2zm-1624.6 99.5c198.5,7.9 305.9,20.6 322.3,37 0,8.5 -8.5,20.7 -24.9,37.1 -24.8,41.8 -37,86.7 -37,136.5l0 285.2c-33.4,140.8 32.8,202.7 198.4,186.3l433.9 0c231.8,16.4 351.4,-103.2 359.9,-359.9 82.5,99.5 181.5,153 297.4,161.4 -74.1,314.4 -256.2,458.8 -545.6,434l-632.4 0c-281.5,24.8 -401.1,-78.4 -359.8,-310.1l0 -409.1c0,-91 -4.2,-157.2 -12.2,-198.4zm-496.3 24.8c132.3,24.9 227.5,49.3 285.2,74.1 0,8.5 -8.5,17 -24.9,24.9 -24.8,24.9 -41.2,54 -49.7,86.8 -24.4,99.5 -74.1,264.6 -148.7,496.3 -7.9,16.4 -12.2,32.9 -12.2,49.8 -16.4,-8.5 -33.3,-16.9 -49.7,-24.9 -107.4,-41.3 -182.1,-58.2 -223.3,-49.7 115.9,-198.5 190.5,-417.5 223.3,-657.3zm4541.7 -1947.3c206.9,66.2 310.1,107.4 310.1,123.8 0,8.5 -8.5,20.7 -24.9,37.6 -32.8,24.9 -53.4,45.5 -61.9,61.9 -99.5,140.2 -161.4,239.7 -186.3,297.4l893.3 0c256.1,0 404.8,-12.2 446.6,-37l0 273c-8.5,0 -12.7,0 -12.7,0 -91,-8.4 -227.5,-12.7 -409.1,-12.7l-1017 0c-140.8,239.7 -239.7,389 -297.9,446.6 -74.1,-49.7 -169.4,-86.7 -285.3,-111.6 264.6,-239.7 480,-599.6 645.1,-1079zm-830.8 12.2c206.4,66.1 330.7,120.1 372,161.4 0,8.4 -12.7,20.6 -37,37 -41.8,24.9 -70.4,54 -87.3,86.8 -16.4,24.9 -32.8,54 -49.3,87.3 -91,198.5 -149.2,313.8 -173.5,347.1l0 1574.8c-8.5,190.5 -8.5,327.1 0,409.6 7.9,91 20.6,148.7 37,173.6l-322.2 0c7.9,-24.9 16.4,-91 24.3,-198.4 0,-91.1 4.2,-223.4 12.7,-396.9l0 -1128.7c-33.3,82.5 -103.2,198.4 -211.1,347.1 -16.4,33.3 -32.8,62.4 -49.2,86.8 -83.1,-82.6 -153,-156.7 -211.2,-222.8 330.7,-330.7 562.5,-785.8 694.8,-1364.7zm1017.1 843.5c165.1,8.4 276.7,20.6 334.4,37 0,8.5 -7.9,21.2 -24.3,37.6 -24.9,32.8 -37.6,70.4 -37.6,111.6 -16.4,41.3 -20.6,132.3 -12.2,272.6l235.5 0c256.1,0 433.9,-12.2 533.4,-37.1 -24.9,148.7 -45.5,318.6 -61.9,508.5 -49.8,487.9 -83.1,760.5 -99.5,818.7 -41.3,140.7 -210.6,227.5 -508.5,260.3 0,-148.7 -53.5,-256.1 -160.9,-322.2 214.8,41.2 355.1,28.5 421.2,-37.6 41.8,-107.4 83.1,-433.9 124.4,-979.5l-508.6 0c-66.1,620.2 -347.1,1074.7 -843.4,1364.2 -66.2,-99.5 -169.4,-165.6 -310.1,-198.4 529.1,-182.1 831.3,-570.5 905.4,-1165.8l-198.5 0c-248.1,7.9 -404.8,16.4 -470.9,24.9l0 -260.9c41.2,24.9 198.4,33.3 470.9,24.9l211.2 0c0,-223.3 0,-376.3 0,-458.8z"/>
  <path class="fil7" d="M11983.2 18110.8c-604.2,0 -1094,-489.8 -1094,-1094 0,-604.2 489.8,-1094 1094,-1094 604.2,0 1094,489.8 1094,1094 0,604.2 -489.8,1094 -1094,1094z"/>
  <path class="fil8" d="M6519 12631.6c157.1,8.4 264.6,20.6 322.2,37.6 0,7.9 -8.4,20.6 -24.8,37 -32.8,57.7 -49.8,115.9 -49.8,173.6l0 1997c0,289 8.5,475.2 24.9,557.8 -99,-16.4 -198.4,-16.4 -297.4,0 7.9,-32.8 16.4,-99 24.9,-198.5 0,-91 4.2,-206.3 12.1,-347.1l0 -1785.9c-7.9,-157.2 -12.1,-276.8 -12.1,-359.9 -8.5,-57.6 -8.5,-94.7 0,-111.6zm1302.3 0c32.8,8.4 86.7,12.7 160.8,12.7 99.5,7.9 149.2,12.2 149.2,12.2 0,8.4 -4.2,20.6 -12.7,37.5 -24.8,41.3 -37,86.8 -37,136l0 124.4 285.2 0c157.2,7.9 268.8,7.9 335,0 74.1,-8.5 132.3,-20.7 173.6,-37.6l0 273.1c-24.9,-8.5 -70.4,-12.2 -136.6,-12.2 -57.7,-8.5 -177.8,-12.7 -359.8,-12.7l-297.4 0c0,24.9 -4.2,54 -12.7,86.8 0,83 8.5,132.3 24.9,149.2l-285.2 0c16.4,-24.9 24.8,-103.7 24.8,-236l-223.3 0c-115.9,8.4 -219.1,12.7 -310.1,12.7 -82.5,7.9 -140.2,16.4 -173.5,24.9l0 -285.8c41.2,16.9 99.4,29.1 173.5,37.6 74.6,7.9 173.6,7.9 297.9,0l235.5 0c-8.4,-115.9 -12.1,-211.2 -12.1,-285.2 0,-17 0,-29.2 0,-37.6zm-1687 608c223.3,24.9 322.8,37 297.9,37 0,8.5 -8.5,24.9 -24.9,49.8 -16.4,57.7 -24.9,103.2 -24.9,136.5 0,132.3 -20.6,338.7 -61.9,620.2 -58.2,-16.9 -149.2,-20.7 -273,-12.7 74.6,-223.3 103.2,-500.1 86.8,-830.8zm1054.1 805.9c49.7,24.9 248.1,33.4 595.3,24.9l396.9 0c314.3,8.5 492.1,0 533.4,-24.9 -32.9,41.3 -45.6,206.9 -37.1,496.4 0,223.3 8,363.5 24.9,421.7l-297.9 0c8.4,-33.3 12.7,-74.6 12.7,-124.3 7.9,-41.3 12.1,-132.3 12.1,-272.6l0 -310 -992.2 0 0 334.9c-8.4,247.7 -4.2,372 12.7,372l-273 0c24.9,-41.3 37,-182 37,-421.7 0,-264.6 -7.9,-430.2 -24.8,-496.4zm620.2 347.7c198.4,32.8 310,57.7 334.9,74.1 0,8.4 -8.5,20.6 -24.9,37 -32.8,33.3 -49.7,58.2 -49.7,74.6 -66.1,471.5 -392.6,764.7 -979.5,880.6 -41.3,-74.1 -103.2,-144.5 -186.3,-210.7 -7.9,-16.4 -20.6,-29.1 -37,-37.5 661.5,8.4 975.8,-264.6 942.5,-818.1zm347.1 483.6c182,99 421.7,235.5 719.7,409.1l-223.4 223.3c-223.3,-198.4 -446.6,-343.4 -669.9,-433.9l173.6 -198.5zm-1364.2 -1625l211.1 -61.9c0,0 45.5,115.8 136.6,347.1 41.2,24.9 123.8,33.3 247.6,24.9 0,-41.3 -3.7,-99 -12.2,-173.6 -8.4,-49.8 -8.4,-86.8 0,-111.7 49.8,16.4 115.9,24.9 198.5,24.9 57.7,8.5 91,12.2 98.9,12.2 0,8.4 -7.9,21.1 -24.3,37.5 -16.9,32.9 -24.9,66.2 -24.9,99l0 111.7 657.2 0c-8.4,-66.2 -12.7,-128.1 -12.7,-185.8 0,-49.7 0,-86.8 0,-111.6 74.7,16.4 132.3,24.8 174.1,24.8 74.1,8 111.2,12.2 111.2,12.2 0,8.5 -3.7,20.6 -12.2,37 -16.4,41.3 -24.9,74.7 -24.9,99.5l0 123.9c231.8,0 376.3,-12.2 433.9,-37.1l0 273.1c-24.3,-8.5 -69.8,-12.7 -136,-12.7 -49.7,-8.5 -149.2,-12.2 -297.9,-12.2 -7.9,91 -4.2,165.1 12.7,223.3l-273 0c8.4,-49.7 16.4,-124.4 24.8,-223.3l-657.2 0c-8.5,91 -4.2,157.2 12.2,198.4l-273.1 0c17,-24.8 24.9,-91 24.9,-198.4 -74.1,0 -119.6,3.7 -136,12.2 -24.9,0 -70.4,4.2 -136.5,12.7l0 -111.7 -173.6 61.9c-24.9,-107.4 -74.6,-273 -149.2,-496.3zm3301.9 -570.5c198.4,24.9 301.6,45.5 310.1,61.9 0,8.5 -12.7,24.9 -37.6,49.8 -24.9,24.8 -41.3,49.7 -49.7,74.6 -16.4,32.8 -49.3,107.4 -99,223.3 198.4,0 413.3,-12.7 645.1,-37.6 -33.4,248.2 -120.2,521.3 -260.4,818.6 49.2,33.4 156.6,91.1 322.3,173.6l-173.6 236c-8.5,0 -16.4,0 -24.9,0 -123.8,-115.9 -214.8,-182 -273,-198.4 -173.6,165.1 -433.9,310.1 -781.1,433.9 -16.9,-33.3 -70.3,-99.5 -161.4,-198.4 -8.4,-16.4 -12.1,-29.1 -12.1,-37.1 288.9,-41.8 541.3,-145 756.1,-310.1 -123.8,-58.2 -293.1,-132.3 -508.5,-223.3 33.4,-82.5 58.2,-140.7 74.6,-173.5 32.8,-58.3 70.4,-145 111.7,-260.9 -173.6,0 -281,4.2 -322.3,12.7 -49.7,0 -87.3,4.2 -111.6,12.1l0 -260.3c16.4,16.4 181.5,20.6 495.8,12.7 0,-8.5 4.2,-24.9 12.7,-49.7 49.2,-165.7 78.3,-285.3 86.8,-359.9zm880.5 223.3c82.6,24.9 276.8,33.4 582.6,24.9 314.4,0 529.2,-8.5 645.1,-24.9 -123.8,405.4 -276.8,739.8 -458.8,1004.4 198.4,107.9 396.9,182 595.3,223.3 -107.4,115.9 -169.9,202.7 -186.3,260.9 -206.3,-83.1 -396.8,-186.3 -570.4,-310.1 -99,98.9 -264.6,210.6 -495.8,334.4 -49.8,-82.5 -124.4,-152.9 -223.3,-210.6 231.2,-66.1 413.2,-161.4 545.5,-285.2 -123.8,-140.8 -243.9,-339.2 -359.8,-595.3l260.3 -37.1c58.3,206.4 140.8,363.6 248.2,471 107.4,-148.7 206.9,-351.4 297.9,-607.5l-372 0c-289.4,0 -459.3,7.9 -508.5,24.9l0 -273.1zm-396.9 396.9l-421.7 0 -124.4 347.1 372.6 149.3c66.1,-124.4 123.8,-289.5 173.5,-496.4zm409.1 1128.7c33.3,57.7 82.5,173.6 148.7,347.2 8.4,24.8 20.6,49.7 37.6,74.6l-248.2 86.7c-66.2,-206.9 -123.9,-355.6 -173.6,-446.6l235.5 -61.9zm868.3 99c148.7,182 297.4,401.1 446.1,657.7l-260.3 123.9c-82.6,-190 -227,-417.6 -433.9,-682.1l248.1 -99.5zm-1562.6 86.8c173.6,16.9 276.8,33.3 310.1,49.7 0,8.5 -8.5,20.6 -24.9,37 -24.8,49.8 -37.5,99.5 -37.5,149.3l0 223.3c-16.4,98.9 37.5,148.7 161.4,148.7l409 0c190.5,24.8 285.8,-91 285.8,-347.2 82.5,90.5 177.2,148.7 285.2,173.6 -66.2,305.9 -231.8,442.4 -496.4,409.1l-508.5 0c-272.5,8.4 -396.9,-82.6 -372,-272.6l0 -260.9 -12.2 -310zm-483.6 12.7c165.1,41.2 256.1,66.1 272.5,74 0,8.5 -4.3,17 -12.2,24.9 -24.9,33.3 -45.5,74.6 -61.9,124.4 -24.9,49.2 -54,123.8 -87.3,223.3 -41.3,115.3 -69.9,202.1 -86.8,260.3 -32.8,-16.4 -82.5,-29.1 -148.7,-37 -49.7,-8.5 -95.2,-16.9 -136.5,-24.9 115.9,-140.7 202.7,-355.6 260.9,-645z"/>
  <path class="fil9" d="M13983.2 19110.8c-604.2,0 -1094,-489.8 -1094,-1094 0,-604.2 489.8,-1094 1094,-1094 604.2,0 1094,489.8 1094,1094 0,604.2 -489.8,1094 -1094,1094z"/>
  <path class="fil10" d="M16895.5 18291.1c49.7,132.3 82.5,243.9 99.5,334.9l582.6 0c314.3,0 504.3,-7.9 570.4,-24.8 -16.4,41.2 -20.6,140.7 -12.1,297.9 -8.5,182 0,281 24.8,297.4l-322.8 0c17,-66.2 24.9,-185.8 24.9,-359.3l-2120.9 0c-7.9,272.5 0,409 24.9,409l-297.4 0c7.9,-41.2 16.4,-144.4 24.9,-310.1 0,-173.5 -8.5,-285.2 -24.9,-334.9 49.7,24.8 235.5,33.3 557.7,24.8l669.9 0c-32.8,-115.8 -74.6,-219 -123.8,-310l322.3 -24.9zm-223.3 632.9c173.5,7.9 273,16.4 297.9,24.8 0,8 -4.2,16.4 -12.7,24.4 -16.4,41.8 -24.9,91 -24.9,149.2l211.2 0c248.1,0 417.5,-12.7 508.5,-37.6l0 236c-82.6,-16.9 -248.2,-24.8 -496.4,-24.8l-223.3 0 0 185.7 322.8 0c322.3,8.5 495.8,0 520.7,-24.3l0 247.6c-32.8,-7.9 -86.8,-12.2 -161.4,-12.2 -66.1,-8.4 -177.2,-12.7 -334.4,-12.7l-347.7 0 0 186.3 657.8 0c313.8,8.5 508.5,0 582.6,-24.9l0 260.4c-41.3,-7.9 -95.3,-12.2 -161.4,-12.2 -41.3,-8.4 -181.5,-12.7 -421.2,-12.7l-657.8 0 0 211.2 211.2 0c404.8,7.9 620.1,0 645,-24.9 -24.9,98.9 -33.3,223.3 -24.9,372l0 86.8c0,198.4 8,334.9 24.9,409.6l-285.2 0c16.4,-33.4 24.3,-78.9 24.3,-136.6l-1438.2 0c0,66.2 7.9,123.9 24.8,173.6l-297.9 0c24.9,-66.2 37.1,-206.9 37.1,-421.8l0 -123.8c-8,-157.1 -16.4,-277.3 -24.9,-359.8 107.9,24.9 297.9,32.8 571,24.9l285.2 0 0 -211.2 -595.3 0c-165.7,8.5 -302.2,12.7 -409.6,12.7 -107.4,8 -173.6,16.4 -198.4,24.9l0 -260.4c91,24.4 289.4,32.8 595.3,24.4l608 0 0 -198.5 -248.2 0c-214.8,0 -355.6,4.3 -421.7,12.7 -82.6,0 -144.5,4.3 -186.3,12.2l0 -247.6c33.3,24.3 161.4,37 384.7,37 91,0 165.6,-4.2 223.3,-12.7l248.2 0 0 -185.7 -223.3 0c-239.7,0 -413.3,7.9 -521.3,24.8l0 -223.3c91.1,24.9 256.7,32.8 496.4,24.9l248.2 0c0,-107.4 -4.3,-173.6 -12.7,-198.4zm855.6 1549.9l-1438.2 0 0 347.7 1438.2 0 0 -347.7zm2991.8 -2157.9c206.4,24.8 335,53.9 384.2,86.7 0,8.5 -7.9,20.7 -24.9,37.6 -82.5,82.6 -148.7,210.6 -198.4,384.2 380.5,0 645.1,-8 793.8,-24.9 -24.4,58.2 -37.1,252.4 -37.1,583.2l0 1004.3c0,396.9 8.5,645.1 24.9,744.6l-310.1 0c16.4,-49.8 24.9,-140.8 24.9,-273.1l-893.3 0c-7.9,99.5 0,190 24.9,273.1l-310.1 0c8.5,-24.9 16.9,-103.8 24.9,-236.1 0,-115.3 4.2,-280.9 12.7,-495.8l0 -980c0,-314.3 -8.5,-520.7 -24.9,-620.2 99,16.9 244,24.9 433.9,24.9 41.3,-173.6 66.2,-342.9 74.6,-508.5zm-1314.9 12.7c74.6,7.9 144.9,12.1 211.1,12.1 74.1,8.5 115.9,16.4 123.8,24.9 0,8.5 -4.2,20.6 -12.2,37 -24.8,49.8 -37.5,103.8 -37.5,161.4l0 1872.8c-8,446.6 0,682.1 24.8,706.9l-334.9 -12.1c8.5,-33.4 16.9,-95.3 24.9,-186.3 8.4,-57.7 12.7,-219.1 12.7,-483.7l0 -1785.9c-8.5,-57.7 -12.7,-115.9 -12.7,-173.6 0,-66.1 0,-124.3 0,-173.5zm558.2 607.4c74.6,157.2 148.7,355.6 223.3,595.3l-273 86.8c-49.2,-214.8 -111.7,-409 -185.8,-582.6l235.5 -99.5zm-955.1 49.8c173.5,24.8 273,41.3 297.9,49.7 0,8 -4.2,20.7 -12.7,37.1 -24.3,41.2 -37,86.7 -37,136.5 -8.5,91 -20.7,219.1 -37.1,384.2 -8.4,115.8 -12.7,194.7 -12.7,236 -57.7,-8.5 -160.8,-12.7 -310.1,-12.7 66.2,-140.3 103.7,-417.5 111.7,-830.8zm1475.8 74.6l0 644.5 893.3 0 0 -644.5 -893.3 0zm0 880.5l0 694.3 893.3 0 0 -694.3 -893.3 0z"/>
  <path class="fil11" d="M77983.2 16110.8c-604.2,0 -1094,-489.8 -1094,-1094 0,-604.2 489.8,-1094 1094,-1094 604.2,0 1094,489.8 1094,1094 0,604.2 -489.8,1094 -1094,1094z"/>
  <path class="fil12" d="M71097.5 13689.1c66.1,148.7 115.9,276.8 148.7,384.7l-273.1 61.9c-49.2,-165.6 -98.9,-289.4 -148.6,-372l273 -74.6zm-1575.3 24.9c132.3,16.4 215.3,24.9 248.2,24.9 57.6,7.9 86.7,12.1 86.7,12.1 0,16.4 -8.4,33.4 -24.8,49.8 -32.8,49.7 -49.8,103.2 -49.8,161.4l0 2021.4c-7.9,380.5 0,574.7 24.9,583.1l-297.4 0c7.9,-33.3 12.2,-87.3 12.2,-161.4 8.4,-49.7 12.7,-186.2 12.7,-409.6l0 -1959.5c0,-173.5 -4.3,-280.9 -12.7,-322.2zm608 421.7c66.1,16.4 247.6,24.9 545.6,24.9l868.3 0c222.8,7.9 384.2,0 483.7,-24.9l0 285.2c-33.4,-8.4 -83.1,-12.7 -149.2,-12.7 -49.3,-7.9 -160.9,-12.1 -334.5,-12.1l-880.5 0c-281.5,0 -459.3,8.4 -533.4,24.8l0 -285.2zm-930.3 210.6c157.2,8.5 256.1,16.4 297.4,24.9 0,16.4 -7.9,37 -24.3,61.9 -24.9,49.8 -41.8,95.3 -49.8,136.5 -24.9,157.2 -58.2,347.2 -99.5,570.5 -24.8,0 -78.3,-4.2 -160.8,-12.2 -24.9,0 -58.2,-4.2 -99.5,-12.7 74.6,-181.5 120.1,-438.1 136.5,-768.9zm1079 322.8c66.1,24.4 243.9,32.8 533.4,24.4l322.2 0c322.8,8.4 521.3,0 595.4,-24.4 -16.4,24.4 -20.7,160.9 -12.2,409.1 -8.5,248.2 0,409 24.9,483.6 -108,-8.4 -310.1,-16.4 -608.1,-24.8l0 756.7c33.4,182 -111.6,276.7 -433.9,285.2 -16.4,-115.9 -53.9,-214.8 -111.6,-297.9 231.2,41.8 330.7,12.7 297.4,-86.8l0 -657.2c-338.7,0 -537.1,12.7 -595.3,37 0,-16.4 0,-61.9 0,-136 8.4,-58.2 12.7,-169.9 12.7,-335 0,-140.7 -4.3,-239.7 -12.7,-297.9 0,-66.1 -3.8,-111.6 -12.2,-136zm273 235.5l0 421.8 917.6 0 0 -421.8 -917.6 0zm-149.2 756.7c173.6,57.7 277.3,103.2 310.1,136 0,8.5 -7.9,12.7 -24.9,12.7 -41.2,24.9 -78.3,57.7 -111.6,99 -165.1,231.7 -301.7,405.3 -409.1,521.2 -82.5,-58.2 -169.3,-95.3 -260.3,-111.7 165.1,-124.3 330.7,-343.4 495.8,-657.2zm1141.4 0c190,198.5 351.4,392.7 483.7,582.6l-223.3 161.4c-157.2,-231.8 -318.6,-434.4 -483.7,-608l223.3 -136zm-1525.6 -1302.3c57.7,99 128.1,247.7 210.6,446.1l-248.1 99.5c-57.7,-190.5 -115.4,-343.4 -173.6,-458.8l211.1 -86.8zm2916.7 -632.8c99.5,124.3 219.6,305.8 359.8,546.1l-260.3 160.8c-57.7,-182 -169.4,-372 -335,-570.4l235.5 -136.5zm595.3 124.3c91,16.4 240.2,24.9 446.6,24.9l905.4 0c107.4,0 223.3,-8.5 347.2,-24.9l0 272.5c-82.6,-7.9 -198.5,-16.4 -347.2,-24.8l-61.9 0 0 781.5 198.4 0c115.9,0 227.6,-8.4 335,-24.8l0 273c-33.3,-8.5 -145,-12.7 -335,-12.7l-198.4 0 0 1165.8c24.9,165.6 -132.3,256.6 -471.5,273 -41.3,-148.7 -91,-251.9 -148.7,-310.1 256.1,16.4 376.3,-12.1 359.9,-86.8l0 -1054.1c-273.1,586.9 -591.1,1029.3 -955.2,1327.2 -123.8,-91 -231.2,-145 -322.3,-161.4 463.1,-248.2 785.3,-636.6 967.4,-1165.8 -305.9,0 -529.2,20.7 -670,62 -7.9,0 -12.1,0 -12.1,0 -8.5,-16.4 -37.6,-86.8 -86.8,-210.7 0,0 4.2,-4.2 12.2,-12.7 49.7,-32.8 91,-70.3 124.3,-111.6 74.1,-140.2 128.1,-335 160.9,-582.6 239.7,32.8 359.8,57.7 359.8,74.1 -8.5,8.4 -20.6,20.6 -37,37.5 -33.4,16.4 -54,37.1 -62.5,61.9 -123.8,305.9 -185.7,458.8 -185.7,458.8l707 0 0 -781.5 -583.2 0c-165.1,8.4 -314.3,16.9 -446.6,24.8l0 -272.5zm-1091.1 756.2c57.6,16.9 161.4,24.9 310,24.9 157.2,8.4 285.3,0 384.2,-24.9 -16.4,99.5 -24.3,243.9 -24.3,434.4l0 793.8c82.5,-91 185.7,-227.6 310.1,-409.6 24.3,82.6 82.5,169.9 173.5,260.4 -223.3,215.3 -425.9,417.5 -608,608 -49.7,-41.3 -115.9,-95.3 -198.4,-161.4 49.7,-57.7 74.6,-153 74.6,-285.2l0 -992.2 -111.7 0c-115.8,8.4 -219,16.4 -310,24.8l0 -273z"/>
  <path class="fil5" d="M99983.2 49110.8c-604.2,0 -1094,-489.8 -1094,-1094 0,-604.2 489.8,-1094 1094,-1094 604.2,0 1094,489.8 1094,1094 0,604.2 -489.8,1094 -1094,1094z"/>
  <path class="fil6" d="M97887.5 46195.3c8,24.9 20.7,45.5 37.1,61.9 115.9,157.2 169.3,239.7 161.4,248.2 -8.5,16.4 -37.6,20.6 -86.8,12.1 -83.1,-16.4 -149.2,-20.6 -198.5,-12.1 -273,41.2 -967.3,82.5 -2083.8,123.8l-136.5 -285.2c355.6,41.3 748.2,49.7 1178.4,24.8 504.3,-41.2 880.6,-99.4 1128.7,-173.5zm-347.1 384.2c41.3,24.8 82.5,45.5 123.8,62.4 123.8,41.3 182.1,66.1 173.6,74.1 0,16.4 -12.2,29.1 -37.1,37.6 -41.2,24.3 -70.3,49.2 -86.7,74 -66.2,58.2 -115.9,115.9 -149.3,173.6l384.7 0c74.7,0 157.2,-7.9 248.2,-24.9 -16.9,24.9 -20.6,103.7 -12.7,236l0 111.7c0,115.4 8.5,181.5 24.9,198.4l-297.4 0c0,-24.8 0,-58.2 0,-99.5 0,-24.8 3.7,-53.4 12.2,-86.7l0 -123.9 -2158 0 0 99c0,74.6 4.3,145 12.2,211.1l-285.2 0c-8,8 -12.2,12.2 -12.2,12.2 16.4,0 29.1,-74.6 37.1,-223.3l0 -99c0,-58.2 -4.3,-120.1 -12.2,-186.2 0,-16.4 0,-32.8 0,-49.8 66.1,17 144.4,24.9 235.5,24.9l1537.7 0c99.5,-132.3 186.3,-272.5 260.9,-421.7zm-645.1 62.4c49.8,74.1 94.8,160.9 136.6,260.3l-260.9 62c-57.7,-99.5 -107.4,-186.3 -148.7,-260.4l273 -61.9zm-297.9 619.7c198.5,41.8 302.2,70.3 310.1,87.3 0,16.4 -12.2,28.5 -37,37 -49.8,32.8 -91,78.3 -123.9,136.5l768.9 0c181.5,0 305.9,-4.2 372,-12.7l0 236c0,0 -120.1,-4.2 -359.8,-12.7l-880.5 0c-24.9,24.9 -57.7,66.2 -99,123.9 -41.8,66.1 -70.4,107.9 -87.3,124.3l980 0c157.2,0 273.1,-4.2 347.1,-12.7 49.8,-7.9 74.7,-12.2 74.7,-12.2 -206.9,305.9 -434,533.4 -682.1,682.1 272.5,74.7 624.4,103.2 1054.1,86.8 -82.6,82.6 -136.6,182.1 -161.4,298 -446.1,-41.3 -818.7,-128.6 -1116,-260.9 -256.2,99.5 -603.8,194.7 -1042,285.7 -41.2,-91 -107.4,-177.8 -198.4,-260.9 355.6,-24.8 699,-78.3 1029.7,-160.8 -182,-132.3 -327,-289.5 -434.4,-471.5 -198.4,206.9 -429.7,376.2 -694.3,508.5 -58.2,-91 -132.3,-157.1 -223.3,-198.4 421.8,-148.7 748.3,-392.7 979.5,-731.9l-235.5 0c-223.3,8.5 -334.9,12.7 -334.9,12.7l0 -236c74.6,8.5 186.2,12.7 334.9,12.7l347.2 0c24.8,-33.3 62.4,-120.1 111.6,-260.8zm-24.8 905.4c8.4,16.9 24.8,37.5 49.7,62.4 140.8,165.1 256.6,264.6 347.1,297.4 124.4,-66.2 268.8,-185.7 434.5,-359.8l-831.3 0zm-619.7 -1438.3l272.5 -74.6c49.8,74.6 95.3,161.4 136.5,260.3l-260.3 74.6c-16.4,-33.3 -58.2,-99.5 -124.4,-198.4 -7.9,-24.9 -16.4,-45.5 -24.3,-61.9z"/>
  <path class="fil13" d="M3083.2 20910.8c-604.2,0 -1094,-489.8 -1094,-1094 0,-604.2 489.8,-1094 1094,-1094 604.2,0 1094,489.8 1094,1094 0,604.2 -489.8,1094 -1094,1094z"/>
  <path class="fil14" d="M5216 21316.4c198.5,7.9 313.8,16.4 347.2,24.8 0,8 -8.5,20.7 -24.9,37.1 -33.3,66.1 -49.7,140.7 -49.7,223.3l0 1971.6c0,273.1 8.4,455.1 24.8,546.2l-297.4 0c16.4,-91.1 24.4,-273.1 24.4,-546.2l0 -1773.2c-8,-239.7 -16.4,-401.1 -24.4,-483.6zm2170.2 61.9c-16.4,57.6 -24.9,194.2 -24.9,409l0 409.6c0,305.8 8.5,483.6 24.9,533.4 -16.4,0 -70.4,0 -161.4,0 -57.7,-8.5 -219.1,-12.7 -483.7,-12.7 41.8,206.9 91,372 149.2,496.3 148.7,-140.7 281,-277.2 396.9,-409.5 140.2,124.3 223.3,198.4 247.7,223.3 -8,8.4 -16.5,12.7 -24.4,12.7 -49.7,16.4 -111.6,49.2 -186.3,98.9 -41.2,33.4 -103.1,78.3 -186.2,136.6 -66.2,49.7 -111.7,82.5 -136,98.9 98.9,149.2 322.2,289.5 669.4,421.8 -115.9,49.7 -194.2,132.3 -235.5,248.1 -520.7,-223.3 -830.8,-665.7 -930.3,-1327.1l-273 0 0 1054.1c140.7,-115.4 268.8,-227 384.7,-334.4l74.6 272.5c-289.5,157.1 -500.6,293.7 -632.9,409.6 -16.4,7.9 -24.9,16.4 -24.9,24.8l-160.8 -223.3c66.1,-49.7 103.2,-91 111.6,-124.3l0 -1674.3c0,-239.7 -4.2,-409.1 -12.7,-508.6 -7.9,-107.4 -16.4,-185.7 -24.8,-235.4 58.2,24.8 198.4,37 421.7,37 74.6,-7.9 132.3,-12.2 173.6,-12.2l273 0c322.3,8 512.8,0 570.5,-24.8zm-285.3 260.3l-868.3 0 0 347.1 868.3 0 0 -347.1zm-1389 211.2c82.5,165.1 161.4,330.7 235.5,495.8l-222.8 99.5c-49.8,-157.2 -115.9,-330.8 -198.5,-521.3l185.8 -74zm-880.6 111.1c165.7,8.4 256.2,21.1 273.1,37.5 0,8 -8.5,20.7 -24.9,37.1 -16.4,33.3 -24.9,66.1 -24.9,99.5 -8.4,24.3 -12.7,78.3 -12.7,160.8 -16.4,182.1 -28.5,339.2 -37,471.5l-235.5 0c49.8,-148.7 70.4,-417.5 61.9,-806.4zm1401.3 198.4l0 347.7 881 0 0 -347.7 -881 0z"/>
  <path class="fil5" d="M17283.2 15610.8c-604.2,0 -1094,-489.8 -1094,-1094 0,-604.2 489.8,-1094 1094,-1094 604.2,0 1094,489.8 1094,1094 0,604.2 -489.8,1094 -1094,1094z"/>
  <path class="fil6" d="M18986.6 12220.5c41.3,8.4 78.8,16.9 111.6,24.8 124.4,16.4 190.5,29.1 198.5,37.1 0,8.4 -4.3,16.9 -12.2,24.8 -24.9,41.3 -41.3,95.3 -49.7,161.4 -24.9,66.2 -49.8,214.9 -74.6,446.6 149.2,0 293.6,-8.4 434.4,-24.8 -33.3,595.3 -99.5,1037.7 -198.4,1327.1l310.1 223.3c-58.3,49.2 -115.9,103.2 -174.1,160.9 -8,8.5 -16.4,16.9 -24.4,24.9 -74.6,-49.8 -145,-111.7 -211.1,-185.8 -123.8,206.4 -264.6,392.7 -421.8,557.8 -107.4,-74.1 -206.3,-123.8 -297.4,-148.7 190,-91 367.8,-268.8 533.4,-533.4 8,-24.9 -111.6,-99 -359.8,-223.3 66.2,-330.8 119.6,-648.8 161.4,-954.6 -74.6,7.9 -132.3,12.1 -174.1,12.1 -41.3,0 -69.8,0 -86.8,0l0 -260.3c24.9,8.4 120.1,16.4 285.2,24.8 8.5,-115.8 17,-243.9 24.9,-384.7 8.5,-132.2 17,-235.4 24.9,-310zm1823.5 12.7c0,24.8 16.4,70.3 49.2,136.5 33.3,98.9 58.2,165.1 74.6,198.4l148.7 0c239.7,0 396.9,-12.7 471.5,-37.6l0 273.1c-16.4,0 -66.1,0 -148.7,0 -41.8,0 -91,0 -149.2,0 -57.7,0 -115.4,-4.2 -173.6,-12.7l-867.8 0c-8.5,694.8 -41.8,1178.4 -99.5,1451.5 -49.7,281 -165.1,541.3 -347.1,781.1 -91,-49.8 -194.2,-78.4 -310.1,-86.8 289.4,-231.3 454.5,-611.8 495.8,-1140.9 -132.3,148.7 -223.3,243.9 -272.5,285.2 -33.4,-74.6 -70.4,-161.4 -111.7,-260.3 123.9,-33.4 256.1,-111.7 396.9,-236.1 0,-529.1 -12.7,-872 -37.6,-1029.2 49.8,8.5 186.3,16.4 409.6,24.9l335 0c0,8.5 -4.3,0 -12.7,-24.9 -24.9,-82.5 -66.2,-182 -123.9,-297.4l273.1 -24.8zm-335 682c49.2,16.5 99,32.9 148.7,49.8 74.6,16.4 111.7,24.3 111.7,24.3 -8.5,8.5 -12.7,17 -12.7,24.9 -32.8,24.9 -66.2,95.3 -99,211.1l347.2 0c173.5,0 310.1,-12.7 409.5,-37.5l0 236c-33.3,0 -74.6,0 -124.3,0 -41.3,-8.5 -123.8,-12.7 -247.7,-12.7 -16.9,149.2 -24.8,289.4 -24.8,421.7l173.5 0c190,8.5 305.9,4.3 347.2,-12.1l0 247.6c-24.9,0 -61.9,0 -111.7,0 -57.7,0 -123.8,-3.7 -198.4,-12.2l-161.4 0c66.1,322.3 273,574.7 620.2,756.7 -107.5,41.3 -190,107.5 -247.7,198.5 -264.6,-198.5 -434.4,-455.1 -508.5,-768.9 -108,313.8 -302.2,578.4 -583.2,793.8 -57.6,-74.7 -136.5,-132.3 -235.4,-173.6 -8.5,0 -12.7,0 -12.7,0 347.6,-165.6 562.5,-434.5 645,-806.5l-161.4 0c-82.5,8.5 -152.9,16.4 -210.6,24.9 -49.7,0 -82.5,0 -99.5,0l0 -260.3c41.8,7.9 145,16.4 310.1,24.8l198.5 0c8.4,-165.6 16.9,-310.1 24.8,-434.4l-223.3 0c-7.9,16.9 -24.9,54 -49.2,111.6 -24.9,66.2 -41.8,111.7 -49.7,136.6 -66.2,-16.4 -145,-32.9 -235.5,-49.8 107.4,-132.3 194.2,-363.5 260.3,-694.3zm-682.1 49.8c57.7,198.4 99,347.1 123.9,446.1l-186.3 37.5c-41.3,-182 -82.6,-330.7 -123.8,-446.6l186.2 -37zm-434.4 160.9l-223.3 0c-41.3,182 -86.8,463 -136,843.4 74.1,57.7 144.5,103.2 210.6,136.6 74.6,-314.4 123.8,-640.8 148.7,-980zm4765 -930.3c58.2,74.6 128.1,215.4 211.2,421.7l-260.9 86.8c-24.4,-123.8 -90.5,-268.3 -198.5,-433.9l248.2 -74.6zm-1637.2 62.4c223.3,49.2 334.9,82.6 334.9,99 -7.9,8.4 -16.4,20.6 -24.8,37 -16.4,-24.3 -57.7,140.8 -123.8,496.4 289.4,-8.5 496.3,-20.7 620.1,-37.1 -66.1,669.4 -165.6,1132.5 -297.9,1389.1 99.5,82.5 202.7,156.6 310.1,222.8 -74.1,83.1 -136,153.4 -185.7,211.1 -91,-74.6 -169.9,-148.7 -236,-223.3 -181.5,206.9 -372,388.4 -570.5,545.6 -91,-82.6 -177.8,-144.5 -260.3,-185.8 231.7,-83 446.6,-252.4 645,-508.5 -24.8,-8.5 -49.7,-20.6 -74.6,-37.6 -190,-115.3 -338.7,-198.4 -446.1,-247.6 82.6,-149.2 160.9,-455.1 235.5,-918.1 -124.4,8.5 -227.5,16.9 -310.1,24.9 -49.7,0 -78.8,0 -86.8,0l0 -260.4c41.3,16.4 95.3,24.9 161.4,24.9 66.2,0 153,-4.3 260.4,-12.7 7.9,-90.5 16.4,-194.2 24.8,-309.6 8,-115.9 16.4,-219.6 24.4,-310.1zm2344.2 458.8c0,7.9 -4.2,28.6 -12.2,61.9 -8.4,82.6 -8.4,157.2 0,223.3l0 607.5c-8.4,215.4 0,347.7 24.9,396.9l-285.2 0 24.3 -210.6 -805.9 0c-8.5,512.7 -157.2,938.2 -446.6,1277.4 -74.1,-49.7 -153,-82.6 -235.5,-99.5 -41.3,-16.4 -74.6,-24.3 -99.5,-24.3 223.3,-149.3 372.5,-355.6 446.6,-620.2 82.6,-239.7 115.9,-649.3 99.5,-1228.2 -8.5,-24.9 -12.7,-69.9 -12.7,-136 -7.9,-124.4 -16.4,-206.9 -24.9,-248.2 33.4,7.9 140.8,12.2 322.8,12.2l694.3 0c173.6,0 277.3,-4.3 310.1,-12.2zm-1054.1 223.3l0 657.2 805.9 0 0 -657.2 -805.9 0zm-781.6 160.9l-347.1 0c-16.4,74.6 -32.8,145 -49.8,211.1 -49.2,239.7 -90.4,433.9 -123.8,582.6 132.3,107.5 239.7,182.1 322.3,223.3 107.9,-280.9 174.1,-620.1 198.4,-1017z"/>
  <path class="fil15" d="M27983.2 14110.8c-604.2,0 -1094,-489.8 -1094,-1094 0,-604.2 489.8,-1094 1094,-1094 604.2,0 1094,489.8 1094,1094 0,604.2 -489.8,1094 -1094,1094z"/>
  <path class="fil16" d="M30358.9 9512.8c132.3,57.7 244,115.9 335,173.5 0,8.5 -8.5,16.5 -24.9,24.9 -41.2,32.8 -70.4,66.2 -86.8,99 -82.5,115.9 -120.1,177.8 -111.6,186.2l1550.4 0c32.9,0 86.8,0 160.9,0 91,-8.4 140.8,-16.4 149.2,-24.8l0 248.1c-24.8,-8.4 -70.3,-16.4 -136.5,-24.8 -58.2,0 -115.9,-4.3 -173.6,-12.7l-706.9 0 0 260.9 508.5 0c157.2,0 268.8,-8.5 335,-24.9l0 248.2c-33.4,-8.5 -74.6,-12.7 -124.4,-12.7 -32.8,-8.5 -103.2,-12.2 -210.6,-12.2l-508.5 0 0 260.3 470.9 0c182.1,0 306.4,-8.4 372.6,-24.8l0 235.5c-83.1,-8 -206.9,-16.5 -372.6,-24.9l-470.9 0 0 285.2 694.2 0c165.7,0 277.3,-7.9 335,-24.3l0 235.4c-49.7,-8.4 -161.4,-16.4 -335,-24.8l-1636.7 0c-8.4,91 -4.2,140.7 12.2,148.7l-273 0c0,-8 8.4,-53.5 24.8,-136.6l0 -1078.9c-123.8,182 -239.7,334.9 -347.1,459.3 -57.7,-83.1 -120.1,-157.2 -186.3,-223.3 355.6,-305.9 608,-711.2 756.7,-1215.5zm0 669.4l0 260.9 719.2 0 0 -260.9 -719.2 0zm0 459.3l0 260.3 719.2 0 0 -260.3 -719.2 0zm0 446.1l0 285.2 719.2 0 0 -285.2 -719.2 0zm1674.3 608c99.5,115.9 214.9,276.7 347.2,483.7l-310.1 123.8c-90.5,-198.5 -194.2,-363.6 -309.6,-495.9l272.5 -111.6zm-2021.4 49.7c173.6,49.2 276.8,82.6 310.1,99 0,8.5 -4.2,12.7 -12.7,12.7 -41.3,32.8 -82.6,78.3 -123.8,136 -82.6,107.9 -161.4,227.5 -235.5,359.8 -91,-66.1 -182,-107.4 -273.1,-123.8 123.9,-124.4 235.5,-285.2 335,-483.7zm1413.9 12.2c41.3,99.5 94.8,252.4 160.9,458.8l-297.4 61.9c-41.3,-190 -82.5,-355.1 -123.8,-495.8l260.3 -24.9zm-657.2 12.2c49.2,190.5 90.5,355.6 123.8,496.3l-322.2 37.1c-8.5,-206.4 -33.4,-372 -74.6,-495.9l273 -37.5zm247.7 -2108.2l248.1 -148.7c99.5,107.4 186.3,219.1 260.4,334.9l-248.2 136c-49.2,-82.5 -136,-189.9 -260.3,-322.2zm3140.5 -161.4c173.5,8.4 276.7,24.9 310,49.7 0,8.5 -8.4,20.7 -24.8,37.1 -8.5,33.3 -12.7,58.2 -12.7,74.6l0 99.5 645 0c231.8,0 405.4,-8.5 521.3,-24.9l0 247.6c-149.3,-7.9 -322.8,-16.4 -521.3,-24.3l-645 0 0 185.7 806.4 0c32.8,0 128.1,0 285.2,0 140.8,-7.9 227.6,-12.1 260.4,-12.1 8.5,0 12.7,4.2 12.7,12.1 -41.8,124.4 -95.3,293.7 -161.4,508.6l-297.9 -37.1c8.4,-24.8 29.1,-66.1 62.4,-124.3 24.4,-57.7 45.5,-103.2 61.9,-136l-980 0 0 260.3 248.2 -24.8c66.1,0 169.3,-12.7 310.1,-37.1 49.7,-8.5 86.8,-16.9 111.6,-24.9l24.9 198.5c-49.7,0 -152.9,7.9 -310.1,24.8 -58.2,8 -99.5,12.2 -124.3,12.2l-260.4 37.1 0 149.2c8.5,41.3 61.9,69.8 161.4,86.8 132.3,16.4 256.1,20.6 372,12.1 99.5,-8.4 169.3,-32.8 210.6,-74.6 58.2,-57.7 91,-140.2 99.5,-247.6 74.6,115.3 152.9,185.7 235.5,210.6 -91,182 -177.8,285.2 -260.4,310.1 -82.5,33.3 -210.6,54 -384.1,61.9 -190.5,0 -330.8,-16.4 -421.8,-49.2 -165.6,-24.9 -243.9,-95.3 -236,-211.2l0 -223.3 -247.6 24.9c-91.1,16.4 -165.7,29.1 -223.4,37 -41.2,8.5 -78.8,12.7 -111.6,12.7l-12.7 -223.3c16.9,0 66.1,0 149.2,0 90.5,-8.4 152.9,-12.1 185.8,-12.1l260.3 -24.9 0 -285.2 -756.2 0c8,677.8 -33.3,1186.4 -124.3,1525 -66.2,198.5 -136.6,364.1 -210.6,496.4 -74.6,-99.5 -145,-173.6 -211.2,-223.3 174.1,-198.5 268.8,-512.8 285.2,-942.5 17,-256.6 21.2,-541.8 12.7,-855.6 0,-108 -4.2,-186.3 -12.7,-236 198.5,16.9 393.2,24.8 583.2,24.8l359.8 0 0 -310.1c-8.4,-132.2 -16.9,-243.9 -24.8,-334.9zm582.6 1835.7c99.4,190.5 174.1,343.4 223.3,458.7l-272.5 74.7c-49.8,-165.7 -115.9,-318.6 -198.5,-458.8l247.7 -74.6zm-1029.3 86.7l273.1 62c-8.5,24.8 -16.9,53.9 -24.9,86.7 -82.5,330.8 -145,541.9 -186.3,632.9 -82.5,-33.3 -173.5,-49.7 -272.5,-49.7 91,-173.6 160.9,-417.5 210.6,-731.9zm1724.1 12.7c132.3,165.1 256.1,359.3 372,582.7l-273.1 111.6c-115.3,-231.2 -227,-421.7 -334.4,-570.4l235.5 -123.9zm-1314.5 24.9c206.4,16.4 305.9,37.1 297.4,61.9 0,16.4 -8.5,37.1 -24.9,61.9 -16.4,41.3 -24.8,78.4 -24.8,111.7l0 248.2c-8,82.5 37.5,128 136.5,136 206.9,24.8 347.1,21.1 421.7,-12.2 49.8,-8.5 82.6,-91 99,-248.2 83.1,91 174.1,145 273,161.4 -66.1,157.2 -140.7,252.4 -223.3,285.2 -182,49.8 -463,54 -843.5,12.2 -82.5,-32.8 -119.6,-103.2 -111.1,-210.6l0 -607.5z"/>
  <path class="fil17" d="M14983.2 85110.8c-604.2,0 -1094,-489.8 -1094,-1094 0,-604.2 489.8,-1094 1094,-1094 604.2,0 1094,489.8 1094,1094 0,604.2 -489.8,1094 -1094,1094z"/>
  <path class="fil18" d="M7004.9 82627.4c49.7,8 202.7,12.2 458.8,12.2l1153.6 0c272.5,0 442.4,-4.2 508.5,-12.2l0 260.4c-58.2,-8.5 -223.3,-16.4 -496.4,-24.9l-533.4 0c-16.4,66.1 -32.8,190.5 -49.2,372 -8.4,115.9 -12.7,202.7 -12.7,260.4l707 0c372,0 591.1,-3.8 657.2,-12.2l0 260.3c-57.7,-7.9 -239.7,-16.4 -545.5,-24.8l-434 0c-16.9,339.2 -24.8,682.1 -24.8,1029.7 -16.4,99 103.2,144.5 359.8,136 206.4,41.8 326.5,-86.8 359.3,-384.2 0,8.5 4.2,16.4 12.7,24.9 74.1,74.1 169.3,123.8 285.2,148.7 -115.9,314.3 -252.4,454.6 -409.6,421.8l-508.5 0c-264.6,8.4 -379.9,-99.5 -347.1,-322.3 0,-49.8 0,-140.8 0,-273.1 0,-107.4 4.2,-211.1 12.7,-310.1 7.9,-198.4 16.4,-355.6 24.3,-471.4l-185.7 0c-140.8,669.9 -512.8,1145.1 -1116.6,1426.6 -74,-99.5 -156.6,-173.6 -247.6,-223.3 562,-132.3 934,-533.4 1116,-1203.3l-458.8 0c-330.7,8.4 -520.7,16.9 -570.4,24.8l0 -260.3c66.1,8.4 256.1,12.2 570.4,12.2l495.9 0c33.3,-231.3 49.7,-441.9 49.7,-632.4l-372 0c-256.1,8.5 -409.1,16.4 -458.8,24.9l0 -260.4zm5806.4 -49.7c0,24.8 -3.7,70.4 -12.1,136.5 0,140.8 0,264.6 0,372l0 1364.2c33.3,190.5 -91.1,293.7 -372,310.1 0,-99 -29.1,-206.9 -86.8,-322.3 157.1,49.2 235.5,16.4 235.5,-99.5l0 -1525.5 -297.4 0 0 1910.2c0,314.4 7.9,512.8 24.8,595.4l-260.8 0c16.9,-115.9 24.8,-310.1 24.8,-583.2l0 -1599.7c-7.9,-248.1 -16.4,-434.4 -24.8,-558.2 107.4,24.8 231.7,33.3 372,24.8 198.4,0 330.7,-8.4 396.8,-24.8zm-1004.3 0c115.9,157.1 169.3,243.9 161.4,260.3 0,8.5 -8.5,12.7 -24.9,12.7 -16.4,-8.4 -58.2,-12.7 -124.4,-12.7 -82.5,17 -181.5,37.6 -297.3,61.9 -74.7,17 -123.9,24.9 -148.7,24.9l0 1228.2 235.4 -99.5c0,-256.1 0,-479.4 0,-669.4 0,-190.5 -4.2,-322.8 -12.1,-396.8 198.4,16.4 301.6,32.8 310.1,49.2 0,8.4 -8.5,29.1 -24.9,61.9 -24.9,33.3 -33.3,54 -24.9,62.4 8,735.6 -29.1,1219.2 -111.6,1451 -66.2,248.2 -239.7,463 -521.3,645.1 -57.6,-107.5 -136,-173.6 -235.4,-198.5 355.6,-83.1 558.2,-351.4 608,-806.4 -182.1,99.4 -322.8,186.2 -421.8,260.3 -8.4,-16.4 -41.3,-82.5 -99.5,-198.4 58.2,-41.3 86.8,-86.8 86.8,-136l0 -1079.5c0,-165.1 -12.1,-272.5 -37,-322.3 190,-8.5 417.5,-74.6 682.1,-198.4zm-1860.6 -12.2c49.8,16.4 108,24.9 174.1,24.9l706.5 0c99.4,0 194.7,-8.5 285.7,-24.9l0 260.4c7.9,7.9 -21.2,7.9 -87.3,0 -32.8,0 -61.9,-4.3 -86.8,-12.7l0 1612.3c24.9,0 74.6,-16.4 149.2,-49.2 -24.8,74.1 -33.3,156.6 -24.8,247.7 -16.4,8.4 -33.4,12.7 -49.8,12.7 -16.4,7.9 -41.2,16.4 -74.6,24.8l0 222.8c-7.9,248.2 -3.7,389 12.7,421.8l-248.2 0c16.4,-107.5 24.9,-239.7 24.9,-396.9l0 -198.5c-454.5,132.3 -707,219.1 -756.7,260.9 0,-83.1 -20.6,-182 -61.9,-297.9 57.7,-8.5 132.3,-20.6 223.3,-37l0 -1835.7c-41.3,0 -86.8,4.2 -136.5,12.2 -24.9,0 -41.3,0 -49.8,0l0 -247.7zm396.9 235.5l0 446.6 384.7 0 0 -446.6 -384.7 0zm0 657.2l0 446.6 384.7 0 0 -446.6 -384.7 0zm0 657.2l0 483.7 372.5 -111.7 0 -372 -372.5 0z"/>
  <path class="fil19" d="M6983.2 32833.5c-604.2,0 -1094,-489.8 -1094,-1094 0,-604.2 489.8,-1094 1094,-1094 604.2,0 1094,489.8 1094,1094 0,604.2 -489.8,1094 -1094,1094z"/>
  <path class="fil20" d="M10084.5 31641.6c16.4,8.4 37,16.9 61.9,24.8 173.6,33.4 252.4,61.9 235.5,86.8 -41.3,49.7 -82.6,120.1 -123.8,211.1 -33.4,74.1 -62,144.5 -86.8,210.7l917.5 0c198.5,0 347.7,-4.3 446.7,-12.2l0 223.3c-24.9,0 -74.6,0 -148.7,0 -124.4,-8.5 -219.1,-12.7 -285.3,-12.7l-198.4 0 0 384.7 173.6 0c182,0 305.8,-4.2 372,-12.7l0 223.3c-24.9,0 -70.4,0 -136.5,0 -66.2,-8.5 -144.5,-12.2 -235.5,-12.2l-173.6 0 0 396.9 136.5 0c8,0 57.7,0 148.7,0 148.7,-8.5 239.7,-12.7 272.6,-12.7l0 236c-32.9,0 -86.8,0 -160.9,0 -74.6,0 -161.4,-4.2 -260.4,-12.7l-136.5 0 0 433.9 322.3 0c16.4,0 61.9,0 136.5,0 132.3,-7.9 223.3,-12.1 273,-12.1l0 198.4c-33.3,0 -115.8,0 -248.1,0 -107.5,0 -165.7,0 -173.6,0l-1004.9 0c-7.9,91 -4.2,194.2 12.7,310.1l-260.9 0c0,-57.7 0,-132.3 0,-223.3 8.5,-74.6 12.7,-173.6 12.7,-297.4l0 -1352c-74.6,173.5 -140.7,305.8 -198.4,396.8l-198.4 -186.2c-16.4,99.5 -49.8,227.5 -99.5,384.7l409.6 620.2 -248.2 136.5c-8.5,-8.5 -16.4,-21.2 -24.9,-37.6 -32.8,-91 -99,-223.3 -198.4,-396.9 -16.4,-24.8 -32.8,-57.6 -49.8,-98.9 -181.5,330.7 -334.4,578.4 -458.8,744 -82.5,-99.5 -152.9,-177.8 -210.6,-235.5 206.4,-215.4 376.3,-450.8 508.6,-706.9 -124.4,-190.5 -281,-392.7 -471.5,-608.1l211.1 -173.5c57.7,99.5 115.4,190.5 173.6,273 107.4,140.3 169.3,223.3 185.7,248.2 49.8,-190.5 95.3,-455.1 136.5,-793.7l-310.1 0c-132.2,7.9 -260.3,16.4 -384.1,24.3l0 -247.7c57.6,16.4 181.5,20.7 372,12.2l223.3 0c173.5,8.5 293.1,4.2 359.3,-12.2 8.5,8 16.9,12.2 24.9,12.2 -8,16.4 -12.2,33.4 -12.2,49.8 -58.2,396.8 -103.7,661.4 -136.5,793.7 264.5,-421.7 433.9,-814.4 508.5,-1178.4zm682.1 0c49.7,66.1 132.3,194.2 248.2,384.7l-273.1 123.8c-32.8,-82.6 -107.4,-210.6 -223.3,-384.2l248.2 -124.3zm-570.5 731.8l0 384.7 458.8 0 0 -384.7 -458.8 0zm458.8 583.1l-446.6 0 0 396.9 446.6 0 0 -396.9zm0 607.5l-446.6 0 0 433.9 446.6 0 0 -433.9zm3450.1 -1922.4c99.5,8.4 177.8,16.9 236,24.8 49.7,8.5 78.3,16.4 86.8,24.9 0,16.4 -8.5,37 -24.9,61.9 -16.4,41.3 -24.9,82.6 -24.9,124.4l0 409 99.5 0c148.7,0 293.2,-8.5 433.9,-24.9l0 248.2c-33.3,8.5 -107.4,8.5 -223.3,0 -115.9,-8.5 -186.2,-12.7 -210.6,-12.7l-99.5 0 0 955.2c0,239.7 -4.2,372 -12.1,396.8 -58.2,115.9 -223.3,177.8 -496.4,186.3 -16.4,-115.9 -45.5,-215.4 -86.8,-297.9 173.6,24.9 285.2,8.4 335,-49.8 8.5,0 12.2,-69.8 12.2,-210.6l0 -980 -682.1 0c-148.7,8.5 -301.7,16.9 -458.8,24.9l0 -260.4c165.6,16.4 318.5,24.9 458.8,24.9l682.1 0 0 -421.7c-8,-82.6 -16.4,-157.2 -24.9,-223.3zm-1661.6 136.5c223.3,289.4 367.8,483.6 433.9,583.1l-260.3 173.6c-123.9,-223.3 -264.6,-421.8 -421.8,-595.3l248.2 -161.4zm1091.1 967.3c91.1,190.5 177.8,384.7 260.9,583.1l-273 111.7c-82.6,-223.3 -165.7,-426 -248.2,-608l260.3 -86.8zm-1450.9 24.9c99.5,8.4 219,12.7 359.8,12.7 132.3,0 251.9,-4.3 359.8,-12.7 -16.9,33.3 -21.1,107.4 -12.7,223.3l-12.1 905.4c239.7,148.7 512.2,243.9 818.6,285.2 396.9,24.9 842.9,16.4 1339.3,-24.9 -58.2,82.6 -91,177.8 -99.5,285.3 -181.5,16.4 -425.4,16.4 -731.8,0 -264.6,-8 -491.6,-28.6 -682.1,-62 -173.6,-32.8 -376.2,-107.4 -607.5,-223.3 -91,-49.7 -144.5,-74.6 -161.4,-74.6 -74.1,8.5 -169.3,108 -285.2,297.9 -16.4,16.4 -24.9,33.4 -24.9,49.8l-235.5 -173.6c41.3,-41.3 95.3,-91 161.4,-149.2 123.9,-123.8 214.9,-202.2 272.6,-235.5l0 -868.4c-99,8.5 -194.2,17 -285.3,24.9 -74,8.5 -132.3,12.7 -173.5,12.7l0 -273z"/>
  <path class="fil7" d="M6183.2 5810.8c-604.2,0 -1094,-489.8 -1094,-1094 0,-604.2 489.8,-1094 1094,-1094 604.2,0 1094,489.8 1094,1094 0,604.2 -489.8,1094 -1094,1094z"/>
  <path class="fil8" d="M8384.4 2957.1c33.4,16.4 99.5,29.1 198.5,37 82.5,8.5 243.9,8.5 483.6,0l731.9 0c396.9,8.5 628.6,0 694.8,-24.8 -24.9,66.1 -37.6,190.5 -37.6,372 0,58.2 4.2,99.4 12.7,124.3 -8.5,123.8 -12.7,219.1 -12.7,285.2 8.5,57.7 20.6,107.5 37.6,148.7 -49.8,-8.4 -111.7,-12.1 -186.3,-12.1 -49.7,-8.5 -173.6,-12.7 -372,-12.7l0 198.4 185.7 0c33.4,0 86.8,4.2 161.4,12.7 165.7,0 273.1,-8.5 322.3,-24.9l0 223.3c-90.5,-8.4 -251.9,-16.9 -483.7,-24.8l-185.7 0 0 223.3 310.1 0c305.9,7.9 483.7,0 533.4,-24.9l0 235.5c-49.7,-8.5 -108,-12.2 -174.1,-12.2 -41.3,-8.5 -152.9,-12.7 -334.4,-12.7l-273.1 0c223.3,206.9 517,318.6 880.5,335 -107.4,107.4 -177.8,202.6 -210.6,285.2 -413.8,-140.8 -719.6,-347.1 -918.1,-620.2l-669.4 0c-223.3,256.7 -541.8,463 -955.1,620.2 -24.9,-66.2 -95.3,-144.5 -210.6,-235.5 372,-58.2 669.4,-186.3 892.7,-384.7l-248.2 0c-231.2,8.5 -409,16.4 -533.4,24.9l0 -235.5c83.1,24.9 256.7,32.8 521.2,24.9l322.3 0 0 -223.3 -210.6 0c-173.6,0 -285.2,4.2 -335,12.1 -57.6,0 -99.5,0 -123.8,0l0 -223.3c82.6,24.9 244,33.4 483.7,24.9l185.7 0 0 -210.6c-214.8,0 -376.2,7.9 -483.7,24.9 8.5,-24.9 12.7,-70.4 12.7,-136.6 8,-41.2 12.2,-152.9 12.2,-334.9 -8.5,-223.3 -16.4,-376.3 -24.9,-458.8zm260.4 235.5l0 173.5 1587.5 0 0 -173.5 -1587.5 0zm0 322.8l0 173.5 1587.5 0 0 -173.5 -1587.5 0zm434.4 359.3l0 198.4 644.6 0 0 -198.4 -644.6 0zm0 384.7l0 223.3 644.6 0 0 -223.3 -644.6 0zm198.5 508.5c198.4,0 293.1,7.9 285.2,24.9 0,7.9 -8.5,20.6 -24.9,37 -16.4,24.9 -24.8,53.4 -24.8,86.8l0 223.3c91,16.4 169.3,37 235.4,61.9 49.8,-66.1 103.8,-152.9 161.4,-260.3 8.5,7.9 20.7,16.4 37.1,24.8 140.7,82.6 211.1,128.1 211.1,136.6 0,16.4 -20.6,28.5 -61.9,37 -24.9,7.9 -41.8,12.2 -49.7,12.2 -24.9,16.9 -62,53.9 -111.7,111.6 24.9,16.4 49.7,29.1 74.1,37.6 124.3,49.2 277.3,119.6 459.3,210.6l-173.6 198.4c-206.9,-148.7 -467.2,-276.7 -781.5,-384.7l0 335c16.4,91 -132.3,149.2 -446.7,173.6 -7.9,-123.9 -53.4,-219.1 -136.5,-285.3 256.7,49.8 376.3,37.6 359.8,-37l0 -210.6c-537.6,198.4 -830.7,318 -880.5,359.3 -57.7,-99 -107.4,-173.6 -148.7,-223.3 0,0 12.2,-3.7 37.1,-12.2 24.8,0 223.3,-49.7 595.3,-148.7 -41.3,-58.2 -115.9,-120.1 -223.3,-186.2l211.1 -136.6c74.1,66.2 144.5,149.3 210.6,248.2 33.3,-8.5 45.5,-12.2 37.1,-12.2 74.6,-33.3 128.5,-53.9 161.3,-62.4 0,-222.8 -4.2,-342.9 -12.1,-359.3zm2669 -1773.8c198.4,24.9 301.6,45.5 310.1,61.9 0,8.5 -12.7,24.9 -37.6,49.8 -24.9,24.8 -41.3,49.7 -49.7,74.6 -16.4,32.8 -49.3,107.4 -99,223.3 198.4,0 413.3,-12.7 645.1,-37.6 -33.4,248.2 -120.2,521.3 -260.4,818.6 49.2,33.4 156.6,91.1 322.3,173.6l-173.6 236c-8.5,0 -16.4,0 -24.9,0 -123.8,-115.9 -214.8,-182 -273,-198.4 -173.6,165.1 -433.9,310.1 -781.1,433.9 -16.9,-33.3 -70.3,-99.5 -161.4,-198.4 -8.4,-16.4 -12.1,-29.1 -12.1,-37.1 288.9,-41.8 541.3,-145 756.1,-310.1 -123.8,-58.2 -293.1,-132.3 -508.5,-223.3 33.4,-82.5 58.2,-140.7 74.6,-173.5 32.8,-58.3 70.4,-145 111.7,-260.9 -173.6,0 -281,4.2 -322.3,12.7 -49.7,0 -87.3,4.2 -111.6,12.1l0 -260.3c16.4,16.4 181.5,20.6 495.8,12.7 0,-8.5 4.2,-24.9 12.7,-49.7 49.2,-165.7 78.3,-285.3 86.8,-359.9zm880.5 223.3c82.6,24.9 276.8,33.4 582.6,24.9 314.4,0 529.2,-8.5 645.1,-24.9 -123.8,405.4 -276.8,739.8 -458.8,1004.4 198.4,107.9 396.9,182 595.3,223.3 -107.4,115.9 -169.9,202.7 -186.3,260.9 -206.3,-83.1 -396.8,-186.3 -570.4,-310.1 -99,98.9 -264.6,210.6 -495.8,334.4 -49.8,-82.5 -124.4,-152.9 -223.3,-210.6 231.2,-66.1 413.2,-161.4 545.5,-285.2 -123.8,-140.8 -243.9,-339.2 -359.8,-595.3l260.3 -37.1c58.3,206.4 140.8,363.6 248.2,471 107.4,-148.7 206.9,-351.4 297.9,-607.5l-372 0c-289.4,0 -459.3,7.9 -508.5,24.9l0 -273.1zm-396.9 396.9l-421.7 0 -124.4 347.1 372.6 149.3c66.1,-124.4 123.8,-289.5 173.5,-496.4zm409.1 1128.7c33.3,57.7 82.5,173.6 148.7,347.2 8.4,24.8 20.6,49.7 37.6,74.6l-248.2 86.7c-66.2,-206.9 -123.9,-355.6 -173.6,-446.6l235.5 -61.9zm868.3 99c148.7,182 297.4,401.1 446.1,657.7l-260.3 123.9c-82.6,-190 -227,-417.6 -433.9,-682.1l248.1 -99.5zm-1562.6 86.8c173.6,16.9 276.8,33.3 310.1,49.7 0,8.5 -8.5,20.6 -24.9,37 -24.8,49.8 -37.5,99.5 -37.5,149.3l0 223.3c-16.4,98.9 37.5,148.7 161.4,148.7l409 0c190.5,24.8 285.8,-91 285.8,-347.2 82.5,90.5 177.2,148.7 285.2,173.6 -66.2,305.9 -231.8,442.4 -496.4,409.1l-508.5 0c-272.5,8.4 -396.9,-82.6 -372,-272.6l0 -260.9 -12.2 -310zm-483.6 12.7c165.1,41.2 256.1,66.1 272.5,74 0,8.5 -4.3,17 -12.2,24.9 -24.9,33.3 -45.5,74.6 -61.9,124.4 -24.9,49.2 -54,123.8 -87.3,223.3 -41.3,115.3 -69.9,202.1 -86.8,260.3 -32.8,-16.4 -82.5,-29.1 -148.7,-37 -49.7,-8.5 -95.2,-16.9 -136.5,-24.9 115.9,-140.7 202.7,-355.6 260.9,-645z"/>
  <path class="fil13" d="M89983.2 31110.8c-604.2,0 -1094,-489.8 -1094,-1094 0,-604.2 489.8,-1094 1094,-1094 604.2,0 1094,489.8 1094,1094 0,604.2 -489.8,1094 -1094,1094z"/>
  <path class="fil14" d="M85642.8 32134.7c239.7,24.9 359.3,49.7 359.3,74.1 0,16.9 -8,29.1 -24.9,37.5 -41.3,24.9 -66.2,57.7 -74.1,99 -99.5,273 -140.8,405.3 -124.4,396.9l521.3 0 409 -49.2 -160.8 520.7c-17,41.2 -37.6,107.4 -62.5,198.4 0,24.9 0,37 0,37l-297.4 -37c16.4,-33.3 41.3,-91 74.6,-173.6 16.4,-24.8 28.6,-45.5 37.1,-61.9l86.8 -223.3 -694.8 0c0,0 -74.1,181.5 -222.8,545.6 -91,-49.8 -182,-74.6 -273.1,-74.6 16.4,-32.8 32.8,-62 49.8,-86.8 -58.2,-8 -128.6,-16.4 -211.2,-24.9l0 806.5c-7.9,322.2 0,512.7 24.9,570.4l-297.4 0c16.4,-74.6 24.4,-268.8 24.4,-583.1l0 -793.8 -359.3 0c0,330.7 -16.4,637.1 -49.8,918.1 -16.4,198.4 -103.2,433.9 -260.3,707 -49.8,-49.8 -132.3,-95.3 -248.2,-136.5 190,-214.9 289.4,-520.7 297.9,-917.6 24.3,-480 24.3,-971.6 0,-1476.4 372,-7.9 690,-82.5 954.6,-222.8 140.8,165.1 198.5,260.4 173.6,285.2 -16.4,16.4 -37.1,20.7 -61.9,12.2 -41.3,0 -78.3,0 -111.7,0 -49.2,8.5 -115.3,20.7 -198.4,37.1 -297.4,58.2 -463,83 -495.8,74.6l0 496.3 384.1 0c140.8,0 289.5,-8.4 446.6,-24.8l0 260.3c223.4,-388.9 351.4,-785.8 384.8,-1190.6zm111.6 1079c165.1,-8.5 276.8,0 334.4,24.8 0,8 -3.7,24.9 -12.1,49.8 -24.9,57.6 -37.1,115.3 -37.1,173.5 -8.4,82.6 -4.2,157.2 12.2,223.3 74.6,520.7 339.2,855.7 793.7,1004.4 -98.9,57.7 -173.5,140.8 -223.3,248.2 -421.7,-264.6 -653,-624.4 -694.2,-1079 -49.8,446.1 -293.7,818.6 -731.9,1116 -99.4,-91 -194.2,-144.4 -285.2,-161.4 628.1,-281 909.7,-814.4 843.5,-1599.6zm2792.8 -1079c206.9,0 314.4,12.2 322.3,37 0,8.5 -4.2,16.4 -12.2,24.9 -24.8,49.7 -37,111.6 -37,186.3l793.7 0c239.7,0 380,-8.5 421.3,-24.9l0 235.5c-41.3,-8.5 -181.6,-16.4 -421.3,-24.9l-793.7 0 0 198.4 532.9 0c239.7,0 384.7,-7.9 434.4,-24.8l0 236c-8.5,0 -12.7,0 -12.7,0 -49.7,-17 -185.7,-24.9 -409,-24.9l-1339.4 0c-223.3,7.9 -355.6,16.4 -396.8,24.9l0 -236c41.2,16.9 173.5,24.8 396.8,24.8l532.9 0 0 -198.4 -793.7 0c-223.4,8.5 -351.4,16.4 -384.2,24.9l0 -235.5c41.3,16.4 173.5,24.9 396.9,24.9l781 0c0,-99.5 -3.7,-157.2 -12.2,-174.1 0,-24.4 0,-49.2 0,-74.1zm-409.5 992.2l1116.5 0c148.7,0 281,-8.5 396.9,-24.9 0,8.5 -4.3,24.9 -12.7,49.7 0,74.1 0,136.6 0,185.8l0 124.3c0,66.2 0,132.3 0,198.5 8.4,16.4 12.7,28.5 12.7,37 -115.9,-8.5 -231.8,-16.4 -347.2,-24.9l-1203.3 0c-182,8.5 -297.4,16.4 -347.1,24.9 8.5,-74.6 16.4,-152.9 24.9,-235.5l0 -111.6c-8.5,-132.3 -16.4,-215.4 -24.9,-248.2 107.4,16.4 235.5,24.9 384.2,24.9zm1265.2 173.5l-1401.2 0 0 198.5 1401.2 0 0 -198.5zm-335 409.1l248.2 62.4c-41.3,49.2 -78.3,103.2 -111.6,160.9l471.4 0c247.7,0 396.9,-7.9 446.1,-24.9l0 236c-49.2,-8.4 -194.2,-16.9 -433.9,-24.8l-1996.5 0c-239.7,7.9 -376.3,16.4 -409.6,24.8l0 -236c24.9,17 161.4,24.9 409.6,24.9l508.5 0 -111.7 -136.5 235.5 -74.1c16.4,41.3 49.8,111.6 99.5,210.6l557.8 0c41.2,-74.1 70.3,-148.7 86.7,-223.3zm-1351.5 546.1c24.4,16.4 156.7,24.9 396.9,24.9l1202.8 0c206.9,0 339.2,-8.5 396.9,-24.9 -8.5,82.5 -12.2,169.3 -12.2,260.3l0 223.3c0,91.1 8,177.8 24.4,260.4l-272.6 0 12.2 -148.7 -1500.7 0 12.7 148.7 -273.1 0c8.5,-82.6 16.4,-169.3 24.9,-260.4l0 -236c-8.5,-98.9 -12.2,-169.3 -12.2,-210.6 0,-16.4 0,-29.1 0,-37zm247.7 198.4l0 235.5 1500.7 0 0 -235.5 -1500.7 0zm4467.6 -2319.3c206.4,0 318.1,16.4 335,49.7 0,8 -4.2,20.7 -12.7,37.1 -24.9,74.6 -37,165.1 -37,273l272.5 0c256.6,8 421.7,3.7 496.3,-12.7l0 260.4c-107.4,-16.4 -273,-20.7 -496.3,-12.2l-272.5 0c0,165.1 4.2,285.2 12.1,359.8l-297.4 0c0,-24.8 0,-74.6 0,-149.2 8,-99 12.2,-169.3 12.2,-210.6l-719.1 0c0,182 4.2,301.6 12.1,359.8l-285.2 0c0,0 0,-4.2 0,-12.7 8.5,-82.5 12.7,-198.4 12.7,-347.1l-310.1 0c-66.1,0 -157.1,4.2 -273,12.2 -91,0 -153,0 -186.3,0l0 -260.4c33.3,0 91,4.2 174.1,12.7 115.4,0 210.6,0 285.2,0l322.3 0c-8.5,-66.1 -12.2,-128.6 -12.2,-186.3 0,-66.1 0,-123.8 0,-173.5 222.8,16.4 330.7,37 322.3,61.9 -8.5,8.5 -12.2,16.4 -12.2,24.9 -33.3,57.6 -49.7,148.7 -49.7,273l719.1 0c0,-140.7 -4.2,-227.5 -12.2,-260.9 0,-41.2 0,-74 0,-98.9zm-471.5 756.7c223.4,57.7 326.5,98.9 310.1,123.8 0,16.4 -12.1,29.1 -37,37.1 -58.2,49.7 -107.4,111.6 -149.2,186.2l868.3 0c256.2,8 426,4.3 508.6,-12.7l0 260.9c-32.8,0 -111.7,0 -235.5,0 -149.2,-16.9 -239.7,-24.9 -273.1,-24.9l-1029.2 0c-66.1,107.5 -177.8,231.3 -335,372l892.7 0c240.3,0 442.4,-8.4 608.1,-24.8 8.4,8.4 16.4,16.4 24.8,24.8 -24.8,140.3 -33.3,330.8 -24.8,570.5 0,239.7 8.4,438.1 24.8,595.3l-310.1 0c0,-41.3 0,-86.8 0,-136.5 0,-49.8 4.3,-99 12.2,-148.7l-1165.7 0c0,91 4.2,177.8 12.7,260.3l-298 0c0,-49.7 4.3,-239.7 12.7,-570.4 0,-99.5 3.7,-223.3 12.2,-372 -206.9,173.5 -401.1,314.3 -583.1,421.7 -24.4,-24.9 -82.6,-78.8 -173.6,-161.4 -16.4,-16.4 -32.8,-33.3 -49.2,-49.7 429.7,-165.1 785.3,-421.8 1066.3,-768.9l-446.7 0c-214.8,8.5 -388.4,16.4 -520.7,24.9l0 -273.1c148.7,17 318.6,24.9 508.6,24.9l595.3 0c66.1,-107.4 115.9,-210.6 148.7,-310.1 8.4,-16.4 16.4,-32.8 24.8,-49.2zm-310 1165.7l0 458.8 1165.7 0 0 -458.8 -1165.7 0zm3549.5 -1686.9c58.2,24.8 194.2,33.3 409.6,24.8l694.2 0c173.6,0 310.1,-4.2 409.6,-12.1l0 285.2c-124.3,-8.5 -248.2,-17 -372.5,-24.9l-285.2 0 0 744 248.1 0c148.7,8.5 264.6,0 347.2,-24.9l0 298c-66.2,-8.5 -140.3,-12.7 -223.3,-12.7 -32.8,0 -69.9,0 -111.2,0l-273 0 0 905.4 372 0c140.7,0 276.7,-4.3 409,-12.2l0 272.5c-7.9,0 -37,-3.7 -86.7,-12.1 -156.7,-16.4 -285.3,-20.7 -384.2,-12.2l-980 0c-123.9,-8.5 -244,0 -359.3,24.3l0 -297.4c49.2,24.9 173.5,37.1 372,37.1l396.8 0 0 -905.4 -223.3 0c-182,0 -293.7,4.2 -334.9,12.7l0 -285.3c41.2,16.5 140.7,20.7 297.9,12.2l260.3 0 0 -744 -198.4 0c-66.1,7.9 -132.3,12.2 -198.4,12.2 -74.7,0 -136.6,0 -186.3,0l0 -285.2zm-955.2 -198.5c124.4,140.8 244,273.1 359.9,396.9 115.9,-140.2 194.2,-264.6 235.5,-372 165.6,148.7 256.6,231.8 273,248.2 -82.5,24.8 -206.9,132.3 -372,322.2 214.8,455.1 285.2,1033.5 210.6,1736.2 -16.4,223.3 -222.8,355.6 -619.6,396.9 -24.9,-140.2 -83.1,-247.6 -174.1,-322.3 289.4,57.7 463,8.5 521.2,-148.7 49.7,-214.8 57.7,-529.1 24.9,-942.4 -132.3,239.7 -310.1,475.2 -533.4,706.4 -66.2,-90.4 -145,-160.8 -235.5,-210.6 222.8,-132.3 458.8,-392.6 706.4,-781.5 -32.8,-99 -61.9,-185.8 -86.8,-260.4 -115.3,124.4 -256.1,260.4 -421.2,409.6 -33.3,-66.2 -99.5,-140.8 -198.4,-223.3 264.6,-165.7 433.9,-293.7 508,-384.7 -90.5,-91.1 -222.8,-214.9 -396.9,-372l198.4 -198.5z"/>
  <path class="fil21" d="M89983.2 8110.8c-604.2,0 -1094,-489.8 -1094,-1094 0,-604.2 489.8,-1094 1094,-1094 604.2,0 1094,489.8 1094,1094 0,604.2 -489.8,1094 -1094,1094z"/>
  <path class="fil22" d="M93178.9 2894.2c66.2,231.7 136.6,554 211.2,967.8l-322.8 24.4c-8,-338.7 -70.4,-657.3 -185.8,-954.7l297.4 -37.5zm830.8 124.3c215.4,66.2 339.2,111.7 372.6,136.5 -8.5,8 -20.7,16.4 -37.6,24.9 -32.8,24.4 -53.5,49.2 -61.9,74.1 -206.9,396.9 -388.4,715.4 -545.6,955.1 248.2,8 438.2,8 570.4,0 123.9,-8.4 210.7,-20.6 260.4,-37l0 297.4c-157.2,-8.5 -338.7,-16.4 -545.6,-24.9l-1562.6 0c-273.1,8.5 -483.7,16.4 -632.9,24.9l0 -297.4c124.4,24.3 330.7,37 620.2,37l1017.1 0c214.8,-339.2 396.8,-736 545.5,-1190.6zm-1785.9 123.8c58.2,74.7 145,190.5 260.9,347.2 66.1,91 160.8,215.3 285.2,372.5l-285.2 160.9c-149.3,-272.5 -322.8,-520.7 -521.3,-744l260.4 -136.6zm471.5 1426.7c189.9,98.9 293.7,165.1 310.1,198.4 -8.5,8 -20.7,16.4 -37.1,24.4 -33.3,0 -58.2,8.4 -74.6,24.8 -322.3,330.8 -607.5,587.4 -855.7,768.9 -66.1,-90.5 -152.9,-160.9 -260.3,-210.6 355.6,-165.6 661.5,-433.9 917.6,-805.9zm855.6 49.2c132.3,107.4 285.3,231.8 458.8,372 99.5,83.1 264.6,211.1 496.4,384.7l-297.9 210.6c-222.8,-297.4 -520.7,-557.7 -892.7,-781l235.4 -186.3zm2793.4 -1835.2c206.4,16.4 334.4,41.3 384.2,74.1 0,16.4 -8,33.4 -24.9,49.8 -32.8,32.8 -53.4,66.1 -61.9,98.9 -32.8,99.5 -70.4,186.3 -111.7,260.9l880.6 0c173.5,0 334.9,-8.5 483.6,-24.9l0 285.2c-140.2,-8.4 -301.6,-16.4 -483.6,-24.8l-483.7 0c264.6,330.7 640.8,516.4 1128.7,558.2 -99.5,99 -173.5,206.4 -223.3,322.3 -24.9,-8.5 -57.7,-16.4 -98.9,-24.9 -108,-41.2 -186.3,-78.3 -236.1,-111.6 -7.9,49.7 -12.1,99.5 -12.1,148.7l0 880.5c0,124.4 7.9,252.4 24.8,384.7l-273 0c0,-32.8 0,-66.1 0,-98.9 0,-33.4 4.2,-62.5 12.7,-86.8l-1413.9 0c0,49.2 3.7,119.6 12.1,210.6l-273 0c-8,24.9 -8,-37 0,-186.3 0,-66.1 4.2,-128 12.7,-185.7l0 -918.1c0,-57.7 -8.5,-103.2 -24.9,-136 -98.9,74.1 -194.2,136 -285.2,185.7 -49.7,-91 -123.8,-173.5 -223.3,-248.2 421.7,-123.8 777.3,-355 1066.8,-694.2l-458.8 0c-91,8.4 -174.1,12.1 -248.2,12.1 -82.5,8.5 -152.9,17 -211.1,24.9l0 -297.4c149.2,24.9 302.1,37.1 459.3,37.1l570.4 0c74.1,-165.1 111.7,-330.8 111.7,-495.9zm372 719.2l-310.1 0c-115.9,206.9 -322.8,413.3 -620.2,620.2 24.9,7.9 78.3,12.1 161.4,12.1l1165.8 0c66.1,0 115.3,-7.9 148.7,-24.8 -264.6,-190 -446.6,-392.7 -545.6,-607.5zm533.4 843.5l-608 0 0 359.3 608 0 0 -359.3zm-843.5 0l-570.4 0 0 359.3 570.4 0 0 -359.3zm235.5 570.4l0 359.3 608 0 0 -359.3 -608 0zm-805.9 0l0 359.3 570.4 0 0 -359.3 -570.4 0z"/>
  <path class="fil5" d="M70983.2 66110.8c-604.2,0 -1094,-489.8 -1094,-1094 0,-604.2 489.8,-1094 1094,-1094 604.2,0 1094,489.8 1094,1094 0,604.2 -489.8,1094 -1094,1094z"/>
  <path class="fil6" d="M64194.4 63533c206.9,0 314.4,12.2 322.3,37 0,8.5 -4.2,16.4 -12.2,24.9 -24.8,49.7 -37,111.6 -37,186.3l793.7 0c239.7,0 380,-8.5 421.3,-24.9l0 235.5c-41.3,-8.5 -181.6,-16.4 -421.3,-24.9l-793.7 0 0 198.4 532.9 0c239.7,0 384.7,-7.9 434.4,-24.8l0 236c-8.5,0 -12.7,0 -12.7,0 -49.7,-17 -185.7,-24.9 -409,-24.9l-1339.4 0c-223.3,7.9 -355.6,16.4 -396.8,24.9l0 -236c41.2,16.9 173.5,24.8 396.8,24.8l532.9 0 0 -198.4 -793.7 0c-223.4,8.5 -351.4,16.4 -384.2,24.9l0 -235.5c41.3,16.4 173.5,24.9 396.9,24.9l781 0c0,-99.5 -3.7,-157.2 -12.2,-174.1 0,-24.4 0,-49.2 0,-74.1zm-409.5 992.2l1116.5 0c148.7,0 281,-8.5 396.9,-24.9 0,8.5 -4.3,24.9 -12.7,49.7 0,74.1 0,136.6 0,185.8l0 124.3c0,66.2 0,132.3 0,198.5 8.4,16.4 12.7,28.5 12.7,37 -115.9,-8.5 -231.8,-16.4 -347.2,-24.9l-1203.3 0c-182,8.5 -297.4,16.4 -347.1,24.9 8.5,-74.6 16.4,-152.9 24.9,-235.5l0 -111.6c-8.5,-132.3 -16.4,-215.4 -24.9,-248.2 107.4,16.4 235.5,24.9 384.2,24.9zm1265.2 173.5l-1401.2 0 0 198.5 1401.2 0 0 -198.5zm-335 409.1l248.2 62.4c-41.3,49.2 -78.3,103.2 -111.6,160.9l471.4 0c247.7,0 396.9,-7.9 446.1,-24.9l0 236c-49.2,-8.4 -194.2,-16.9 -433.9,-24.8l-1996.5 0c-239.7,7.9 -376.3,16.4 -409.6,24.8l0 -236c24.9,17 161.4,24.9 409.6,24.9l508.5 0 -111.7 -136.5 235.5 -74.1c16.4,41.3 49.8,111.6 99.5,210.6l557.8 0c41.2,-74.1 70.3,-148.7 86.7,-223.3zm-1351.5 546.1c24.4,16.4 156.7,24.9 396.9,24.9l1202.8 0c206.9,0 339.2,-8.5 396.9,-24.9 -8.5,82.5 -12.2,169.3 -12.2,260.3l0 223.3c0,91.1 8,177.8 24.4,260.4l-272.6 0 12.2 -148.7 -1500.7 0 12.7 148.7 -273.1 0c8.5,-82.6 16.4,-169.3 24.9,-260.4l0 -236c-8.5,-98.9 -12.2,-169.3 -12.2,-210.6 0,-16.4 0,-29.1 0,-37zm247.7 198.4l0 235.5 1500.7 0 0 -235.5 -1500.7 0zm4256.5 -2344.2c239.7,41.3 368.3,70.4 384.7,86.8 0,24.9 -12.7,45.5 -37,61.9 -49.8,49.7 -91.1,107.4 -124.4,173.6 -16.4,41.2 -32.8,83.1 -49.7,124.3 -8,49.2 -20.7,91 -37.1,123.9l768.9 0c99.5,0 214.8,-8.5 347.1,-24.9 -7.9,24.9 -24.3,70.4 -49.2,136.5 -107.4,297.9 -182,496.4 -223.3,595.3l-310.1 -37c32.8,-58.2 86.8,-165.7 161.4,-322.8 24.4,-49.2 45.5,-91 61.9,-123.8l-806.4 0c-16.4,16.4 -49.2,82.5 -99,198.4 -74.6,165.1 -140.7,301.6 -198.4,409l-297.9 -98.9c273,-347.1 442.4,-781.6 508.5,-1302.3zm-1537.8 372c41.3,16.4 161.4,24.9 359.9,24.9l421.7 0c90.5,0 214.9,-8.5 372,-24.9 -16.9,33.4 -37.5,115.9 -61.9,248.2 -83.1,388.4 -169.9,711.2 -260.9,967.3l421.8 607.5 -260.4 149.2c-32.8,-66.1 -103.2,-190.5 -210.6,-372 -24.9,-49.7 -45.5,-91 -62.4,-124.3 -173.6,355.6 -359.3,640.8 -557.8,855.6 -66.1,-82.5 -157.1,-140.2 -273,-173.5 198.4,-82.6 417.5,-384.2 657.2,-905.4 -231.2,-322.3 -401.1,-516.5 -508.5,-582.7l273 -161.4c24.9,57.7 74.6,132.3 148.7,223.4 99.5,123.8 165.7,206.9 198.5,248.1 41.2,-99.5 95.2,-339.2 161.4,-719.6l-458.8 0c-190.5,0 -310.1,4.2 -359.9,12.7l0 -273.1zm1687 608c32.8,8 69.9,12.2 111.1,12.2 190.5,8.5 281.6,20.6 273.1,37 0,17 -8.5,37.6 -24.9,62 -41.2,83 -57.7,182 -49.7,297.9 66.1,636.6 359.8,1012.8 881,1128.7 -107.9,49.7 -190.5,144.5 -248.1,285.2 -430.2,-223.3 -677.9,-554 -744,-992.2 -33.4,446.6 -322.8,810.2 -868.4,1091.2 -82.6,-115.4 -182,-198.5 -297.9,-247.7 364,-83.1 637.1,-264.6 818.6,-546.1 173.6,-347.1 223.3,-723.4 149.2,-1128.2z"/>
  <path class="fil23" d="M81321.3 43593c16.4,16.4 41.2,32.8 74.6,49.2 173.5,108 305.8,190.5 396.8,248.2l-223.3 211.1c-132.3,-132.3 -277.2,-240.2 -433.9,-322.8l185.8 -185.7zm744 86.8l1389 0c83.1,0 161.4,-8.5 236,-24.9 -8.4,8 -12.7,20.7 -12.7,37.1 0,74.6 0,136.5 0,186.2l0 111.7c0,74.1 8.5,144.4 24.9,210.6l-322.3 0c0,-16.4 0,-45.5 0,-86.8 0,-32.8 4.3,-74.6 12.2,-123.8l0 -86.8 -1264.7 0 0 86.8c0,82.5 3.7,152.9 12.2,210.6l-322.3 0c8,-57.7 16.4,-128.1 24.4,-210.6l0 -136.5c0,-49.8 -3.7,-103.2 -12.2,-161.4 0,-16.4 0,-29.1 0,-37.1 57.7,16.4 136.5,24.9 235.5,24.9zm310.1 359.3c182,83.1 277.2,136.5 285.2,161.4 0,24.9 -16.4,45.5 -49.2,61.9 -66.2,24.9 -124.4,58.2 -174.1,99.5 -24.4,16.4 -45,32.8 -61.9,49.7 -173.6,156.7 -289.5,256.1 -347.2,297.4 -57.7,-41.3 -136.5,-86.8 -235.5,-136.5 281,-165.1 475.2,-342.9 582.7,-533.4zm669.9 12.7c98.9,91 273,251.9 520.7,483.7l-260.4 161.3c-173.5,-231.7 -330.7,-401.1 -471.5,-508.5l211.2 -136.5zm-1897.6 185.7c148.7,83.1 305.9,186.3 471.5,310.1l-174.1 211.2c-173.6,-140.8 -330.7,-244 -471,-310.1l173.6 -211.2zm1376.9 285.3c90.5,8.4 165.1,12.7 222.8,12.7 58.2,8.4 91,16.4 99.4,24.8 0,16.4 -4.2,37.1 -12.7,61.9 -32.8,74.6 -49.2,165.1 -49.2,273.1l483.7 0c231.2,0 380.5,-8.5 446.6,-24.9l0 260.4c-58.2,-8.5 -206.9,-16.4 -446.6,-24.9l-297.9 0c182,396.9 471.5,620.2 868.3,669.9 -173.5,115.4 -277.2,202.2 -310.1,260.4 -421.7,-231.8 -669.9,-541.9 -744,-930.3l0 657.2c0,173.6 8,326.5 24.9,458.8l-285.2 0c7.9,-140.2 16.4,-288.9 24.3,-446.1l0 -669.9c-222.8,430.2 -479.4,744 -768.9,942.4 -66.1,-41.2 -157.1,-91 -272.5,-148.7 330.8,-148.7 599,-413.2 805.9,-793.7l-148.6 0c-124.4,8.5 -256.7,16.4 -396.9,24.9l0 -273.1c98.9,24.9 231.2,37.6 396.9,37.6l384.1 0 0 -149.2c-7.9,-91.1 -16.4,-165.1 -24.3,-223.3zm-1141.4 396.8l260.3 149.3c-57.7,206.3 -107.4,384.1 -148.7,533.4 -91,297.3 -128,483.6 -111.6,557.7 -74.1,-57.7 -190,-107.4 -347.2,-148.7 165.7,-281 281,-645.1 347.2,-1091.7zm4678.2 -1500.2c91,8 165.7,12.2 223.3,12.2 49.8,8.5 78.3,16.4 86.8,24.9 0,16.4 -8.5,37 -24.9,61.9 -16.4,24.9 -20.6,41.3 -12.1,49.7l0 185.8 285.2 0c148.7,8.4 322.3,0 520.7,-24.9l0 236c-74.1,-8.5 -251.9,-12.7 -533.4,-12.7l-272.5 0 0 186.3 223.3 0c256.1,8.4 413.3,4.2 470.9,-12.7l0 223.3c-16.4,0 -49.7,0 -98.9,0 -99.5,0 -219.1,-3.7 -359.8,-12.2l-235.5 0 0 198.5 421.7 0c264.6,0 421.2,-8.5 471,-24.9l0 235.5c-16.4,0 -57.7,0 -123.8,0 -49.8,-8 -157.2,-12.2 -322.8,-12.2l-992.2 0c-90.5,8.5 -177.3,12.2 -260.4,12.2 -82.5,0 -152.9,0 -210.6,0l0 -235.5c206.4,16.4 359.8,24.9 458.8,24.9l310.1 0 0 -198.5 -260.4 0c-157.1,0 -277.2,4.2 -359.8,12.2l0 -235.5c107.4,16.4 223.3,24.9 347.1,24.9l273.1 0 0 -186.3 -285.2 0c-248.2,0 -392.7,4.2 -433.9,12.7l0 -236c148.7,16.9 288.9,24.9 421.2,24.9l285.7 0c0,-132.3 -4.2,-210.6 -12.7,-235.5 0,-49.7 0,-82.6 0,-99zm-1327.1 37.1c33.3,7.9 61.9,12.2 86.8,12.2 173.5,8.4 260.8,20.6 260.8,37.5 0,16.4 -12.7,41.3 -37.5,74.1 -24.9,49.7 -37.1,103.7 -37.1,161.4l0 2009.2c-8.4,305.9 -4.2,495.9 12.2,570.5l-285.2 0c0,-41.3 0,-107.4 0,-198.4 8.4,-74.7 12.7,-198.5 12.7,-372.1l0 -2009.2c-8.5,-57.7 -12.7,-111.7 -12.7,-161.4 0,-49.7 0,-91 0,-123.8zm496.3 558.3c115.9,189.9 194.2,318 235.5,384.1l-248.2 123.9c-16.4,-16.5 -28.5,-37.1 -37,-62 -32.8,-91 -86.8,-198.4 -161.4,-322.2l211.1 -123.8zm-843.5 111.1l273.1 24.8c-24.9,264.6 -58.2,529.2 -99.5,793.8 -91,-24.9 -182,-37 -272.5,-37 16.4,-91.1 32.8,-206.9 49.2,-347.2 24.9,-148.7 41.3,-293.7 49.7,-434.4zm1352.1 967.8l0 198.5 954.6 0 0 -198.5 -954.6 0zm0 372l0 173.6 954.6 0 0 -173.6 -954.6 0zm1215.5 -583.1c-24.9,91 -33.4,177.8 -24.9,260.3l0 868.4c49.2,223.3 -95.3,335 -434.5,335 -16.4,-115.9 -61.9,-214.9 -136,-298 231.3,24.9 342.9,8.5 334.5,-49.2l0 -186.2 -954.6 0c-8.5,339.2 0,512.7 24.8,520.7l-310.1 0c8,-49.2 16.4,-103.2 24.9,-160.9 7.9,-49.7 16.4,-103.7 24.4,-161.4l0 -868.4c-8,-98.9 -16.5,-185.7 -24.4,-260.3 90.5,16.4 198.4,24.9 322.3,24.9l793.7 0c132.3,8.4 251.9,0 359.9,-24.9z"/>
  <path class="fil24" d="M88983.2 46110.8c-604.2,0 -1094,-489.8 -1094,-1094 0,-604.2 489.8,-1094 1094,-1094 604.2,0 1094,489.8 1094,1094 0,604.2 -489.8,1094 -1094,1094z"/>
  <path class="fil17" d="M18983.2 89110.8c-604.2,0 -1094,-489.8 -1094,-1094 0,-604.2 489.8,-1094 1094,-1094 604.2,0 1094,489.8 1094,1094 0,604.2 -489.8,1094 -1094,1094z"/>
  <path class="fil18" d="M23230.9 86787.1c107.4,182.1 165.6,298 173.6,347.7 -8,7.9 -32.8,7.9 -74.1,0 -83.1,-8.5 -152.9,-12.7 -211.1,-12.7 -281,24.9 -657.3,66.1 -1128.7,124.4 -347.2,41.2 -644.6,69.8 -892.8,86.7 -41.2,-99.4 -91,-194.7 -148.6,-285.2 247.6,32.8 582.6,24.4 1004.3,-24.9 454.6,-58.2 880.5,-136.5 1277.4,-236zm-992.2 508.6c91,149.2 157.2,281.5 198.5,396.8l-285.3 62c-32.8,-123.9 -95.2,-256.2 -185.7,-396.9l272.5 -61.9zm1178.5 458.8c-413.8,388.9 -980,790 -1699.2,1203.3 190,115.9 442.4,182 756.2,198.4 446.6,16.4 852,-4.2 1215.5,-61.9 -74.1,74.1 -119.6,182 -136,322.3 -430.2,0 -752.5,-8 -967.8,-24.9 -231.3,-7.9 -429.7,-37 -595.3,-86.8 -148.7,-41.3 -276.8,-91 -384.2,-148.7 -58.2,-33.3 -99.5,-49.7 -124.4,-49.7 -90.5,8.4 -189.9,107.4 -297.4,297.9 -8.4,16.4 -12.1,28.6 -12.1,37l-298 -148.7c0,-8.4 8.5,-20.6 24.9,-37.5 132.3,-123.9 227.6,-206.4 285.2,-247.7 107.5,-66.1 210.6,-128.6 310.1,-186.2 372,-190 764.7,-450.4 1177.9,-781.1l-967.3 0c-148.7,7.9 -281,12.2 -396.8,12.2 -107.5,8.4 -194.2,16.4 -260.4,24.8l0 -285.2c115.9,16.4 335,24.9 657.2,24.9l645.1 0c173.6,0 380.5,-4.2 620.2,-12.7 206.9,-16.4 355.6,-32.8 446.6,-49.7zm2457.9 -1041.4c74.6,7.9 136.5,12.1 186.2,12.1 91,0 136.5,4.3 136.5,12.7 0,16.4 -8.4,32.8 -24.8,49.2 -17,49.8 -24.9,95.3 -24.9,136.6l0 297.9 235.5 0c165.6,0 318.5,-17 458.8,-49.8l0 285.3c-132.3,-8.5 -281,-16.4 -446.1,-24.9l-248.2 0 0 483.6 297.4 0c173.6,0 330.7,-12.1 471.5,-37l0 272.5c-115.9,-7.9 -260.4,-16.4 -433.9,-24.3l-198.5 0c140.3,479.4 421.8,793.7 843,942.4 -74.1,32.8 -156.6,91 -247.7,173.6 -24.8,8.5 -41.2,20.6 -49.7,37 -372,-189.9 -599.5,-557.7 -682.1,-1103.8l0 843.5c0,248.2 7.9,409.6 24.9,483.7l-310.1 0c7.9,-49.8 16.4,-119.6 24.9,-210.7 0,-66.1 3.7,-149.2 12.1,-248.1l0 -793.8c-140.7,438.2 -384.2,805.9 -731.8,1103.9 -82.6,-82.6 -173.6,-140.8 -272.5,-173.6 404.8,-239.7 686.3,-591.1 842.9,-1054.1l-61.9 0c-165.1,7.9 -293.1,16.4 -384.2,24.3l0 -260.3c123.9,16.9 260.4,24.8 409.1,24.8l198.4 0 0 -470.9 -148.7 0c-157.1,7.9 -289.4,16.4 -396.8,24.3l0 -285.2c82.5,24.9 210.6,37.6 384.1,37.6l161.4 0 0 -297.9c-8.4,-57.7 -16.4,-128.1 -24.8,-210.6zm-1599.7 334.9c74.1,16.4 202.7,24.4 384.2,24.4l124.3 0c173.6,0 310.1,-8 409.1,-24.4 -8,8 -12.2,198.5 -12.2,570.5l0 731.3c0,215.3 7.9,388.9 24.9,521.2l-298 0c8.5,-66.2 16.4,-128.1 24.9,-186.3l-372 0c0,173.6 7.9,305.9 24.9,396.9l-310.1 0c7.9,-140.2 16.4,-297.4 24.9,-471l0 -930.2c-8.5,-248.2 -17,-458.8 -24.9,-632.4zm657.2 260.4l-372 0 0 1153 372 0 0 -1153z"/>
  <path class="fil25" d="M9983.2 61110.8c-604.2,0 -1094,-489.8 -1094,-1094 0,-604.2 489.8,-1094 1094,-1094 604.2,0 1094,489.8 1094,1094 0,604.2 -489.8,1094 -1094,1094z"/>
  <path class="fil26" d="M13982.2 58550.1c222.8,33.4 342.9,54 359.3,61.9 0,8.5 -12.2,20.7 -37,37.6 -41.3,32.8 -61.9,66.2 -61.9,99l0 409.5 285.2 0c297.4,8 463,0 495.8,-24.8l0 272.5c-41.3,-8 -91,-12.2 -148.7,-12.2 -32.8,-8.5 -144.5,-12.7 -335,-12.7l-297.3 0 0 583.2c248.1,0 438.1,-8.5 570.4,-24.9 -16.4,115.9 -24.9,277.3 -24.9,483.6l0 372c0,256.7 8.5,426 24.9,508.6l-297.9 0c8.4,-49.2 16.9,-144.5 24.8,-285.2l-793.7 0c0,149.2 8.5,243.9 24.9,285.2l-297.4 0c16.4,-82.6 24.8,-239.7 24.8,-471l0 -434.4c0,-165.1 -4.2,-268.3 -12.7,-310.1 0,-57.7 -8.4,-107.4 -24.8,-148.7 49.7,24.9 231.8,33.3 545.5,24.9l0 -583.2 -160.8 0c-206.9,0 -364.1,8.5 -471.5,24.9l0 -272.5c58.2,24.8 211.1,32.8 458.8,24.8l173.5 0 0 -434.4c0,-66.2 -7.9,-115.4 -24.3,-148.7 0,-8.5 0,-16.4 0,-24.9zm-1290.1 24.9c198.4,8.5 314.3,24.9 347.1,49.7 0,8 -7.9,16.4 -24.8,24.9 -41.3,41.3 -62,74.1 -62,99l0 421.7c140.8,0 252.5,-8.5 335,-24.9l0 260.4c-32.8,-8 -70.4,-12.2 -111.6,-12.2 -41.3,-8.5 -115.9,-12.7 -223.4,-12.7l0 459.3 186.3 -99.5c49.8,66.2 144.5,202.7 285.2,409.6l-248.1 136c-41.3,-98.9 -115.9,-239.7 -223.4,-421.2l0 1004.4c-7.9,264.5 0,409 24.9,433.9l-285.2 0c8.5,-32.8 12.7,-82.6 12.7,-148.7 7.9,-49.8 12.2,-144.5 12.2,-285.2l0 -1004.4c-91,272.5 -210.6,553.5 -359.9,843 -66.1,-107.5 -140.2,-194.2 -223.3,-260.4 256.7,-239.7 438.7,-595.3 546.1,-1066.8 -256.6,0 -405.3,8.5 -446.6,24.9l0 -260.4c24.9,24.9 185.7,33.4 483.7,24.9l0 -372c-8.5,-115.9 -16.4,-190 -24.9,-223.3zm1054.1 1587.5l0 657.2 793.7 0 0 -657.2 -793.7 0zm2173.2 -1587.5c198.4,24.9 305.8,45.5 322.2,61.9 0,8.5 -4.2,12.7 -12.1,12.7 -33.4,32.8 -49.8,69.9 -49.8,111.7 -8.4,16.4 -12.7,222.7 -12.7,619.6 83.1,-82.5 157.2,-194.2 223.3,-334.4 140.8,98.9 219.1,160.8 236,185.7 -8.4,8.5 -20.6,16.4 -37.5,24.9 -41.3,16.4 -69.9,33.3 -86.8,49.7 -99,82.6 -190,165.1 -272.5,248.2 -33.4,41.3 -58.2,69.9 -74.6,86.8 0,41.3 0,103.2 0,185.7 0,41.3 -4.3,91 -12.2,148.7 0,58.2 0,111.7 0,161.4 41.3,41.3 148.7,182.1 322.2,421.8 16.4,24.8 29.1,37 37.1,37l-173.6 161.4c-107.4,-206.9 -185.7,-339.2 -235.5,-396.9 -82.5,372 -198.4,677.9 -347.1,917.6 -99.5,-66.1 -194.7,-98.9 -285.2,-98.9 313.8,-339.2 475.2,-806.5 483.6,-1401.8 -8.4,-578.4 -16.9,-979.5 -24.8,-1202.8zm2083.3 24.9c-7.9,66.1 -12.2,132.3 -12.2,198.4l0 297.4c0,83.1 4.3,152.9 12.2,211.1 -41.3,0 -86.8,0 -136.5,0 -49.2,0 -99,-4.2 -148.7,-12.7l-719.2 0c-58.2,8.5 -111.6,12.7 -161.4,12.7 -57.6,0 -103.1,0 -136.5,0 0,-24.8 0,-53.9 0,-86.8 0,-41.2 4.3,-78.8 12.7,-111.6l0 -297.9c-8.4,-32.8 -12.7,-69.9 -12.7,-111.7 0,-32.8 0,-66.1 0,-98.9 83.1,8.4 173.6,12.1 273.1,12.1l744 0c91,0 186.2,-3.7 285.2,-12.1zm-272.5 210.6l-756.7 0 0 285.2 756.7 0 0 -285.2zm-2108.7 483.6c148.6,8.5 236,17 260.3,24.9 0,0 -12.2,49.7 -37,149.2 -16.4,57.7 -37.1,219.1 -62,483.7 -8.4,57.7 -12.7,103.2 -12.7,136l-235.4 -12.2c49.7,-140.7 78.8,-401.1 86.8,-781.6zm1798.6 174.1c66.1,8 136,12.2 210.6,12.2l359.8 0c91,0 173.6,-4.2 248.2,-12.2 -8.5,8 -12.7,74.1 -12.7,198.5l0 297.4c0,66.1 4.2,123.8 12.7,173.5 -41.8,-7.9 -120.1,-12.1 -236,-12.1l-359.3 0c-41.8,7.9 -83.1,12.1 -124.4,12.1 -41.2,0 -74,0 -98.9,0 0,0 3.7,-66.1 12.2,-198.4l0 -297.4c-8.5,-24.9 -12.2,-54 -12.2,-86.8 0,-24.9 0,-54 0,-86.8zm-955.2 0c0,8 74.7,12.2 223.4,12.2l334.9 0c82.6,0 160.9,-4.2 235.5,-12.2l-12.2 185.8 0 285.2c0,82.5 3.7,152.9 12.2,211.1 -57.7,-8.4 -136.5,-12.7 -235.5,-12.7l-322.8 0c-41.3,8.5 -82.5,12.7 -123.8,12.7 -41.3,0 -78.8,0 -111.7,0 0,-24.8 0,-58.2 0,-99.5 0,-32.8 4.3,-66.1 12.2,-98.9l0 -297.9 -12.2 -185.8zm1537.8 198.5l-347.1 0 0 272.5 347.1 0 0 -272.5zm-967.3 0l-335 0 0 285.2 335 0 0 -285.2zm-520.7 917.5l0 -223.3c115.3,8.5 227,12.2 334.9,12.2l347.2 0c0,8.5 -4.3,12.7 -12.7,12.7 0,-91 0,-161.4 0,-211.1 157.1,8.4 256.6,16.9 297.9,24.8 0,8.5 -8.5,17 -24.9,24.9 -24.8,16.4 -37,33.3 -37,49.7 0,57.7 0,91.1 0,99l520.7 0c107.4,0 223.3,-7.9 347.1,-24.3l0 247.6c-140.2,-24.9 -256.1,-37 -347.1,-37l-297.4 0c107.4,214.8 347.1,364 719.1,446.6 -91,66.1 -145,148.7 -161.4,248.2 -363.5,-140.8 -623.8,-368.3 -781,-682.7l0 583.2c-8.5,74.6 -4.2,145 12.2,211.1l-260.4 0c16.4,-24.8 24.9,-99.5 24.9,-223.3l0 -571c-182.1,330.8 -446.6,583.2 -793.8,756.8 -74.6,-99 -157.1,-165.1 -248.1,-198.5 330.7,-74.1 603.7,-264.6 818.6,-570.4l-123.9 0c-124.3,8.4 -236,16.4 -334.9,24.8z"/>
  <path class="fil27" d="M34983.2 79110.8c-604.2,0 -1094,-489.8 -1094,-1094 0,-604.2 489.8,-1094 1094,-1094 604.2,0 1094,489.8 1094,1094 0,604.2 -489.8,1094 -1094,1094z"/>
  <path class="fil28" d="M38982.7 76637.7c248.2,41.3 367.8,78.3 359.3,111.6 -7.9,16.4 -28.6,37.1 -61.9,61.9 -107.4,74.7 -210.6,194.3 -310.1,359.9l285.2 0c140.8,0 236,-4.3 285.3,-12.7 16.9,-8 29.1,-12.2 37.5,-12.2 -16.4,24.9 -20.6,132.3 -12.7,322.3l0 669.9c0,82.5 0,169.3 0,260.3 8.5,24.9 12.7,37.1 12.7,37.1 -16.4,0 -49.7,0 -99.5,0 -32.8,-7.9 -119.5,-12.2 -260.3,-12.2l-570.4 0 0 260.4 632.3 0c364.1,0 566.7,-4.3 608,-12.2 16.4,-8.5 28.6,-12.7 37.1,-12.7l0 297.9c-8.5,0 -20.7,0 -37.1,0 -149.2,-24.9 -347.6,-41.3 -595.3,-49.7l-645 0 0 223.3c0,165.1 4.2,264.6 12.1,297.4 8.5,24.9 12.7,41.3 12.7,49.7l-297.9 0c0,-16.4 0,-32.8 0,-49.7 24.9,-66.2 37.6,-165.1 37.6,-297.4l0 -223.3 -669.9 0c-239.8,0 -429.7,12.1 -570.5,37 -16.4,0 -24.9,0 -24.9,0l0 -272.5c0,0 4.3,3.7 12.2,12.2 115.9,0 306.4,0 571,0l682.1 0 0 -260.4 -608 0c-165.1,0 -268.9,8 -310.1,24.9 8.4,-83.1 16.9,-211.1 24.8,-384.7l0 -582.6c-7.9,-49.8 -12.1,-103.7 -12.1,-161.4 0,-66.2 0,-123.8 0,-173.6 57.7,24.9 173.5,32.8 347.1,24.9l260.4 0c-66.2,-115.9 -165.1,-252.4 -297.4,-409.6l223.3 -111.6c98.9,74.6 210.6,202.6 334.4,384.7l-235.5 136.5 583.2 0c74.1,-99.5 160.8,-277.3 260.3,-533.4zm-334.9 731.8l0 334.5 657.2 0 0 -334.5 -657.2 0zm-235.5 0l-645.1 0 0 334.5 645.1 0 0 -334.5zm235.5 508.5l0 334.5 657.2 0 0 -334.5 -657.2 0zm-880.6 0l0 334.5 645.1 0 0 -334.5 -645.1 0zm3102.9 -1203.3c157.2,231.8 260.4,392.7 310.1,483.7l-248.1 136.5c-99,-214.8 -206.4,-380.5 -322.3,-495.8l260.3 -124.4zm2294.5 74.6c-16.4,107.5 -24.9,202.7 -24.9,285.3l0 2157.9c-7.9,173.6 -177.8,260.4 -508.5,260.4 -7.9,-107.5 -49.2,-206.4 -123.8,-297.4 264.6,49.2 396.9,28.5 396.9,-62.5l0 -2083.3 -520.7 0 0 297.4 61.9 0c7.9,0 41.2,0 98.9,0 99.5,-8 165.7,-12.2 198.5,-12.2l0 210.6c-66.2,-7.9 -165.1,-12.2 -297.4,-12.2l-61.9 0 0 298 74 0c33.4,0 86.8,0 161.4,0 66.2,-8.5 119.6,-17 161.4,-24.9l0 223.3c-49.7,-8.5 -157.1,-12.7 -322.8,-12.7l-347.1 0c-123.8,0 -223.3,4.2 -297.9,12.7l0 -223.3c124.3,24.9 219.1,32.8 285.2,24.9l62.5 0 0 -298 -37.6 0c-82.6,0 -165.1,4.3 -247.7,12.2l0 -210.6c24.4,0 66.2,4.2 123.9,12.2 57.6,8.4 103.1,8.4 136.5,0l24.9 0 0 -297.4 -471.5 0c0,380.5 0,760.4 0,1140.9 -8.5,521.2 -136.6,955.1 -384.7,1302.3 -74.1,-57.7 -169.4,-103.2 -285.3,-136.6 273.1,-281 417.6,-690 434.5,-1227.6 0,-41.3 0,-91.1 0,-148.7 0,-587.4 -12.7,-980.1 -37.6,-1178.5 149.2,16.4 289.5,24.9 421.8,24.9l818.6 0c99.5,0 202.7,0 310.1,0 99.5,-8.5 165.6,-20.7 198.4,-37.1zm-2741.1 793.8c49.8,24.9 145,37 285.2,37 140.8,0 256.7,-12.1 347.7,-37 7.9,0 12.2,4.2 12.2,12.2 0,16.4 -8,115.8 -24.9,297.9l-49.2 880.5c49.2,-58.2 119.6,-152.9 210.6,-285.2l123.8 247.6c-165.1,149.3 -313.8,318.6 -446.1,508.6l-198.4 -210.6c49.2,-57.7 74.1,-132.3 74.1,-223.3l37.6 -967.4c-182.1,16.4 -306.4,24.9 -372.6,24.9l0 -285.2zm2022 830.8l-359.9 0 0 372 359.9 0 0 -372zm247.6 -198.5c-24.3,57.7 -37,123.9 -37,198.5l0 372c0,99.5 12.7,169.8 37,211.1 -66.1,-16.9 -144.4,-24.9 -235.5,-24.9l-359.8 0c-98.9,0 -181.5,8 -247.6,24.9 7.9,-49.7 16.4,-115.9 24.8,-198.4l0 -384.7c-8.4,-66.2 -16.9,-132.3 -24.8,-198.5 66.1,16.4 144.4,24.9 235.4,24.9l359.9 0c98.9,0 181.5,-8.5 247.6,-24.9z"/>
  <path class="fil11" d="M29983.2 35110.8c-604.2,0 -1094,-489.8 -1094,-1094 0,-604.2 489.8,-1094 1094,-1094 604.2,0 1094,489.8 1094,1094 0,604.2 -489.8,1094 -1094,1094z"/>
  <path class="fil12" d="M32254.2 32728c82.5,24.4 198.4,32.8 347.1,24.4l1537.8 0c157.1,8.4 285.2,0 384.7,-24.4l0 247.7c-16.9,0 -29.1,0 -37.6,0 -115.3,-8 -227,-16.4 -334.4,-24.9l-682.1 0 0 149.2 979.5 0c107.4,8 202.6,0 285.2,-24.8 -7.9,16.4 -12.2,32.8 -12.2,49.7 -16.9,82.5 -20.6,148.7 -12.7,198.4 0,107.5 8.5,194.2 24.9,260.4l-285.2 0c8.4,-33.4 12.7,-74.6 12.7,-124.4 7.9,-41.2 12.1,-103.2 12.1,-185.7l-1004.3 0 0 198.4c-8.5,115.9 0,239.7 24.3,372l-272.5 0c16.4,-74.6 24.9,-198.4 24.9,-372l0 -198.4 -967.3 0c0,49.7 0,111.6 0,185.7 7.9,66.2 16.4,111.7 24.3,136.6l-272.5 0c7.9,-115.9 16.4,-206.4 24.9,-272.6 -8.5,-83 -17,-161.4 -24.9,-236 57.7,17 144.4,20.7 260.3,12.7l955.2 0 0 -149.2 -645.1 0c-123.8,8.5 -239.7,16.9 -347.1,24.9l0 -247.7zm1364.2 669.4c123.8,16.4 235.5,20.7 334.9,12.7 99,8 219.1,3.7 359.3,-12.7l0 198.5c-148.6,-24.9 -264.5,-37.1 -347.1,-37.1 -91,0 -206.9,8.5 -347.1,24.9l0 -186.3zm-1203.3 -12.2c74.6,24.9 186.2,32.9 334.9,24.9 74.6,8 182.1,3.7 322.8,-12.7l0 186.3c-115.9,-8.5 -223.3,-12.7 -322.8,-12.7 -74.1,0 -136.5,4.2 -185.7,12.7 -49.8,0 -99.5,0 -149.2,0l0 -198.5zm-12.2 297.4c140.7,17 248.2,20.7 322.2,12.7 107.5,8 219.1,4.3 335,-12.7l12.7 173.6c-58.2,0 -111.6,0 -161.4,0 -49.7,-7.9 -103.2,-12.2 -161.4,-12.2 -123.8,0 -239.7,4.3 -347.1,12.2l0 -173.6zm1202.8 0c132.3,17 252.4,20.7 359.8,12.7 91,8 210.6,4.3 359.8,-12.7l0 186.3c-149.2,-8.5 -264.5,-12.7 -347.6,-12.7 -24.4,0 -49.2,0 -74.1,0 -74.6,0 -173.6,4.2 -297.9,12.7l0 -186.3zm-1302.3 285.3c83.1,24.8 186.3,37.5 310.1,37.5l1625.1 0c32.8,0 86.7,0 160.8,0 66.2,-8.4 124.4,-16.9 173.6,-24.8l0 223.3c-123.8,-8.5 -231.2,-17 -322.3,-24.9l-1711.3 0c7.9,123.8 0,272.5 -24.9,446.6l1724.1 0c91,0 181.5,-4.2 272.5,-12.7 33.3,0 58.2,-4.2 74.6,-12.2l0 223.4c-132.3,-8.5 -248.2,-17 -347.1,-24.9 123.8,123.8 181.5,198.4 173.5,223.3 0,7.9 -8.4,12.2 -24.8,12.2 -107.5,8.4 -264.6,53.9 -471.5,136.5 223.3,74.1 496.3,111.6 818.6,111.6 -91,74.1 -144.5,160.9 -161.4,260.4 -661.5,-91 -1079,-339.2 -1252.5,-744l-322.3 0 0 433.9c66.1,0 206.9,-45.5 421.7,-136.5 -24.8,82.5 -24.8,152.9 0,211.1 -289.4,82.6 -508.5,165.1 -657.2,247.7 -16.9,-82.6 -45.5,-153 -86.8,-210.6 57.7,-16.4 90.5,-54 99,-111.7l12.2 -433.9 -297.4 0c-66.2,289.4 -186.3,520.7 -359.9,694.3 -66.1,-57.7 -157.1,-99 -272.5,-123.9 190,-99.5 326.5,-273 409.1,-521.2 49.7,-231.3 61.9,-524.9 37,-880.5zm384.7 334.9c82.6,16.4 190,20.7 322.3,12.7l1041.9 0c82.5,8 177.8,3.7 285.2,-12.7l0 198.5c-49.7,0 -95.2,0 -136.5,0 -41.3,-8 -91,-12.2 -148.7,-12.2l-1029.2 0c-173.6,0 -285.3,4.2 -335,12.2l0 -198.5zm855.7 496.4c41.2,91 111.6,177.8 211.1,260.3 107.4,-33.3 251.9,-120.1 433.9,-260.3l-645 0zm3710.9 -2145.8c66.1,148.7 115.9,276.8 148.7,384.7l-273.1 61.9c-49.2,-165.6 -98.9,-289.4 -148.6,-372l273 -74.6zm-1575.3 24.9c132.3,16.4 215.3,24.9 248.2,24.9 57.6,7.9 86.7,12.1 86.7,12.1 0,16.4 -8.4,33.4 -24.8,49.8 -32.8,49.7 -49.8,103.2 -49.8,161.4l0 2021.4c-7.9,380.5 0,574.7 24.9,583.1l-297.4 0c7.9,-33.3 12.2,-87.3 12.2,-161.4 8.4,-49.7 12.7,-186.2 12.7,-409.6l0 -1959.5c0,-173.5 -4.3,-280.9 -12.7,-322.2zm608 421.7c66.1,16.4 247.6,24.9 545.6,24.9l868.3 0c222.8,7.9 384.2,0 483.7,-24.9l0 285.2c-33.4,-8.4 -83.1,-12.7 -149.2,-12.7 -49.3,-7.9 -160.9,-12.1 -334.5,-12.1l-880.5 0c-281.5,0 -459.3,8.4 -533.4,24.8l0 -285.2zm-930.3 210.6c157.2,8.5 256.1,16.4 297.4,24.9 0,16.4 -7.9,37 -24.3,61.9 -24.9,49.8 -41.8,95.3 -49.8,136.5 -24.9,157.2 -58.2,347.2 -99.5,570.5 -24.8,0 -78.3,-4.2 -160.8,-12.2 -24.9,0 -58.2,-4.2 -99.5,-12.7 74.6,-181.5 120.1,-438.1 136.5,-768.9zm1079 322.8c66.1,24.4 243.9,32.8 533.4,24.4l322.2 0c322.8,8.4 521.3,0 595.4,-24.4 -16.4,24.4 -20.7,160.9 -12.2,409.1 -8.5,248.2 0,409 24.9,483.6 -108,-8.4 -310.1,-16.4 -608.1,-24.8l0 756.7c33.4,182 -111.6,276.7 -433.9,285.2 -16.4,-115.9 -53.9,-214.8 -111.6,-297.9 231.2,41.8 330.7,12.7 297.4,-86.8l0 -657.2c-338.7,0 -537.1,12.7 -595.3,37 0,-16.4 0,-61.9 0,-136 8.4,-58.2 12.7,-169.9 12.7,-335 0,-140.7 -4.3,-239.7 -12.7,-297.9 0,-66.1 -3.8,-111.6 -12.2,-136zm273 235.5l0 421.8 917.6 0 0 -421.8 -917.6 0zm-149.2 756.7c173.6,57.7 277.3,103.2 310.1,136 0,8.5 -7.9,12.7 -24.9,12.7 -41.2,24.9 -78.3,57.7 -111.6,99 -165.1,231.7 -301.7,405.3 -409.1,521.2 -82.5,-58.2 -169.3,-95.3 -260.3,-111.7 165.1,-124.3 330.7,-343.4 495.8,-657.2zm1141.4 0c190,198.5 351.4,392.7 483.7,582.6l-223.3 161.4c-157.2,-231.8 -318.6,-434.4 -483.7,-608l223.3 -136zm-1525.6 -1302.3c57.7,99 128.1,247.7 210.6,446.1l-248.1 99.5c-57.7,-190.5 -115.4,-343.4 -173.6,-458.8l211.1 -86.8z"/>
  <path class="fil23" d="M79485.9 69520.2c231.8,74.7 343.4,120.2 334.9,136.6 0,8.4 -12.1,16.4 -37,24.8 -8.5,0 -12.7,0 -12.7,0 149.2,338.7 475.7,591.1 980,756.2 -82.5,91 -140.7,182 -173.5,273.1 -214.9,-107.5 -389,-219.1 -521.3,-335l0 149.2c-239.7,-8.4 -516.4,-8.4 -830.8,0l0 -161.4c-107.4,115.9 -223.3,231.3 -347.1,347.2 32.8,8.4 95.2,12.7 185.7,12.7l359.9 0c0,0 8.4,3.7 24.8,12.1 107.5,0 186.3,-8.4 235.5,-24.8 -16.4,157.1 -20.6,273 -12.2,347.1l0 1116.5c0,91.1 -20.6,148.7 -61.9,173.6 -33.3,24.9 -136.5,53.5 -310.1,86.8 0,-115.9 -24.8,-202.7 -74.6,-260.4 148.7,24.9 223.3,-4.2 223.3,-86.7 0,-132.3 0,-211.2 0,-236.1l-421.7 0 0 223.4c-7.9,149.2 -4.2,260.3 12.7,334.9l-248.2 0c8,-82.5 12.2,-189.9 12.2,-322.2l0 -980.1c-8,-66.1 -12.2,-128 -12.2,-185.7 0,-58.2 0,-103.7 0,-136.5 -49.7,24.8 -91,49.2 -124.3,74.1 -99,-115.4 -156.7,-173.6 -173.6,-173.6 0,-7.9 0,-16.4 0,-24.9 430.2,-181.5 760.9,-562 992.2,-1140.9zm136.5 298c-74.1,148.7 -185.7,310.1 -335,483.6 41.3,8 111.7,8 211.2,0l235.5 0c107.4,8 186.2,8 235.4,0 -148.7,-140.7 -264.5,-302.1 -347.1,-483.6zm-1736.2 409c24.9,8.5 74.6,12.2 148.7,12.2 82.6,8.4 124.4,12.7 124.4,12.7 0,8.4 -4.3,16.4 -12.7,24.8 -16.4,-33.3 -53.5,244 -111.7,830.8 -74.1,-16.4 -161.4,-20.6 -260.3,-12.1 74.6,-231.8 111.6,-521.3 111.6,-868.4zm2344.2 446.6c156.7,8 256.1,16.4 297.4,24.9 0,7.9 -4.2,20.6 -12.2,37 -16.9,24.9 -24.8,161.4 -24.8,409.1l0 992.2c0,132.3 -29.1,215.3 -86.8,248.2 -41.3,41.2 -169.9,70.3 -384.7,86.7 -8,-115.3 -45.5,-214.8 -111.7,-297.4 248.2,57.7 364.1,16.4 347.2,-124.3l0 -892.7c-8,-198.5 -16.4,-359.9 -24.4,-483.7zm-396.9 160.9c148.7,8.5 244,16.9 285.3,24.9 0,8.4 -4.3,24.8 -12.7,49.7 -16.4,74.6 -24.9,161.4 -24.9,260.4l0 446.6c0,16.4 -3.7,45.5 -12.2,86.8 0,148.6 4.3,239.7 12.2,273l-247.7 0c8,-41.3 12.2,-136.5 12.2,-285.2 0,-24.9 0,-45.5 0,-62.5l0 -483.6c0,-115.4 -4.2,-219.1 -12.2,-310.1zm-384.7 87.3l-421.7 0 0 272.5 421.7 0 0 -272.5zm-421.7 471l0 260.3 421.7 0 0 -260.3 -421.7 0zm-347.1 -880.6c-41.3,-91 -95.3,-189.9 -161.4,-297.4l186.2 -124.3c66.2,91 128.1,194.2 185.8,310.1l-210.6 111.6zm-211.2 1488.6c0,123.8 8.5,281 24.9,470.9l-285.2 0c16.9,-91 24.8,-247.6 24.8,-470.9l0 -1823.5c-7.9,-123.9 -12.1,-235.5 -12.1,-335 0,-90.5 0,-165.1 0,-222.8 148.7,16.4 239.7,24.4 272.5,24.4 49.7,8.4 74.6,12.7 74.6,12.7 -8.5,8.4 -12.2,12.1 -12.2,12.1 -58.2,49.8 -87.3,219.1 -87.3,508.6l0 1823.5zm4938.6 -2431c74.6,24.9 136.5,45.5 186.3,61.9 99.5,24.9 148.7,41.3 148.7,49.7 0,8 -4.2,12.2 -12.2,12.2 -99.5,74.6 -214.8,260.4 -347.1,558.3 140.2,0 281,-8.5 421.2,-24.9 -24.3,82.6 -37,244 -37,483.7 0,239.7 12.7,401.1 37,483.6 -49.2,0 -111.1,-4.2 -185.7,-12.1 -74.7,0 -153,0 -235.5,0l0 793.7c-17,99 53.4,144.5 210.6,136.5 123.8,8 198.4,-99.5 223.3,-322.8 66.1,66.2 157.2,115.9 273,148.7 -74.6,264.6 -182,393.2 -322.7,384.7l-359.9 0c-189.9,0 -276.7,-70.3 -260.3,-210.6l0 -930.2 -235.5 0c-8.5,338.6 -57.7,578.3 -148.7,719.1 -91,157.2 -268.8,322.8 -533.4,496.4 -91,-91.1 -177.8,-157.2 -260.4,-198.5 495.9,-149.2 735.6,-487.9 719.2,-1017 -74.6,7.9 -140.8,12.1 -198.5,12.1 -57.6,0 -103.1,0 -136.5,0 8.5,-107.4 12.7,-276.7 12.7,-508.5 0,-231.3 -4.2,-384.2 -12.7,-458.8 99.5,16.4 202.7,24.9 310.1,24.9l483.7 0c132.3,-305.9 219,-533.4 260.3,-682.1zm-1835.1 12.2c223.3,16.9 334.9,29.1 334.9,37.5 0,8 -4.2,16.4 -12.7,24.4 -32.8,74.6 -49.7,223.3 -49.7,446.6l0 1885.4c-7.9,99 0,251.9 24.9,458.8l-310.1 0c16.9,-132.3 24.8,-289.5 24.8,-471.5l0 -1884.9c0,-173.6 -4.2,-339.2 -12.1,-496.3zm1091.1 0c107.4,140.7 214.9,297.9 322.8,471.4l-248.2 123.9c-82.5,-173.6 -190.5,-335 -322.8,-483.7l248.2 -111.6zm-570.4 595.3c91,231.7 161.4,421.7 211.1,570.4l-273 74.6c-49.8,-248.2 -103.2,-442.4 -161.4,-583.1l223.3 -61.9zm-880.6 61.9c165.7,8.4 264.6,16.9 298,24.8 -8.5,8.5 -12.7,12.7 -12.7,12.7 -16.4,-49.7 -53.5,231.3 -111.7,843.5l-248.2 -12.7c66.2,-289.4 91,-578.9 74.6,-868.3zm2331.5 223.3l-930.2 0 0 508.5 930.2 0 0 -508.5z"/>
  <path class="fil24" d="M75983.2 72110.8c-604.2,0 -1094,-489.8 -1094,-1094 0,-604.2 489.8,-1094 1094,-1094 604.2,0 1094,489.8 1094,1094 0,604.2 -489.8,1094 -1094,1094z"/>
 </g>
</svg>
